<svg width="62" height="70" viewBox="0 0 62 70" fill="none" xmlns="http://www.w3.org/2000/svg">
<path d="M59.1118 31.0924C59.1669 31.3463 59.0618 31.5336 58.8516 31.7045C58.7853 31.5877 58.9229 31.3313 58.6251 31.3602C58.6364 31.5261 58.6402 31.6882 58.6614 31.8466C58.7052 32.1658 58.6276 32.426 58.3561 32.6246C58.2923 32.6711 58.2686 32.7817 58.2423 32.8684C58.2023 32.9966 58.1747 33.1298 58.1384 33.2718C57.678 33.3573 57.5829 33.7042 57.5341 34.1001C57.5229 34.1981 57.4253 34.2861 57.3164 34.3565V34.5576C57.1988 34.6544 57.0775 34.7336 56.9836 34.8379C56.9036 34.9259 56.8648 35.0503 56.791 35.1446C56.602 35.3859 56.5257 35.6875 56.3818 35.9527C56.2304 36.233 55.9302 36.3637 55.8088 36.6729C55.8401 36.7118 55.8814 36.7634 55.9377 36.8325C55.7112 36.8312 55.6324 37.2121 55.3584 36.9645C55.1532 37.2385 54.9768 37.5024 54.7704 37.7387C54.6753 37.848 54.5226 37.9046 54.3888 37.9888C54.4075 38.0165 54.4375 38.063 54.4651 38.1044C54.3963 38.3231 54.2148 38.1887 54.0284 38.2364C54.1548 38.3005 54.2299 38.337 54.2987 38.3722C54.3074 38.4953 54.3149 38.6122 54.3249 38.7417C54.0847 38.8648 54.096 39.3638 53.6869 39.257C53.6155 39.355 53.558 39.4317 53.5017 39.5096C53.4154 39.6315 53.3178 39.7472 53.2502 39.8791C53.1651 40.0438 53.045 40.1142 52.8123 40.0915C52.5108 40.0626 52.5095 40.0614 52.4082 40.3391C52.3544 40.4862 52.2956 40.6156 52.1529 40.7149C52.0541 40.7841 52.0116 40.9361 51.944 41.0505C51.9127 41.1046 51.8902 41.1674 51.8464 41.2076C51.7526 41.2956 51.6375 41.4477 51.5499 41.4364C51.3822 41.4137 51.3622 41.2202 51.3334 41.0669C51.3259 41.0279 51.3222 40.9889 51.3147 40.9412C51.1232 41.1209 51.1308 41.1485 51.441 41.5495C51.2459 41.7129 51.0457 41.87 50.8568 42.0409C50.5928 42.2797 50.5953 42.4104 50.8843 42.6392C51.0131 42.741 51.0995 42.8478 51.1358 43.0137C51.1583 43.1168 51.2346 43.2136 51.3009 43.3015C51.4536 43.5026 51.5136 43.9224 51.3922 44.1273C51.5899 44.263 51.5349 44.4491 51.4798 44.6451C51.4323 44.8161 51.5849 45.0259 51.3647 45.1629C51.4185 45.2434 51.4623 45.31 51.5161 45.3917C51.4423 45.4457 51.3785 45.491 51.2959 45.5501C51.3447 45.628 51.391 45.7021 51.4185 45.7449C51.371 45.8517 51.2821 45.9535 51.3009 46.0252C51.3722 46.2841 51.2859 46.5166 51.2321 46.7579C51.2258 46.7855 51.2409 46.8182 51.2546 46.8936C51.4936 46.7127 51.7438 46.6108 51.9578 46.4022C52.1329 46.2313 52.3506 46.0314 52.6446 46.0314C52.8098 46.0314 52.9111 45.9623 52.9587 45.7901C53.0288 45.54 53.249 45.4193 53.4504 45.2924C53.9333 44.9895 54.4213 44.7017 54.8029 44.2568C54.9943 44.0343 55.2333 43.8445 55.5386 43.7515C55.6874 43.7063 55.8063 43.5642 55.9402 43.4687C56.0653 43.3782 56.1842 43.2714 56.3218 43.2048C56.4782 43.1294 56.6308 42.9999 56.8373 43.1256C56.9073 43.1683 57.0324 43.1193 57.2051 43.1067C57.4866 43.2701 57.6755 43.6082 57.8369 43.9488C57.9883 44.2706 57.9608 44.2844 58.206 44.4692C58.2385 44.6627 58.2998 44.8324 58.2886 44.9958C58.2648 45.3201 58.4387 45.5538 58.5776 45.8165C58.8191 46.274 58.9454 46.7554 58.7665 47.2807C58.7215 47.414 58.7703 47.5786 58.7778 47.7986C58.6952 47.8828 58.6289 48.0449 58.7127 48.2448C58.7302 48.2862 58.7215 48.3516 58.7002 48.3943C58.6201 48.5577 58.5401 48.7249 58.4387 48.8757C58.3612 48.9901 58.251 49.068 58.241 49.2364C58.2335 49.3747 58.1447 49.5079 58.0909 49.6462C57.8532 49.7806 57.6105 49.9176 57.3565 50.0622C57.414 50.1087 57.4528 50.1413 57.5366 50.2105C57.4003 50.2205 57.3164 50.2256 57.2151 50.2331C57.2376 50.306 57.2576 50.3701 57.2739 50.4241C57.125 50.5649 56.9836 50.7007 56.841 50.8326C56.811 50.8603 56.7772 50.8917 56.7397 50.903C56.6646 50.9231 56.5858 50.9307 56.5094 50.9432C56.4994 50.8741 56.4907 50.8037 56.4807 50.7358C56.3372 50.8506 56.3439 51.032 56.5007 51.2801C56.4982 51.2901 56.5007 51.3052 56.4932 51.309C56.3793 51.3743 56.2317 51.4133 56.1604 51.5088C56.0866 51.6094 56.0866 51.7652 56.0478 51.9236C56.0828 51.9487 56.1479 51.9952 56.2229 52.048C56.333 51.8318 56.5107 51.8042 56.6984 51.8834C56.8986 51.9688 57.0412 51.8796 57.2214 51.8092C57.6167 51.6533 57.9971 51.3969 58.4462 51.4497C58.7478 51.4849 59.0493 51.4233 59.3433 51.4686C59.6161 51.5101 59.8725 51.6647 60.1453 51.6999C60.3455 51.7262 60.4331 51.8293 60.5319 51.9676C60.4806 52.0844 60.4318 52.1951 60.378 52.317C60.4906 52.317 60.6045 52.2843 60.6683 52.327C60.7296 52.3685 60.7684 52.4879 60.7671 52.5734C60.7634 52.8247 60.8322 53.095 60.5844 53.2935C60.4293 53.418 60.5744 53.5964 60.5682 53.7787C60.4431 53.7297 60.3455 53.692 60.2604 53.6593C59.9651 53.8151 60.3079 54.0213 60.1741 54.1746C60.2591 54.2261 60.3317 54.2714 60.4043 54.3154C60.4043 54.3367 60.4018 54.3594 60.4005 54.3807C60.2792 54.4021 60.1566 54.4247 59.9914 54.4549C60.094 54.5655 60.1816 54.6597 60.2829 54.7691C60.2616 54.8169 60.2329 54.8772 60.1916 54.9677C60.1078 54.8885 60.0465 54.8319 59.9701 54.7603C59.9013 54.9438 59.8375 55.116 59.7662 55.3058C59.6836 55.2278 59.5935 55.1424 59.4797 55.0343C59.4209 55.1763 59.7287 55.2693 59.4559 55.3837C59.4171 55.302 59.3746 55.2103 59.332 55.1198C59.3008 55.1424 59.2695 55.1637 59.2382 55.1864C59.2132 55.2932 59.2207 55.4327 59.1556 55.4993C58.9492 55.7067 58.7227 55.9003 58.4825 56.0674C58.4337 56.1014 58.2911 55.997 58.1522 55.9405C58.1334 56.0473 58.1147 56.1529 58.0947 56.2648C57.9545 56.3226 57.8056 56.3842 57.6392 56.452C57.5629 56.4219 57.4628 56.3829 57.3577 56.3427C57.2964 56.6255 57.3527 56.7185 57.5817 56.7059C57.8682 56.6908 58.1547 56.628 58.4412 56.628C58.6739 56.628 58.9092 56.6833 59.1406 56.7273C59.2507 56.7486 59.3546 56.7989 59.4609 56.8366C59.4897 56.8467 59.5372 56.8492 59.546 56.8693C59.7011 57.2237 60.109 57.3331 60.2979 57.6536C60.3129 57.6787 60.3405 57.7001 60.348 57.7277C60.3943 57.8911 60.4381 58.0545 60.4869 58.2355C60.4543 58.3034 60.4068 58.3989 60.3617 58.4957C60.3142 58.5987 60.2879 58.7181 60.2191 58.8049C59.9902 59.0914 59.7599 59.3792 59.5035 59.6407C59.1932 59.9574 58.8616 60.2553 58.5238 60.5431C58.44 60.6135 58.2936 60.6097 58.1547 60.6449C58.1259 60.7052 58.0997 60.8322 58.0233 60.9126C57.6668 61.2934 57.344 61.7107 56.9148 62.0174C56.8523 62.0626 56.7734 62.1079 56.7021 62.1104C56.5282 62.1154 56.3806 62.1493 56.263 62.2939C56.2254 62.3391 56.1354 62.3404 56.0678 62.3618C56.0465 62.4472 56.0328 62.5541 55.989 62.6471C55.9727 62.681 55.8864 62.681 55.8 62.7061C55.8188 62.6081 55.8313 62.544 55.8526 62.4372C55.715 62.5616 55.5611 62.6408 55.5048 62.764C55.3684 63.0631 55.1032 63.1297 54.8392 63.2164C54.8016 63.229 54.7453 63.2353 54.7316 63.2617C54.629 63.4653 54.4225 63.4778 54.2436 63.557C53.9884 63.6689 53.7544 63.826 53.5167 63.9617C53.3165 63.8536 53.3044 63.6626 53.4804 63.3886C53.2039 63.5834 52.7873 63.5545 52.6096 63.9504C52.8674 64.1088 52.9537 63.875 53.0838 63.7644C53.2227 63.9668 53.2127 63.9768 52.6221 64.2797C52.5608 64.2269 52.4933 64.1679 52.447 64.1276C52.208 64.1653 51.9966 64.198 51.7676 64.2332C51.7563 64.3149 51.7463 64.3928 51.7363 64.4682C51.7138 64.4796 51.6963 64.4946 51.6775 64.4959C51.5787 64.506 51.4786 64.5085 51.3797 64.5223C51.2671 64.5374 51.1533 64.5927 51.0457 64.5776C50.833 64.5487 50.6653 64.6128 50.4952 64.7297C50.3963 64.7975 50.2737 64.8302 50.1574 64.8818C50.1636 65.1394 49.9797 65.3845 49.6882 65.3895C49.3679 65.3958 49.0876 65.5353 48.7849 65.5806C48.5134 65.6208 48.2356 65.6334 47.9616 65.6371C47.8603 65.6384 47.7589 65.5806 47.6313 65.5429C47.5299 65.7465 47.3298 65.8168 47.0808 65.7892C47.032 65.7842 46.9669 65.7917 46.9319 65.8206C46.7117 65.9966 46.4402 65.9664 46.19 66.0154C45.986 66.0557 45.7833 66.0519 45.5907 65.9212C45.5131 65.8684 45.3692 65.8621 45.2766 65.896C44.7824 66.0733 44.2945 66.1298 43.8028 65.8923C43.7502 65.8671 43.6839 65.8634 43.6226 65.8608C43.3211 65.8508 43.0183 65.8244 42.7193 65.8445C42.5829 65.8546 42.454 65.9589 42.3865 65.9903C42.3665 66.209 42.3915 66.3824 42.3314 66.5207C42.1463 66.948 42.1225 67.4043 42.0424 67.8504C41.9636 68.2929 42.2301 68.5153 41.8097 69.1727C40.8088 70.5313 39.8329 69.2707 39.4 69.2041C39.3962 69.1676 39.3787 69.1224 39.3912 69.0897C39.5601 68.6536 39.4187 68.2011 39.4675 67.7587C39.4976 67.4897 39.4938 67.2157 39.5313 66.948C39.5451 66.845 39.6252 66.7482 39.6877 66.6577C39.7265 66.6024 39.7891 66.5647 39.8642 66.4981C39.7778 66.4264 39.7103 66.3711 39.649 66.3209C39.649 66.0305 39.6427 65.7452 39.6515 65.4599C39.6565 65.3141 39.6377 65.1947 39.4988 65.1118C39.4338 65.0728 39.39 64.9986 39.3174 64.9207C39.4325 64.8528 39.5176 64.8026 39.6139 64.7473C39.6064 64.692 39.6164 64.6279 39.5889 64.5952C39.4363 64.4167 39.5338 64.2307 39.5927 64.0698C39.679 63.8323 39.8166 63.6136 39.9492 63.3522H40.0944C39.8804 63.2705 39.8829 63.1398 39.9342 62.9449C39.9843 62.7514 39.9567 62.539 39.9818 62.3379C39.9918 62.2524 40.0518 62.1745 40.1006 62.0664C40.0356 62.0274 39.9617 61.9445 39.8842 61.9407C39.6352 61.9319 39.3724 61.9043 39.1385 61.9709C38.6731 62.1054 38.2001 62.1066 37.7272 62.1443C37.3243 62.177 36.9227 62.2222 36.5211 62.2612C36.3359 62.2788 36.1495 62.3052 35.9631 62.3115C35.4013 62.3278 34.8483 62.4045 34.2953 62.5113C33.8374 62.6006 33.3719 62.642 32.9103 62.7099C32.6125 62.7526 32.3172 62.8054 32.0194 62.8507C31.8768 62.872 31.7317 62.8808 31.5878 62.9022C31.2287 62.9563 30.8696 63.0178 30.5106 63.0694C30.1615 63.1196 29.8124 63.1636 29.4621 63.2051C29.2657 63.229 29.103 63.2579 28.9679 63.4552C28.7852 63.7229 28.4399 63.7644 28.1546 63.88C27.9932 63.9454 27.8156 63.968 27.6529 64.0309C27.5866 64.056 27.5241 64.1289 27.4903 64.1955C27.3714 64.4243 27.2838 64.6719 27.15 64.8918C26.7996 65.4687 26.4706 66.0531 26.2003 66.6765C25.9401 67.2761 25.7349 67.8894 25.5347 68.5078C25.4584 68.7416 25.7537 68.8157 25.302 69.2204C23.8081 70.5049 23.5479 69.2204 22.6759 69.2204C22.6934 69.1463 22.7284 69.0834 22.7184 69.0281C22.6533 68.6649 22.7146 68.5291 23.0349 68.357C23.0825 68.2262 23.1275 68.1006 23.1826 67.9447C23.1588 67.9007 23.1188 67.8291 23.0762 67.7499C23.2676 67.5765 23.6492 67.5463 23.5592 67.1265C23.4441 67.1604 23.3402 67.1919 23.2051 67.2308C23.2051 66.8651 23.2063 66.5798 23.5404 66.3799C23.668 66.3033 23.7055 66.0582 23.7593 65.881C23.7919 65.7741 23.8219 65.7113 23.9245 65.6359C24.0546 65.5391 24.1172 65.3443 24.1972 65.1859C24.2398 65.1004 24.2536 65.0012 24.2898 64.9119C24.3662 64.7246 24.45 64.5411 24.5251 64.369C24.47 64.3262 24.4525 64.3011 24.4387 64.3023C23.9808 64.3576 23.5341 64.2797 23.0812 64.2269C22.856 64.2005 22.6421 64.1804 22.4244 64.1063C22.263 64.051 22.0803 64.056 21.9076 64.0309C21.5924 63.9844 21.2771 63.9328 20.963 63.8851C20.7266 63.8499 20.5126 63.7443 20.2912 63.6689C19.887 63.5331 19.5292 63.239 19.0713 63.2717C19.03 63.2742 18.9812 63.2755 18.9487 63.2566C18.6934 63.1108 18.4432 62.9562 18.1867 62.813C18.0804 62.7526 17.9665 62.6936 17.8489 62.6672C17.3347 62.5528 16.9606 62.2147 16.6153 61.8565C16.2575 61.4857 15.9209 61.0873 15.6169 60.6713C15.4167 60.3973 15.259 60.0818 15.1377 59.7638C14.9337 59.2297 14.7586 58.6842 14.6047 58.1337C14.5359 57.8874 14.5509 57.6184 14.5234 57.3607C14.5021 57.1596 14.4746 56.9585 14.4408 56.6908C14.6285 56.3351 14.8574 56.1717 15.0689 56.2999C15.0926 56.1139 15.0288 56.0184 14.8737 55.8915C14.4983 55.5848 14.0692 55.4465 13.6213 55.3183C13.4761 55.2769 13.3473 55.1738 13.2159 55.0909C13.1121 55.0255 13.0157 54.9463 12.8844 54.9099C12.8368 54.8194 12.7905 54.7289 12.7455 54.6422C12.3914 54.6648 12.3901 54.6635 12.3689 54.4109C12.0498 54.4411 11.5431 54.0979 11.4343 53.7875C11.3379 53.7611 11.2491 53.736 11.129 53.7033C11.2291 53.5386 11.3042 53.418 11.3905 53.2747C11.2241 53.1754 11.1102 53.012 10.8775 53.1767C10.7586 53.2609 10.626 53.1427 10.6223 53.002C10.616 52.7757 10.5034 52.7229 10.307 52.7104C10.2294 52.7053 10.1318 52.6387 10.0855 52.5721C9.94165 52.361 9.82654 52.1297 9.68141 51.9198C9.60008 51.8017 9.49374 51.6923 9.37863 51.6081C9.17469 51.4585 9.04457 51.2687 8.98077 51.0274C8.93447 50.8502 8.81686 50.7333 8.69801 50.5963C8.36895 50.2193 8.01988 49.8447 7.95858 49.3018C7.94231 49.1585 7.86474 48.9788 7.75589 48.8971C7.48314 48.6922 7.4406 48.378 7.32549 48.1052C7.10154 47.5711 6.91011 47.0218 6.72119 46.4726C6.55604 45.9912 6.39339 45.5086 6.27077 45.0159C6.19696 44.7193 6.22198 44.3988 6.16943 44.0959C6.14316 43.9388 6.04557 43.7955 5.98176 43.6447C5.88542 43.4159 5.79033 43.1859 5.69274 42.9584C5.67273 42.9107 5.64895 42.8591 5.61267 42.8252C5.4275 42.6568 5.34117 42.4569 5.30489 42.2018C5.28362 42.051 5.11221 41.9253 5.02588 41.7795C4.97709 41.6965 4.96082 41.5922 4.92954 41.4992C4.91328 41.4515 4.90952 41.3899 4.87824 41.3572C4.75939 41.234 4.72811 41.0669 4.64678 40.9311C4.48914 40.6659 4.43909 40.3969 4.46286 40.1644C4.32774 39.9659 4.19261 39.8238 4.1213 39.6554C3.85731 39.0383 3.58956 38.4212 3.43942 37.7613C3.40564 37.613 3.34934 37.466 3.27802 37.3315C3.18043 37.1517 3.11037 36.977 3.15666 36.7659C3.16792 36.7169 3.11663 36.6553 3.0916 36.5899C3.14165 36.5535 3.1992 36.5107 3.2505 36.4743C3.15916 36.2946 3.08034 36.1136 2.97775 35.9464C2.90393 35.8258 2.87641 35.7139 2.8714 35.5694C2.86514 35.3683 2.81009 35.1621 2.74003 34.9711C2.61366 34.6255 2.46227 34.2886 2.31714 33.9505C2.28086 33.8651 2.23457 33.7821 2.18077 33.7054C2.02312 33.4792 1.85296 33.258 2.05315 32.9539C1.84296 32.8734 1.70032 32.7729 1.6778 32.5567C1.67155 32.4964 1.59398 32.4448 1.55269 32.3857C1.50014 32.3103 1.41631 32.2337 1.41006 32.1532C1.38378 31.7887 1.21238 31.4808 1.04347 31.1578C1.15983 30.9994 1.34625 30.8725 1.18985 30.6236C1.05974 30.4175 0.812008 30.5256 0.653112 30.3522C0.646856 30.2441 0.641851 30.1096 0.62934 29.9751C0.609321 29.7564 0.631842 29.5377 0.454179 29.3479C0.329064 29.2147 0.380361 29.035 0.546764 28.8779C0.307794 28.8414 0.262753 28.6906 0.260251 28.497C0.257748 28.2871 0.147647 28.0307 0.232725 27.8787C0.376607 27.6198 0.269009 27.4451 0.200195 27.2829C0.245237 27.0441 0.276515 26.843 0.321557 26.6444C0.349082 26.5238 0.380361 26.3993 0.437914 26.29C0.53175 26.1115 0.689395 25.9582 0.588052 25.7257C0.574289 25.693 0.60807 25.6188 0.641851 25.5874C0.801998 25.4328 0.882072 25.2506 0.819515 25.0181C1.01845 24.9703 1.18485 24.9288 1.31497 24.8974C1.45009 24.4261 1.5702 23.9912 1.70283 23.5601C1.7291 23.4759 1.80417 23.4055 1.86047 23.3326C1.93304 23.2384 1.99935 23.1353 2.08818 23.0599C2.15699 23.0021 2.25458 22.9794 2.36844 22.9279C2.36594 22.5974 2.55236 22.3121 2.78757 22.0469C2.86139 21.9639 2.89267 21.8445 2.96649 21.7616C3.17918 21.5202 3.37311 21.2437 3.63335 21.069C3.801 20.9572 3.97366 20.8805 4.08627 20.6995C4.12756 20.6342 4.23515 20.6115 4.33149 20.56C4.32649 20.5374 4.29146 20.4745 4.31022 20.4456C4.59048 19.9994 4.80192 19.498 5.33992 19.2692C5.46003 19.2177 5.53635 19.0618 5.63519 18.9563C5.72778 18.8544 5.82286 18.7552 5.92671 18.642C5.97675 18.7765 6.01054 18.8658 6.04432 18.955C6.06559 18.955 6.0856 18.9575 6.10687 18.9588C6.0831 18.3504 6.53977 18.172 6.9564 17.9583C7.0002 17.9357 7.03523 17.893 7.07026 17.8565C7.09028 17.8351 7.09904 17.8012 7.12156 17.7849C7.56446 17.4455 7.79843 16.944 8.10496 16.4991C8.15 16.4325 8.22632 16.3885 8.29388 16.3282C8.3627 16.3583 8.424 16.3847 8.43652 16.3898C8.51784 16.2427 8.56789 16.0944 8.66548 15.9901C8.86941 15.7726 9.08962 15.5766 9.37988 15.4622C9.49874 15.4157 9.60134 15.2762 9.6664 15.1543C9.7765 14.9469 9.91287 14.7759 10.0968 14.6327C10.3758 14.4152 10.6536 14.1965 10.86 13.8987C10.9626 13.7504 11.119 13.6398 11.2416 13.504C11.4205 13.3042 11.5957 13.1018 11.7596 12.8907C11.8246 12.8052 11.8597 12.7047 11.9973 12.7449C12.0148 12.7499 12.0498 12.7021 12.0724 12.6745C12.2513 12.447 12.4202 12.2094 12.7367 12.1516C12.7367 11.904 12.8518 11.7658 13.0508 11.6464C13.2397 11.532 13.4249 11.3686 13.5387 11.1813C13.7076 10.9036 14.0154 10.8709 14.2406 10.6786C14.1393 10.4838 14.3057 10.3556 14.3957 10.2098C14.4708 10.0891 14.5847 9.99361 14.6622 9.87296C14.8887 9.52104 15.2065 9.26338 15.528 9.00824C15.6682 8.89638 15.8383 8.82474 15.8884 8.60479C15.9084 8.51555 16.0986 8.46528 16.2499 8.37227C16.33 8.07188 16.5052 7.81171 16.9506 7.8557C16.9618 7.30269 17.4673 7.20465 17.7889 6.93694C17.9515 6.8012 18.1479 6.69688 18.3444 6.61393C18.457 6.56617 18.5996 6.58879 18.781 6.57497C18.8861 6.44551 18.8586 6.15895 19.0863 6.06845C19.2827 5.99053 19.4942 5.95534 19.7444 5.88872C19.8082 5.73413 19.8733 5.49658 20.1685 5.50915C20.2624 5.26407 20.5189 5.2339 20.7015 5.11199C20.8679 5.00138 21.0519 4.87444 21.2095 4.97373C21.4072 4.82794 21.6061 4.7387 21.7225 4.58536C22.0365 4.17437 22.562 4.12536 22.9373 3.81994C23.1488 3.64775 23.409 3.52961 23.6605 3.41649C23.902 3.3084 24.0008 3.38381 24.1122 3.62136C24.2711 3.95945 24.4537 4.28749 24.6339 4.61553C24.784 4.88701 24.9442 5.15346 25.0993 5.42243C25.1356 5.48527 25.1982 5.55189 25.1957 5.61473C25.1919 5.69642 25.1556 5.79949 25.0968 5.84976C25.0568 5.8837 24.9417 5.86107 24.8804 5.82714C24.8141 5.78943 24.7703 5.70899 24.6927 5.6185C24.2573 5.90004 23.8169 6.18408 23.3777 6.46939C22.9361 6.75721 22.4944 7.04629 22.054 7.33788C21.4672 7.7275 20.8792 8.11336 20.2999 8.51304C19.857 8.81845 19.4041 9.11633 18.9987 9.46825C18.6647 9.75733 18.2818 9.9911 18.0191 10.377C17.8339 10.6472 17.5111 10.8181 17.2997 11.0758C17.0569 11.3711 16.7329 11.6049 16.5365 11.9116C16.3388 12.2195 16.1261 12.501 15.8821 12.7662C15.8746 12.7738 15.8696 12.7851 15.8621 12.7901C15.4192 13.0076 15.2278 13.455 14.9312 13.8082C14.7849 13.9816 14.5984 14.1211 14.3682 14.3335C14.3595 14.5246 14.1217 14.6616 13.9516 14.8463C13.8265 14.9821 13.7051 15.1216 13.5775 15.2561C13.4286 15.4132 13.2785 15.569 13.1233 15.7211C12.8668 15.9712 12.5728 16.1786 12.3889 16.5041C12.2988 16.6625 12.1362 16.7769 12.0085 16.9139C11.7471 17.1941 11.5093 17.4996 11.2203 17.7472C11.0051 17.9319 10.7924 18.1054 10.611 18.3278C10.4984 18.4661 10.2982 18.5289 10.1644 18.6546C10.0492 18.764 9.97168 18.9148 9.87784 19.048C9.83655 19.1071 9.80402 19.1749 9.75398 19.2252C9.21598 19.7581 8.68049 20.2948 8.13249 20.8164C7.73587 21.1935 7.31298 21.5429 6.91762 21.9199C6.70367 22.1235 6.52226 22.3611 6.32583 22.5823C6.22949 22.6904 6.13065 22.7947 6.03055 22.899C5.98051 22.9505 5.9142 22.9908 5.87541 23.0498C5.60016 23.4721 5.33366 23.9007 5.05591 24.3218C4.92829 24.5153 4.71309 24.6511 4.69057 24.9175C4.68682 24.9665 4.56045 25.0017 4.49539 25.0495C4.38029 25.135 4.27144 25.2028 4.31523 25.4014C4.34025 25.5145 4.23766 25.6679 4.16509 25.7873C3.93112 26.1756 3.65087 26.5401 3.45319 26.9461C3.32557 27.2075 3.28803 27.5217 3.2505 27.8183C3.1967 28.2381 3.15291 28.6617 3.15416 29.084C3.15416 29.3907 3.22297 29.6986 3.27802 30.0028C3.32181 30.2428 3.38938 30.4791 3.45068 30.7167C3.49322 30.8851 3.53826 31.0522 3.58706 31.2194C3.64086 31.4042 3.69341 31.5914 3.76097 31.7724C3.80601 31.8918 3.8498 32.0313 3.93988 32.108C4.05999 32.2085 4.10253 32.3141 4.10003 32.4574C4.10003 32.5303 4.09878 32.6044 4.11129 32.6761C4.14132 32.847 4.18761 33.0079 4.36778 33.0054C4.49414 33.2379 4.59674 33.4503 4.71935 33.6489C4.96207 34.0398 5.13098 34.452 5.16226 34.9158C5.39372 35.1307 5.22732 35.499 5.48505 35.724C5.58139 35.8082 5.56388 36.0269 5.59641 36.1852C5.60141 36.2129 5.58014 36.2556 5.5939 36.2707C5.81536 36.5095 5.69525 36.8212 5.77157 37.0788C5.85664 37.3679 5.90419 37.6256 5.80285 37.9084C5.79409 37.9323 5.8116 37.9712 5.82787 37.9964C6.05808 38.3546 6.29455 38.709 6.51975 39.0697C6.60733 39.2092 6.67114 39.3638 6.75247 39.5084C6.96641 39.8816 7.10654 40.2876 7.34301 40.6546C7.59824 41.0493 7.86599 41.4728 7.81344 41.8976C7.96358 42.105 8.07994 42.2382 8.16376 42.3891C8.33517 42.6957 8.52284 42.9898 8.59166 43.3493C8.6367 43.5843 8.78058 43.7993 8.89319 44.0519C8.8056 44.0582 8.71302 44.0632 8.54912 44.0745C8.63795 44.1625 8.68549 44.2329 8.75181 44.2693C9.00329 44.4063 9.00454 44.4025 8.94824 44.6828C8.93948 44.7293 8.94698 44.7846 8.96325 44.8299C9.11214 45.2597 9.26853 45.6871 9.41116 46.1194C9.45245 46.2438 9.45245 46.3821 9.48123 46.5794C9.5588 46.7893 9.66014 47.0658 9.77024 47.365C9.8353 47.3838 9.92163 47.4102 10.013 47.4366C10.0267 47.4844 10.0417 47.5221 10.0492 47.5623C10.1143 47.8966 10.1819 48.2108 10.4071 48.5062C10.6135 48.7764 10.6973 49.1447 10.8225 49.4752C10.8988 49.6751 10.91 49.9076 11.1828 49.9654C11.2391 49.978 11.2766 50.071 11.3242 50.125C11.6182 50.4568 11.9172 50.7849 12.205 51.123C12.2538 51.1808 12.26 51.2763 12.2901 51.3693C12.459 51.4171 12.6416 51.4598 12.7067 51.681C12.723 51.7363 12.8431 51.7589 12.9369 51.8092C12.9019 51.9273 12.9119 52.0367 13.0658 52.1033C13.5525 52.3119 13.9891 52.5985 14.3545 52.9881C14.4032 53.0397 14.4708 53.0849 14.5371 53.1063C14.895 53.2169 15.1702 53.4569 15.4517 53.6869C15.4755 53.7058 15.4892 53.746 15.5143 53.7548C15.9897 53.9107 16.3025 54.3204 16.7416 54.5378C17.1745 54.7528 17.5824 55.0192 18.0141 55.2379C18.2593 55.3623 18.5458 55.4113 18.7835 55.5458C19.0813 55.7142 19.4166 55.7344 19.7244 55.8588C20.0409 55.987 20.3712 56.0888 20.7053 56.1604C21.0869 56.2421 21.4772 56.2786 21.8651 56.3301C22.0803 56.359 22.2955 56.3829 22.5107 56.4043C22.6145 56.4143 22.7196 56.4231 22.8222 56.4131C23.2764 56.3678 23.7356 56.3427 24.1835 56.2572C24.5776 56.1818 24.9567 56.0335 25.3433 55.9204C25.7262 55.8085 26.1115 55.7067 26.4919 55.5886C26.9072 55.4604 27.3114 55.2794 27.7343 55.1939C28.0595 55.1273 28.2647 54.8998 28.5337 54.7641C28.8177 54.622 29.1118 54.5001 29.402 54.3682C29.4496 54.3468 29.5009 54.3317 29.5447 54.3041C29.8937 54.0829 30.2391 53.8554 30.5894 53.6367C30.712 53.56 30.8459 53.5034 30.9735 53.4343C31.5803 53.1038 32.1483 52.7104 32.7814 52.42C33.1655 52.2428 33.5571 52.0543 33.9149 51.7966C34.1527 51.6244 34.3553 51.412 34.6043 51.2499C35.0935 50.9332 35.5514 50.5662 36.0131 50.2092C36.2496 50.027 36.461 49.8133 36.6925 49.6235C36.8038 49.533 36.9402 49.474 37.0541 49.3872C37.3481 49.1635 37.6334 48.9285 37.9299 48.7085C38.03 48.6344 38.1538 48.5942 38.3127 48.515C38.3277 48.3993 38.4116 48.29 38.5792 48.2033C38.7369 48.1216 38.8395 47.9393 38.9796 47.8174C39.4263 47.4291 39.9117 47.0822 40.3196 46.6573C40.78 46.1772 41.308 45.7826 41.7859 45.3263C41.9473 45.173 42.1725 45.08 42.3089 44.9103C42.6154 44.5295 43.0196 44.2643 43.3824 43.9551C43.5988 43.7716 43.749 43.4863 44.0655 43.4272C44.0905 43.4222 44.1143 43.3883 44.1293 43.3619C44.3958 42.9094 44.8074 42.6166 45.2316 42.335C45.3892 42.2307 45.4831 42.0811 45.5907 41.9253C45.7396 41.7091 45.9635 41.5357 46.1825 41.3811C46.5103 41.1498 46.6992 40.764 47.0958 40.6081C47.2034 40.5666 47.2547 40.3957 47.3523 40.3065C47.585 40.0903 47.8252 39.8816 48.0717 39.6818C48.1167 39.6454 48.2043 39.6516 48.2719 39.6554C48.4158 39.6617 48.5196 39.5536 48.4996 39.4581C48.4308 39.1313 48.701 39.0232 48.8562 38.851C49.0789 38.6059 49.3266 38.3822 49.5718 38.1585C49.8521 37.9034 50.1398 37.6545 50.4289 37.4081C50.4977 37.3503 50.5865 37.3177 50.6065 37.3051C50.6716 37.1555 50.6879 37.0286 50.7604 36.9645C51.0144 36.7395 51.2872 36.5359 51.5549 36.3247C51.5949 36.2933 51.6662 36.2782 51.68 36.2393C51.8577 35.7642 52.3056 35.4977 52.5546 35.0792C52.6534 34.912 52.7372 34.7361 52.8436 34.5739C52.9274 34.4457 53.025 34.3226 53.1351 34.217C53.3065 34.0523 53.5104 33.9191 53.6656 33.7419C53.7369 33.6602 53.7294 33.5081 53.7219 33.3812C53.822 33.2002 53.9271 33.0217 54.0209 32.837C54.106 32.6711 54.1673 32.5039 54.345 32.392C54.4551 32.3229 54.5026 32.1608 54.5914 32.0527C54.7078 31.9094 54.8392 31.7774 54.963 31.6404C55.0694 31.5236 55.1532 31.4079 55.222 31.2508C55.3521 30.9555 55.486 30.6525 55.6499 30.3698C55.7075 30.2705 55.8376 30.2139 55.8901 30.1159C55.9777 29.9361 56.0766 29.7614 56.1516 29.5767C56.2855 29.2524 56.5658 29.0061 56.6208 28.6391C56.6371 28.5335 56.7221 28.4367 56.7809 28.3399C56.8773 28.1828 56.9974 28.037 57.075 27.8724C57.2564 27.4865 57.4328 27.0969 57.5854 26.6997C57.7068 26.383 57.7994 26.055 57.8907 25.7269C58.0008 25.3273 58.1034 24.9238 58.196 24.5204C58.2448 24.3079 58.2373 24.0792 58.3074 23.8756C58.4888 23.3452 58.49 22.7871 58.5788 22.2442C58.6352 21.9011 58.6151 21.5542 58.7778 21.2173C58.8729 21.02 58.8191 20.7485 58.8266 20.5097C58.8353 20.2206 58.8016 19.9265 58.8491 19.6438C58.978 18.867 58.9016 18.089 58.8954 17.3135C58.8904 16.7467 58.7753 16.1799 58.7115 15.613C58.6902 15.4283 58.6689 15.2422 58.6577 15.0575C58.6327 14.6628 58.6139 14.2682 58.5926 13.8735C58.5764 13.5744 58.5876 13.2828 58.4975 12.9799C58.4112 12.6933 58.4738 12.3628 58.4512 12.0536C58.44 11.8927 58.3862 11.7344 58.3486 11.576C58.3274 11.4855 58.2761 11.395 58.2811 11.307C58.3111 10.7854 58.1372 10.3028 58.0246 9.80634C57.8945 9.2307 57.6392 8.68271 57.6342 8.07565C57.6342 7.94117 57.5304 7.8092 57.4828 7.67472C57.3089 7.1858 57.1663 6.68431 56.9611 6.21048C56.6896 5.58456 56.328 5.00641 55.7938 4.56651C55.5899 4.39809 55.3496 4.26989 55.1182 4.13792C54.893 4.00972 54.6602 3.89284 54.425 3.78475C54.2774 3.71688 54.1173 3.67289 53.9634 3.61759C53.7219 3.53212 53.4842 3.43031 53.2364 3.3637C52.9099 3.27698 52.6084 3.08845 52.2555 3.09976C52.2455 3.09976 52.2355 3.09473 52.2268 3.08971C51.7351 2.80314 51.1658 2.86222 50.6391 2.73025C50.1774 2.61461 49.7145 2.50653 49.2503 2.40221C49.1014 2.36953 48.9475 2.3557 48.7961 2.34062C48.1981 2.28155 47.6 2.21619 47.0007 2.17346C46.3601 2.12696 45.717 2.09176 45.0739 2.07668C44.8287 2.07165 44.5822 2.15461 44.3345 2.16717C43.764 2.19608 43.1922 2.19608 42.6217 2.2275C42.3014 2.2451 41.9836 2.30417 41.6658 2.34313C41.5632 2.3557 41.4581 2.35696 41.3568 2.37833C40.8801 2.48265 40.3971 2.49521 39.9129 2.50527C39.6465 2.51155 39.3775 2.5656 39.1135 2.54423C38.4904 2.49396 37.8786 2.57817 37.263 2.63221C36.725 2.67997 36.1845 2.70637 35.644 2.73025C34.9184 2.76167 34.1902 2.77172 33.4645 2.80817C32.854 2.83959 32.2409 2.8685 31.6353 2.94642C31.0448 3.02184 30.4618 3.16009 29.875 3.26818C29.4483 3.34736 29.0179 3.40895 28.5938 3.50447C28.2535 3.58114 27.9244 3.70934 27.5841 3.79103C27.1712 3.89032 26.8147 4.06377 26.5494 4.4094C26.5106 4.45968 26.4243 4.4735 26.358 4.4999C26.2341 4.55017 26.1103 4.59793 25.9614 4.65701C25.9151 4.62056 25.8538 4.57154 25.7862 4.51749C25.7637 4.53383 25.7374 4.54892 25.7161 4.56903C25.4722 4.80154 25.3746 4.77138 25.1644 4.49613C25.003 4.28372 25.0005 4.06 25.003 3.79732C24.9655 3.78726 24.9204 3.77721 24.8754 3.76087C24.7415 3.71311 24.7728 3.55474 24.8228 3.54217C25.0293 3.48562 25.0593 3.33982 25.018 3.18523C24.9855 3.06206 24.8879 2.95648 24.8078 2.82451C24.9104 2.77046 24.993 2.69254 25.0243 2.52663C25.0555 2.36324 25.1857 2.41352 25.2482 2.55429C25.5135 1.98493 25.4572 1.74613 26.1791 1.87056C26.1966 1.9334 26.2166 2.00253 26.2479 2.11439C26.348 1.7876 26.6157 1.85924 26.8297 1.80143C27.1787 1.70591 27.2513 1.71722 27.4552 1.98619C27.7968 1.78509 28.1446 1.58148 28.5025 1.37158C28.55 1.42312 28.5913 1.46711 28.6338 1.51361C28.8265 1.45831 28.864 1.14786 29.1155 1.20694C29.1931 1.36404 29.2682 1.51612 29.3582 1.69585C29.5146 1.54377 29.651 1.37661 29.8224 1.25847C29.9225 1.18934 30.0739 1.10639 30.229 1.2459C30.1427 1.3188 30.0701 1.38038 29.9963 1.44323C29.9988 1.46459 30.0013 1.48596 30.0038 1.50858C30.2278 1.52743 30.4517 1.54629 30.6782 1.56514C30.6857 1.15541 30.8121 1.05737 31.2012 1.12524C31.3163 1.14535 31.4239 1.15289 31.5102 1.03852C31.5565 0.976932 31.6378 0.942997 31.7454 0.867586C31.7217 0.984473 31.6779 1.06491 31.7016 1.11016C31.7379 1.17803 31.8205 1.22202 31.858 1.25344C32.062 1.18683 32.2609 1.15666 32.4236 1.0624C32.6788 0.914089 32.9265 0.824853 33.2356 0.96185C33.2481 1.00458 33.2681 1.0712 33.2931 1.15541C33.4207 1.16923 33.5521 1.18306 33.6947 1.19814C33.681 1.11267 33.6685 1.03852 33.6559 0.958079C33.9575 0.882668 34.2202 0.89398 34.4279 1.14786C34.6293 0.924144 34.8408 0.826109 35.126 0.930428C35.2487 0.974418 35.395 0.945511 35.5264 0.969391C35.654 0.992014 35.7766 1.03852 35.933 1.08376C35.9718 1.04732 36.0394 0.984473 36.1332 0.896493C36.2208 0.954309 36.3084 1.01212 36.4235 1.08628C36.4097 0.984473 36.3985 0.904034 36.3772 0.743157C36.6087 1.02092 36.8464 0.930428 37.0753 0.896493C37.1504 0.981959 37.2205 1.06114 37.3368 1.19562V0.852503C37.4544 0.915346 37.5408 0.946768 37.6083 1.00207C37.9136 1.2459 38.1588 1.173 38.2702 0.800972C38.3265 0.612444 38.4391 0.553372 38.6193 0.637581C38.7857 0.715506 38.9433 0.812284 39.1385 0.920374C39.1485 0.828623 39.1585 0.736873 39.1698 0.63381C39.4212 0.710479 39.6515 0.361073 39.9692 0.588564C39.8454 0.744414 39.7415 0.87764 39.5876 1.07245C39.7428 1.00081 39.8616 0.973161 39.9442 0.901521C40.0581 0.803486 40.1494 0.676544 40.242 0.554629C40.3659 0.391237 40.5298 0.361073 40.7149 0.392494C40.9251 0.428943 40.9014 0.613701 40.9527 0.767037C40.8851 0.839935 40.8188 0.912832 40.7425 0.995785C40.8868 1.01422 41.0019 0.935875 41.0878 0.760753C41.1566 0.622499 41.2654 0.4943 41.1591 0.305771C41.2404 0.29823 41.3067 0.293203 41.4018 0.284405C41.3943 0.388724 41.3881 0.470419 41.3793 0.582279C41.7146 0.491786 42.0249 0.407576 42.3152 0.328395C42.4603 0.442768 42.5779 0.534519 42.6955 0.626269L42.7443 0.593591C42.7305 0.519437 42.7168 0.445282 42.6968 0.330908C43.1772 0.31834 43.6601 0.202709 44.0155 0.529491C44.4083 0.407576 44.7511 0.300744 45.0727 0.200195C45.3279 0.417631 45.5732 0.626269 45.8697 0.878897C45.961 0.672773 46.0286 0.52195 46.1161 0.324624C46.1762 0.388724 46.2237 0.441512 46.2738 0.490529C46.3263 0.54206 46.3814 0.589821 46.4552 0.657691C46.5541 0.496813 46.5603 0.276864 46.7655 0.32211C46.8944 0.351018 47.0032 0.459108 47.1283 0.515666C47.2184 0.557142 47.3185 0.588564 47.4161 0.593591C47.5387 0.601132 47.6626 0.569711 47.7852 0.569711C47.9203 0.569711 48.0567 0.511895 48.1843 0.657691C48.2406 0.72179 48.442 0.645122 48.5196 0.706708C48.6184 0.784633 48.7023 0.790917 48.8024 0.767037C48.9275 0.738129 49.0501 0.692883 49.2177 0.640095C49.3491 0.758239 49.5055 0.89775 49.6819 1.05737C49.9209 0.946768 50.2087 0.843705 50.5239 0.87764C50.6053 0.886438 50.6979 0.878897 50.7629 0.91786C50.9781 1.04355 51.1958 1.0448 51.431 0.963107C51.5199 1.05737 51.5924 1.14158 51.7513 1.14912C51.9265 1.15666 52.1029 1.26098 52.1392 1.47842C52.2293 1.46459 52.3143 1.45077 52.4007 1.43694C52.4432 1.43066 52.4895 1.43191 52.527 1.41432C52.5833 1.38667 52.6321 1.34393 52.6847 1.30749C52.7097 1.37661 52.7335 1.44574 52.7585 1.51361C52.766 1.53246 52.7785 1.54754 52.7998 1.58274C53.055 1.47465 53.289 1.56765 53.5167 1.69208C53.583 1.72853 53.6381 1.78509 53.7006 1.82782C53.7569 1.86553 53.8195 1.92586 53.8783 1.92586C54.345 1.91832 54.7103 2.16089 55.0481 2.4286C55.4422 2.7403 55.8101 3.08971 56.1741 3.43786C56.2892 3.54846 56.3481 3.71436 56.4406 3.8501C56.6308 4.1329 56.8172 4.41946 57.0212 4.69345C57.1876 4.91592 57.4003 5.10696 57.5467 5.34073C57.7068 5.59588 57.9983 5.76681 58.0208 6.12124C58.0271 6.22807 58.1585 6.3613 58.2661 6.41912C58.5188 6.55611 58.6014 6.79994 58.7177 7.02869C58.774 7.13804 58.8516 7.23607 58.9092 7.34542C59.0005 7.51635 59.0931 7.68854 59.1669 7.86701C59.237 8.03669 59.2895 8.21391 59.3396 8.38987C59.3984 8.5985 59.516 8.82097 59.4834 9.01578C59.4384 9.27972 59.5948 9.41546 59.6999 9.58514C59.5322 9.95465 59.6674 10.3103 59.7199 10.6635C59.7562 10.9061 59.8313 11.1436 59.8963 11.3812C59.9113 11.434 59.9551 11.4792 59.9901 11.5245C60.2479 11.8512 60.5131 12.1655 60.4368 12.6393C60.4043 12.8379 60.4456 13.0553 60.4881 13.2564C60.5206 13.4123 60.592 13.553 60.4593 13.6963C60.4368 13.7202 60.4331 13.7855 60.4493 13.8157C60.6395 14.1676 60.4693 14.5346 60.4969 14.8928C60.5069 15.0273 60.4743 15.1593 60.5995 15.2686C60.6395 15.3038 60.6357 15.4019 60.6345 15.4697C60.6232 15.9033 60.5682 16.3395 60.6095 16.7681C60.6257 16.9428 60.7784 17.1577 61.0161 17.2193C61.2188 17.2708 61.3639 17.4543 61.3464 17.6428C61.3401 17.7032 61.2926 17.8037 61.2513 17.8113C60.961 17.8615 61.0324 18.0563 61.0661 18.2336C61.135 18.1757 61.2075 18.1142 61.3239 18.0174C61.3226 18.4171 61.1124 18.6735 60.9911 18.9537C61.1963 19.0451 61.3326 19.2018 61.4002 19.4238C61.2338 19.6211 61.2288 19.8574 61.2826 20.1151C61.3214 20.3023 61.3451 20.5085 61.1487 20.6367C61.1775 20.746 61.2488 20.8604 61.2213 20.9358C61.1274 21.1859 61.1687 21.4159 61.22 21.6648C61.2476 21.7967 61.3814 22.0004 61.1287 22.0883C61.2651 22.3674 60.8347 22.5735 61.0311 22.86C60.9335 23.124 61.1362 23.4596 60.7909 23.6707C60.886 23.7197 60.9448 23.7499 61.0198 23.7889C60.9736 23.8806 60.9335 23.9611 60.881 24.0679C61.2263 24.0943 61.0023 24.3934 61.1162 24.5103C60.9623 24.602 60.8234 24.685 60.642 24.7943C60.6057 24.7805 60.5156 24.7466 60.4255 24.7127C60.413 24.7252 60.4005 24.7378 60.3893 24.7504C60.4818 24.8786 60.5732 25.0055 60.6795 25.1513C60.602 25.3486 60.607 25.5585 60.7746 25.7621C60.7859 25.6314 60.7971 25.5007 60.8084 25.365C60.9223 25.4265 60.9585 25.6276 60.9736 26.251C60.9248 26.2246 60.8897 26.2058 60.8534 26.1869C60.7046 26.4547 60.9373 26.8041 60.6733 27.0479C60.7308 27.1484 60.8447 27.259 60.617 27.3319C60.5682 27.2528 60.5219 27.1773 60.4743 27.0994C60.4593 27.1107 60.4381 27.1195 60.4343 27.1321C60.3743 27.3483 60.3793 27.5607 60.4005 27.7869C60.4306 28.1024 60.2654 28.3852 60.1228 28.6567C60.2003 28.7874 60.2717 28.9068 60.3818 29.0915C60.2216 29.0589 60.139 29.0413 60.054 29.0237C59.84 29.1016 59.86 29.275 59.8663 29.4611C59.8738 29.6672 59.8463 29.8746 59.83 30.1259C59.7187 30.0656 59.6611 30.0354 59.6236 30.0153C59.5798 30.1071 59.5335 30.1951 59.4947 30.2881C59.4522 30.3911 59.4059 30.4942 59.3796 30.601C59.3433 30.7468 59.3683 30.9165 59.2094 31.0095C59.1807 30.963 59.1531 30.9165 59.1244 30.8687C58.9867 30.9575 58.9092 31.0631 58.8916 31.1855C58.9767 31.1478 59.0455 31.1163 59.1156 31.0849L59.1118 31.0924ZM41.7296 59.652C41.7396 59.6784 41.7496 59.7035 41.7609 59.7299C41.846 59.7136 41.9348 59.7073 42.0161 59.6809C42.2213 59.6143 42.449 59.6809 42.5929 59.8493C42.6592 59.9272 42.7368 59.9976 42.8206 60.0554C43.0571 60.2201 43.2998 60.3759 43.5488 60.5406C43.4912 60.7103 43.4087 60.8674 43.3886 61.032C43.3361 61.4631 43.3261 61.898 43.2698 62.3278C43.2473 62.4937 43.1459 62.6496 43.0796 62.8105C43.0633 62.8482 43.0358 62.8859 43.0333 62.9248C43.0133 63.1749 42.9995 63.4251 42.982 63.6953C42.9858 63.6953 43.0246 63.7091 43.0633 63.7079C43.2798 63.6965 43.4962 63.6701 43.7127 63.6714C43.8591 63.6714 44.0067 63.7254 44.1531 63.7267C44.4096 63.7292 44.6661 63.7129 44.9226 63.6965C45.139 63.6827 45.3542 63.6563 45.5706 63.64C45.6532 63.6337 45.737 63.64 45.8196 63.6375C45.951 63.635 46.0824 63.6375 46.2137 63.6262C46.3163 63.6174 46.4227 63.5583 46.5178 63.5759C46.8844 63.6412 47.2359 63.5181 47.58 63.4628C48.188 63.3647 48.7798 63.1548 49.3716 62.9663C50.0723 62.7438 50.7679 62.5025 51.4598 62.2524C51.7989 62.1305 52.1342 61.9872 52.457 61.8263C52.8423 61.634 53.2202 61.4241 53.5893 61.2029C54.2274 60.8209 54.9067 60.4978 55.4122 59.9247C55.4535 59.8782 55.5048 59.8405 55.5523 59.8003C55.9727 59.4521 56.3968 59.1065 56.8122 58.7521C56.861 58.7106 56.8673 58.6176 56.8973 58.5409C56.6333 58.4919 56.6421 58.5057 56.4969 58.6012C56.3906 58.6716 56.2617 58.7294 56.1366 58.7433C55.9302 58.7659 55.7187 58.7496 55.5098 58.7496C55.5073 58.7634 55.5048 58.776 55.5023 58.7898C55.5786 58.8262 55.6537 58.8627 55.7325 58.9004C55.5311 59.2033 55.1532 59.1593 54.9543 58.8539C54.7403 58.9155 54.5326 59.0323 54.3324 59.0185C54.1173 59.0034 53.9934 59.0424 53.8833 59.2234C53.7594 59.4257 53.5717 59.4572 53.3303 59.3453C53.2952 59.3692 53.259 59.3906 53.2277 59.4169C53.0488 59.5703 52.8836 59.7513 52.6046 59.6733C52.5658 59.662 52.4983 59.7274 52.4532 59.7676C52.3331 59.877 52.2368 60.0366 52.0979 60.0931C51.8852 60.1799 51.645 60.1962 51.396 60.2465C51.2121 60.5821 51.0895 60.6399 50.8167 60.4865C50.6841 60.6889 50.5302 60.8674 50.2499 60.8359C50.2162 60.8322 50.1711 60.8648 50.1423 60.8925C49.9722 61.0559 49.812 61.0446 49.6682 60.851C49.5793 61.0106 49.478 61.0835 49.3929 60.9013C49.2816 60.6637 49.1014 60.6788 48.895 60.7103C48.5859 60.758 48.3757 60.9365 48.2481 61.1866H47.4636C47.4048 61.267 47.3072 61.399 47.2046 61.5373C47.1158 61.5146 47.0182 61.4908 46.9169 61.4656C46.8793 61.2557 46.8431 61.0584 46.803 60.8397C46.7255 60.8221 46.5878 60.7454 46.4902 60.7806C46.2425 60.8674 46.1349 60.665 45.9823 60.5707C45.9072 60.5242 45.8184 60.3671 45.8446 60.3118C45.9372 60.1145 45.8271 59.936 45.8296 59.7513C45.8346 59.4634 45.916 59.2573 46.1825 59.197C46.6241 59.0964 47.0683 59.0097 47.5124 58.9217C48.0154 58.8225 48.5008 58.6679 48.9688 58.463C49.3741 58.2858 49.7695 58.0834 50.1699 57.8949C50.2162 57.8735 50.2675 57.8522 50.3175 57.8509C50.5715 57.8434 50.7617 57.7114 50.9506 57.5555C51.0282 57.4914 51.1595 57.4638 51.2621 57.4713C51.3522 57.4789 51.4373 57.5593 51.5324 57.6121C51.5486 57.592 51.5862 57.5643 51.6012 57.5291C51.7088 57.274 51.8727 57.1094 52.168 57.0666C52.3244 57.044 52.4732 56.9447 52.6146 56.8605C52.7635 56.7725 52.8874 56.6217 53.045 56.5727C53.4379 56.4533 53.7582 56.1567 54.1861 56.1202C54.2937 56.1114 54.3925 56.0021 54.4938 55.9367C54.5889 55.8739 54.679 55.8022 54.7766 55.7457C55.1532 55.527 55.5323 55.3146 55.9101 55.0959C55.9302 55.0846 55.9352 55.0443 55.969 54.9689C55.6962 55.0909 55.4522 55.1851 55.2208 54.9463C55.242 55.2882 55.227 55.2781 54.938 55.3623C54.7403 55.4189 54.5577 55.483 54.3525 55.4239C54.3174 55.4139 54.2724 55.4365 54.2336 55.4503C54.1085 55.493 53.9846 55.5383 53.832 55.5923C53.832 55.5923 53.832 55.6502 53.832 55.7218C53.7394 55.7457 53.6518 55.7696 53.548 55.7959C53.4904 55.5898 53.3603 55.5773 53.1839 55.6439C53.2152 55.723 53.2402 55.7834 53.269 55.855C52.9149 55.938 52.5733 55.9945 52.2743 56.1919C52.1917 56.2459 52.0416 56.1956 51.9227 56.1969C51.8377 56.1969 51.7488 56.1881 51.67 56.212C51.5949 56.2358 51.5361 56.3062 51.4623 56.3402C51.1821 56.4696 50.8968 56.589 50.6178 56.721C50.4201 56.8153 50.2287 56.9246 50.0022 57.0453C49.8734 57.0767 49.6994 57.1194 49.4968 57.1684C49.2828 57.0339 49.0876 56.99 48.8136 57.225C48.6185 57.3922 48.2831 57.5166 47.9779 57.3218C47.834 57.23 47.6838 57.1458 47.5375 57.0578C47.5425 56.9585 47.7652 56.8329 47.4736 56.7524C47.4349 56.8693 47.3986 56.9774 47.3585 57.0955C47.1271 56.9661 46.9056 56.8379 46.8256 56.5526C46.9356 56.5274 47.0095 56.5098 47.0996 56.4897C47.0745 56.4294 47.0608 56.3917 47.0445 56.3552C46.9306 56.09 46.9519 56.0398 47.2322 55.9417C47.3798 55.8902 47.4161 55.7821 47.3923 55.6451C47.3748 55.5446 47.3398 55.4478 47.3148 55.3598C47.5224 55.0029 47.5312 55.0255 47.8402 54.8973C48.1192 54.7817 48.3807 54.6208 48.6372 54.4574C48.9325 54.2689 49.2127 54.0552 49.4993 53.8541C49.5155 53.8428 49.5368 53.8315 49.5568 53.8302C49.7895 53.8252 49.9297 53.6656 50.0798 53.521C50.3613 53.2458 50.6616 53.012 50.9919 53.061C51.2158 52.8901 51.381 52.777 51.5286 52.645C51.6637 52.5256 51.8226 52.4427 51.9177 52.2579C52.0003 52.097 52.173 51.9462 52.3419 51.8758C52.5421 51.7929 52.6859 51.6609 52.8386 51.5264C52.9249 51.4523 53.0162 51.3819 53.1113 51.3203C53.4129 51.1267 53.7194 50.9407 54.0197 50.7446C54.0872 50.7007 54.1385 50.6303 54.1961 50.5699C54.3963 50.36 54.5802 50.1313 54.7979 49.9415C55.3797 49.4287 55.9652 48.9235 56.4169 48.2799C56.856 47.654 57.2864 47.0319 57.3064 46.2262C57.3064 46.186 57.3164 46.1395 57.3365 46.1056C57.4253 45.9573 57.3665 45.8328 57.2939 45.6845C57.0925 45.8039 56.8973 45.8995 56.7246 46.0264C56.3093 46.3293 55.9039 46.646 55.4973 46.9615C55.3997 47.0369 55.3058 47.1211 55.227 47.2141C55.0644 47.4077 54.7854 47.4441 54.6452 47.6792C54.5852 47.7797 54.4163 47.8099 54.3074 47.8878C53.9646 48.1354 53.6318 48.4006 53.2852 48.6432C52.716 49.0403 52.1379 49.4249 51.5637 49.8158C51.396 49.9302 51.2146 50.0282 51.0682 50.1652C50.7692 50.4443 50.335 50.4769 50.0423 50.771C49.802 51.0124 49.4492 51.0752 49.1777 51.2876C48.8099 51.5767 48.397 51.8105 47.9979 52.0606C47.7889 52.1913 47.5637 52.2969 47.3535 52.4263C47.1321 52.5621 46.8931 52.4477 46.6754 52.4741C46.5078 52.7632 46.509 52.7544 46.2062 52.6965C46.0936 52.6752 45.971 52.7066 45.8446 52.7141C45.9447 53.0057 45.9422 53.0862 45.7433 53.154C45.5619 53.2169 45.4718 53.3627 45.3354 53.4632C45.2066 53.5587 45.0677 53.6392 44.9401 53.7221C44.8337 53.6367 44.7637 53.5801 44.7074 53.5349C44.5447 53.5751 44.4021 53.6052 44.2632 53.6455C44.2182 53.658 44.1694 53.6869 44.1418 53.7234C43.754 54.2437 43.0233 54.2186 42.5654 53.888C42.5404 53.8704 42.5128 53.8516 42.4941 53.8277C42.2951 53.5562 42.0987 53.2847 41.9023 53.0108C41.7033 52.7342 41.7359 52.4552 41.9986 52.2365C42.0612 52.1837 42.1387 52.1498 42.2063 52.1008C42.379 51.9738 42.6067 51.8783 42.7068 51.7074C42.8757 51.4221 43.1322 51.2549 43.3761 51.0727C43.7214 50.815 44.0943 50.5938 44.4546 50.3575C44.4897 50.3349 44.5284 50.3173 44.5597 50.2909C44.7324 50.1489 44.9 50.0006 45.0752 49.8636C45.4981 49.5305 46.0273 49.3646 46.4252 48.9863C46.5478 48.8694 46.7342 48.8229 46.8781 48.7236C47.1596 48.5288 47.4349 48.3252 47.7051 48.1153C47.8502 48.0034 47.9804 47.8702 48.118 47.7483C48.2168 47.6616 48.3232 47.5837 48.4158 47.4906C48.5184 47.3876 48.6109 47.2745 48.706 47.1639C48.915 46.92 49.1602 46.6988 49.3216 46.4273C49.5318 46.0742 49.6669 45.6757 49.8521 45.3062C50.0885 44.8337 50.046 44.3384 50.0197 43.7879C49.8458 43.8294 49.6932 43.8445 49.5568 43.9011C49.269 44.0205 48.9513 44.0318 48.6735 44.2103C48.4921 44.3271 48.2381 44.3284 48.0855 44.527C48.0567 44.5634 47.9991 44.5873 47.9503 44.5961C47.6676 44.6489 47.4761 44.8085 47.331 45.0599C47.2797 45.1479 47.1333 45.1944 47.0207 45.2258C46.9394 45.2497 46.8431 45.2182 46.7367 45.2094C46.7255 45.2849 46.6904 45.3628 46.7142 45.3967C46.8706 45.6142 46.733 45.7197 46.5866 45.8643C46.3376 46.1119 46.0298 46.2728 45.7571 46.4826C45.4706 46.7026 45.1665 46.915 44.9363 47.1865C44.7399 47.419 44.4922 47.5434 44.2532 47.698C44.1293 47.7785 44.0017 47.8551 43.8766 47.9331C43.8966 47.9607 43.9316 48.006 43.9904 48.0851C43.8353 48.1505 43.7089 48.2184 43.5751 48.2586C43.2923 48.3453 43.0708 48.4836 43.0396 48.7689C42.8544 48.8782 42.643 48.936 42.5491 49.0743C42.3965 49.2993 42.2426 49.3244 42.0224 49.2289C42.0049 49.2213 41.9723 49.2465 41.916 49.2678C41.9886 49.3332 42.0424 49.3822 42.1287 49.4601C41.9874 49.5607 41.8635 49.6474 41.7409 49.7354C41.6583 49.7945 41.5757 49.856 41.4931 49.9151C41.378 49.9956 41.2654 50.0785 41.1466 50.1527C41.0678 50.2004 40.9414 50.2105 40.9026 50.2758C40.8088 50.438 40.6636 50.5121 40.5122 50.5951C40.2508 50.7384 40.0018 50.864 39.8053 51.138C39.6164 51.4007 39.2611 51.549 38.9984 51.774C38.8833 51.8733 38.8082 52.0229 38.6868 52.1083C38.3703 52.3333 38.035 52.5344 37.7122 52.7506C37.6096 52.8185 37.5207 52.9064 37.4257 52.9856C37.3631 53.0384 37.3106 53.1075 37.2417 53.1465C37.0315 53.2659 36.8138 53.3752 36.5774 53.4997C36.5236 53.4796 36.4398 53.4469 36.3447 53.4104C36.3922 53.5399 36.4272 53.6404 36.4573 53.7234C36.0732 53.9371 35.7266 54.1281 35.4138 54.3015C35.3162 54.4385 35.2386 54.5542 35.1536 54.666C34.9209 54.9752 34.5217 55.0908 34.294 55.4063C34.2778 55.4289 34.2415 55.4415 34.2127 55.4503C34.0263 55.5056 33.8399 55.5685 33.6497 55.6074C33.4733 55.6426 33.2906 55.6501 33.0842 55.6728C33.2055 55.894 33.1592 56.0863 32.9991 56.2446C32.8977 56.3452 32.7564 56.4093 32.665 56.5161C32.4849 56.7285 32.2834 56.9334 32.0832 57.1094C31.8793 57.2903 31.9281 57.7416 31.5027 57.6812C31.4952 57.6812 31.4827 57.7152 31.4714 57.7315C31.3188 57.9678 31.1662 58.2028 30.996 58.4668C30.9622 58.4743 30.8771 58.5258 30.8246 58.5032C30.5781 58.3926 30.4543 58.561 30.3229 58.7081C30.1853 58.8627 30.0163 58.9255 29.8337 58.8627C29.7561 58.8363 29.6848 58.7935 29.5922 58.7496C29.4809 58.8589 29.372 58.9645 29.2369 59.0964C29.1793 58.9494 29.143 58.8589 29.113 58.7822C28.7802 58.7181 28.4374 58.8752 28.1521 58.6302C28.1334 58.6138 28.0946 58.61 28.0683 58.6138C27.9294 58.639 27.7906 58.6666 27.6529 58.698C27.155 58.8137 26.6608 58.8363 26.1653 58.6704C26.0302 58.6251 25.8775 58.6302 25.7337 58.6113C25.4759 58.5485 25.2144 58.4542 24.9567 58.463C24.4575 58.4818 23.967 58.4818 23.4466 58.2921C23.4853 58.4982 23.4178 58.6264 23.2364 58.6616C22.9624 58.7144 22.9336 58.4215 22.7322 58.2958C22.6784 58.3863 22.6258 58.4743 22.5683 58.5711C22.4682 58.5283 22.3693 58.4655 22.263 58.4454C22.0928 58.414 21.9577 58.3624 21.8589 58.2028C21.7713 58.0608 21.6249 58.0872 21.4998 58.1588C21.4297 58.1991 21.3772 58.2694 21.3159 58.326C21.192 58.4404 20.9242 58.4768 20.8442 58.3486C20.7178 58.1475 20.5001 58.1136 20.35 57.9967C20.2736 58.1287 20.1986 58.2569 20.0985 58.4291C20.0021 58.3034 19.9346 58.2141 19.9108 58.1827C19.4704 58.052 19.08 57.9351 18.6909 57.8195C18.5933 57.7906 18.4958 57.7617 18.3969 57.7365C18.1254 57.6661 17.7964 57.69 17.7501 57.3431C17.2571 57.3281 16.7879 57.1156 16.2875 57.3243C16.3213 57.5945 16.3413 57.8635 16.3888 58.1262C16.4839 58.649 16.7079 59.1342 16.9556 59.5916C17.097 59.8556 17.1733 60.1673 17.436 60.3772C17.7413 60.621 17.9978 60.9239 18.2906 61.1853C18.3769 61.262 18.5108 61.2846 18.6234 61.3311C18.7235 61.3714 18.8373 61.3927 18.9249 61.4531C19.2189 61.6554 19.5017 61.8716 19.792 62.079C19.822 62.1003 19.872 62.1028 19.9121 62.1003C20.4513 62.0626 20.8905 62.3932 21.3847 62.5226C21.5323 62.5616 21.6887 62.6119 21.8438 62.6521C22.0228 62.6986 22.2317 62.7086 22.3693 62.813C22.5545 62.9537 22.7334 62.9739 22.9474 62.9776C23.1826 62.9826 23.4265 63.0065 23.6467 63.0807C24.0321 63.2076 24.4275 63.2177 24.8191 63.2152C25.0906 63.2139 25.3621 63.1259 25.5635 63.0895C25.7712 62.7313 25.9376 62.4095 26.1378 62.1104C26.2491 61.9445 26.4306 61.9382 26.6082 62.0387C26.6708 62.0739 26.7296 62.1142 26.7821 62.1468C27.0386 62.0124 27.0374 62.0149 27.3401 62.0802C27.3977 62.0928 27.4653 62.0815 27.5241 62.0664C27.8506 61.9797 28.1546 61.7874 28.5162 61.8754C28.56 61.8867 28.6213 61.8226 28.6764 61.7962C28.8152 61.7308 28.9541 61.6202 29.0955 61.6139C29.3933 61.6014 29.7036 61.6026 29.9901 61.6743C30.408 61.7773 30.732 61.6152 31.0385 61.4166C31.564 61.678 32.0858 61.5725 32.585 61.4216C32.7664 61.3663 32.8865 61.355 33.0154 61.4656C33.1455 61.3324 33.1455 61.3336 33.3131 61.3726C33.3382 61.3789 33.3694 61.3814 33.3907 61.3701C33.686 61.2142 34.0013 61.3424 34.3015 61.3324C34.6131 61.3223 34.9146 61.3073 35.2174 61.2318C35.584 61.1413 35.9518 61.0094 36.2821 61.1967C36.4272 61.1036 36.5423 61.0282 36.665 60.9503C36.7788 61.0747 36.8689 61.174 36.954 61.2683C37.1229 61.2394 37.283 61.2117 37.4594 61.1816C37.572 60.8912 37.7897 60.7392 38.12 60.7605C38.1826 60.7643 38.2489 60.7115 38.3115 60.7178C38.5454 60.7404 38.8144 60.4551 38.9996 60.8259C39.0559 60.763 39.0934 60.7278 39.1247 60.6876C39.2486 60.5305 39.6352 60.3998 39.8191 60.4551C40.0493 60.5247 40.2249 60.466 40.3458 60.2791C40.3734 60.2364 40.4122 60.2 40.4334 60.1748C40.4084 60.0152 40.3871 59.8744 40.3634 59.7249C40.6812 59.7073 40.7475 59.2649 41.1115 59.3415C41.1491 59.4107 41.1904 59.4873 41.2342 59.5678C41.3055 59.51 41.358 59.4672 41.4106 59.4245C41.4744 59.476 41.5219 59.5137 41.5582 59.5426C41.6508 59.4848 41.7321 59.4333 41.8147 59.3818C41.8272 59.4006 41.841 59.4195 41.8535 59.4383C41.8147 59.5062 41.7772 59.5741 41.7384 59.6419L41.7296 59.652ZM29.8437 57.0252C29.7098 57.0088 29.5835 56.9925 29.4558 56.9774C29.3883 56.9698 29.3032 56.9384 29.2544 56.9661C29.1105 57.049 28.9816 57.1571 28.789 57.2991C29.1405 57.2828 29.4258 57.2702 29.7173 57.2564C29.7699 57.1609 29.8174 57.0729 29.8437 57.0252ZM54.5777 63.0857C54.7628 63.0053 54.9405 62.9273 55.1432 62.8381C55.0343 62.764 54.9593 62.7124 54.8892 62.6647C54.5952 62.774 54.5664 62.8117 54.5777 63.0857ZM51.7851 1.60159C51.7926 1.56891 51.8014 1.53623 51.8089 1.50355C51.7075 1.32131 51.5699 1.35776 51.4085 1.50858C51.5336 1.53875 51.6587 1.57017 51.7839 1.60033L51.7851 1.60159ZM41.8009 1.14409C41.8097 1.10262 41.8185 1.05988 41.8272 1.01841C41.6896 1.02595 41.5932 0.774578 41.3931 1.02092C41.5419 1.06617 41.6721 1.10513 41.8009 1.14409ZM25.9363 2.84588C25.9426 2.68877 25.9989 2.56811 25.8262 2.51155C25.7349 2.65232 25.7149 2.75664 25.9363 2.84588ZM54.0797 38.6763C54.0597 38.5092 53.9859 38.523 53.897 38.5808C53.887 38.5871 53.8908 38.6172 53.8858 38.6612C53.9471 38.6663 54.0059 38.67 54.081 38.6763H54.0797ZM41.7434 68.0704C41.7709 68.0691 41.7984 68.0666 41.826 68.0654C41.8172 67.9849 41.8072 67.9057 41.7984 67.8253L41.7296 67.8328C41.7346 67.912 41.7396 67.9912 41.7434 68.0704ZM26.0314 2.0993C26.0027 2.10559 25.9751 2.11187 25.9464 2.11816L25.9901 2.32302C26.0189 2.31674 26.0477 2.31046 26.0765 2.30417C26.0615 2.2363 26.0464 2.16843 26.0314 2.10056V2.0993ZM25.6598 2.85844C25.6323 2.85342 25.6048 2.84965 25.5773 2.84462V3.05326L25.6286 3.05577L25.6586 2.85719L25.6598 2.85844ZM3.45068 22.2505L3.38938 22.2404C3.37687 22.3121 3.36435 22.3837 3.35184 22.4553C3.37186 22.4591 3.39188 22.4616 3.4119 22.4654C3.42441 22.3938 3.43692 22.3221 3.45068 22.2505ZM54.3712 54.9928C54.4813 55.0858 54.5585 55.0858 54.6027 54.9928H54.3712ZM38.5567 20.6279C38.379 20.702 38.1839 20.7297 38.0049 20.8026C37.6321 20.9521 37.2955 21.1884 36.8927 21.2726C36.7951 21.2927 36.7075 21.3619 36.6162 21.4084C36.2183 21.6145 35.8292 21.8395 35.4201 22.0192C35.2361 22.1009 35.0072 22.077 34.8871 22.2894C34.8733 22.3133 34.8145 22.3095 34.7782 22.3221C34.6982 22.3498 34.6043 22.3598 34.543 22.4113C34.4191 22.5157 34.3065 22.5521 34.1464 22.4855C34.0663 22.4528 33.9475 22.4754 33.8586 22.5069C33.5946 22.5986 33.3357 22.7092 33.0729 22.806C32.9766 22.8412 32.8752 22.8588 32.7751 22.8852C32.3297 23.0046 31.9719 23.3452 31.4977 23.393C31.4789 23.3955 31.4589 23.4093 31.4427 23.4219C31.0911 23.6871 30.6644 23.8165 30.3141 24.0968C30.0676 24.2941 29.9901 24.5757 29.8049 24.7956C29.7911 24.8119 29.7936 24.866 29.8087 24.8823C29.91 24.9929 29.8137 25.0696 29.7724 25.1601C29.6498 25.4316 29.6898 25.737 29.8537 25.928C30.0501 26.1555 30.0614 26.4345 30.1677 26.6759C30.2766 26.9247 30.3441 27.1736 30.5744 27.3319C30.6932 27.4136 30.7345 27.5142 30.7283 27.6499C30.7245 27.7316 30.7283 27.8133 30.7283 27.8686C31.0948 28.1112 31.3738 28.394 31.6016 28.7321C31.6616 28.8213 31.7529 28.9143 31.848 28.947C31.9932 28.9948 32.0807 29.0827 32.1333 29.2109C32.2221 29.4271 32.4123 29.4686 32.6075 29.5164C32.7739 29.5566 32.9378 29.6119 33.0979 29.6722C33.2493 29.73 33.3907 29.8255 33.5458 29.8658C33.6797 29.8997 33.8736 29.8205 33.9612 29.8922C34.1852 30.0731 34.4542 30.0518 34.6969 30.1096C35.2149 30.2328 35.7441 30.3044 36.1557 29.8884C36.3071 29.9437 36.446 30.048 36.5624 30.0279C36.8539 29.9764 37.1391 29.8758 37.4194 29.7753C37.4832 29.7526 37.5645 29.6458 37.5595 29.5855C37.5283 29.2348 37.7872 28.9985 37.8698 28.6629H38.4103C38.3728 28.5812 38.3365 28.5058 38.3002 28.4292C38.369 28.3676 38.4441 28.301 38.5529 28.2042C38.4428 28.1916 38.379 28.1841 38.3152 28.1778C38.2952 27.9415 38.4891 28.0081 38.5917 27.9528C38.6743 27.7153 38.8795 27.5242 38.832 27.2364C38.8257 27.1962 38.9521 27.1334 39.0309 27.0693C39.0296 26.8581 38.8282 26.9222 38.6906 26.8971C38.8007 26.6193 38.7331 26.2246 38.5655 26.114C38.1738 25.8539 38.0963 25.8526 37.806 26.0776C37.6947 26.0776 37.6033 26.055 37.5308 26.0826C37.4094 26.1291 37.303 26.2171 37.1829 26.2699C37.0303 26.3378 36.9102 26.4132 36.8239 26.5803C36.7363 26.7525 36.5774 26.887 36.3384 26.8418C36.2633 26.8279 36.1658 26.8493 36.0982 26.8883C35.6878 27.1258 35.2412 27.2326 34.777 27.2917C34.533 27.3219 34.289 27.4086 34.0501 27.3935C33.8111 27.3784 33.6009 27.3722 33.452 27.5494C33.2981 27.528 33.1705 27.5092 33.0416 27.4916C32.6913 27.4438 32.346 27.3772 32.042 27.1811C31.7517 26.9951 31.7442 26.5451 32.042 26.3843C32.3497 26.2196 32.6262 25.9909 32.9841 25.9192C33.1442 25.8878 33.3081 25.8338 33.4508 25.7546C33.6247 25.6591 33.7773 25.5283 33.8999 25.4404C34.0488 25.4542 34.1964 25.5095 34.3103 25.4693C34.5881 25.3712 34.822 25.1764 35.1185 25.0985C35.3838 25.0294 35.6265 24.8748 35.8918 24.7994C36.2196 24.7064 36.5111 24.5807 36.6762 24.274C37.0803 24.3004 37.3806 24.0943 37.7072 23.9372C37.6859 23.8555 37.6696 23.7951 37.6596 23.7549C37.8786 23.7021 38.0938 23.6871 38.2727 23.5978C38.5617 23.4533 38.8257 23.2597 39.1022 23.0913C39.171 23.0498 39.2511 22.9895 39.3224 22.9945C39.6314 23.0159 39.7253 22.7406 39.9054 22.5873C39.9342 22.5634 39.943 22.4855 39.928 22.444C39.8466 22.2077 39.8366 21.9765 39.9355 21.7427C39.948 21.7138 39.9255 21.6635 39.9067 21.6296C39.8279 21.4913 39.7428 21.3543 39.6602 21.2173C39.4926 20.9383 39.3249 20.6593 39.1297 20.3363C38.9521 20.428 38.7556 20.5424 38.5479 20.6291L38.5567 20.6279ZM47.0407 28.6629C47.0095 28.6617 46.9782 28.6579 46.9469 28.6592C46.7109 28.6617 46.5578 28.5482 46.4877 28.3186C46.3952 28.3123 46.2913 28.3198 46.195 28.2959C46.0386 28.2582 45.8897 28.1929 45.7345 28.1514C45.5369 28.0986 45.3367 28.0421 45.134 28.0182C44.9351 27.9956 44.7812 27.9528 44.7023 27.7392C44.6185 27.5104 44.546 27.4878 44.3007 27.5381C44.1606 27.567 43.7828 27.3558 43.6739 27.2012C43.6251 27.1308 43.5575 27.073 43.4937 27.0152C43.4637 26.9876 43.4087 26.98 43.3911 26.9486C43.1234 26.4924 42.6167 26.2171 42.4465 25.688C42.4152 25.5899 42.3552 25.4894 42.3602 25.3939C42.3777 25.096 42.2689 24.8295 42.2 24.5505C42.1513 24.3507 42.1287 24.1471 42.2176 23.9435C42.2626 23.8417 42.2601 23.721 42.2851 23.6091C42.3202 23.4495 42.3602 23.2911 42.4002 23.1328C42.4102 23.0938 42.4428 23.0586 42.4478 23.0197C42.5266 22.4792 42.7168 21.9815 42.9945 21.5127C43.0784 21.3719 43.1272 21.2098 43.1835 21.0552C43.3711 20.5386 43.734 20.139 44.0668 19.7192C44.1118 19.6626 44.1681 19.6098 44.1981 19.5457C44.3308 19.2692 44.4934 19.0304 44.7799 18.8821C44.8913 18.8243 44.9651 18.6911 45.0539 18.5905C45.2478 18.3731 45.6057 18.2662 45.8434 18.3995C45.9497 18.4598 46.0035 18.6156 46.1074 18.7677C46.1737 18.735 46.28 18.6823 46.3939 18.627C46.3576 18.5541 46.3276 18.4912 46.2876 18.4095C46.6179 18.4912 46.7905 18.7526 46.6892 19.0329C46.6091 19.2554 46.6066 19.4351 46.7405 19.645C46.9006 19.8951 46.7768 20.2307 46.5315 20.3903C46.3914 20.4821 46.2888 20.4745 46.1875 20.3325C45.8634 20.5977 46.3576 20.7121 46.2525 20.9446C46.185 20.9873 46.0123 20.9408 46.0123 21.1268C46.0123 21.1608 45.926 21.2023 45.8734 21.2286C45.707 21.3116 45.6257 21.4674 45.7095 21.612C45.8409 21.837 45.7258 21.9815 45.6282 22.1524C45.5619 22.1424 45.5056 22.1323 45.438 22.1223C45.4243 22.2153 45.3942 22.2995 45.403 22.3774C45.4268 22.5722 45.3154 22.7004 45.164 22.7306C44.9488 22.7746 44.9138 22.9267 44.8775 23.0838C44.8487 23.2107 44.8838 23.359 44.835 23.4746C44.7812 23.6003 44.6636 23.7914 44.5735 23.7914C44.3558 23.7914 44.317 23.9749 44.1869 24.0339C44.2232 24.2941 44.4421 24.1911 44.5547 24.2753C44.6773 24.1785 44.6473 23.9233 44.9301 23.9548C44.815 24.2702 44.6998 24.5606 44.6073 24.8572C44.5797 24.9452 44.5835 25.0721 44.6298 25.1475C44.7486 25.3448 44.7111 25.551 44.7111 25.7571C44.7111 25.8187 44.7023 25.8815 44.6936 25.9946C44.8124 26.0236 44.9351 26.0814 45.0589 26.0801C45.4168 26.0763 45.7571 26.1379 46.0936 26.2624C46.22 26.3089 46.3764 26.2913 46.5165 26.2799C46.9982 26.2397 47.4474 26.1178 47.8515 25.8199C48.088 25.6465 48.3207 25.4291 48.631 25.4278C48.7411 25.5032 48.8386 25.5711 48.9362 25.6377C48.9613 25.6553 49.0038 25.6653 49.0113 25.688C49.1514 26.0964 49.5005 26.4081 49.5368 26.8656C49.5456 26.9712 49.6256 27.0705 49.6769 27.1711C49.747 27.3081 49.8195 27.4425 49.9059 27.6059C49.9497 27.5959 50.0247 27.5783 50.1198 27.5557C50.2074 27.7304 50.3062 27.9025 50.3788 28.0848C50.3963 28.1288 50.34 28.2444 50.2925 28.2645C50.2162 28.2947 50.1173 28.2846 50.0322 28.2683C49.9497 28.252 49.8721 28.2055 49.792 28.1728C49.7795 28.1967 49.7683 28.2193 49.7557 28.2432C49.8271 28.3035 49.8984 28.3638 49.9697 28.4241C49.4042 28.3776 48.995 28.8175 48.4233 28.8829C48.4883 28.7798 48.5359 28.7019 48.5847 28.6252C48.5409 28.6692 48.4971 28.712 48.452 28.756C48.3757 28.6353 48.3007 28.5159 48.2243 28.3952C48.2368 28.3802 48.2494 28.3663 48.2619 28.3512C48.2744 28.4204 48.2944 28.4895 48.2969 28.5586C48.3044 28.7673 48.2569 28.81 48.0554 28.8414C47.6926 28.8992 47.3673 28.7635 47.0357 28.6604C47.052 28.5725 47.0858 28.4832 47.0783 28.3965C47.0758 28.3588 46.9907 28.3286 46.9206 28.2796C46.9719 28.4468 47.0057 28.5549 47.0382 28.6629H47.0407ZM45.2153 21.3543C45.0885 21.3543 45.0201 21.4159 45.0101 21.5391C45.0852 21.4712 45.1377 21.4247 45.2153 21.3543ZM41.2517 15.251C40.9902 15.1719 40.795 14.962 40.6799 14.7093C40.5648 14.4542 40.4046 14.3147 40.1119 14.3373C40.0331 14.3436 39.9455 14.282 39.8692 14.2393C39.8279 14.2154 39.8078 14.1488 39.7666 14.1299C39.5839 14.0482 38.9158 14.1789 38.837 14.3373C38.7706 14.4718 38.6681 14.5032 38.5442 14.5334C38.4754 14.5497 38.3815 14.5774 38.354 14.6289C38.2139 14.8866 37.9461 15.0009 37.7472 15.1907C37.5958 15.3352 37.4044 15.4371 37.2305 15.5577C37.1329 15.6935 37.0253 15.8191 36.8264 15.8506C36.7813 15.8581 36.7463 15.9121 36.7012 15.9373C36.5786 16.0052 36.4585 16.1032 36.3271 16.1258C36.0531 16.1723 35.7729 16.1861 35.4951 16.1987C35.1673 16.2138 35.0372 16.1132 34.9196 15.8129C34.8933 15.745 34.8333 15.6784 34.772 15.6407C34.6131 15.5426 34.5192 15.4006 34.5555 15.2246C34.6243 14.8966 34.6419 14.5598 34.7957 14.2443C34.9534 13.9188 35.0397 13.5593 35.1623 13.2149C35.1823 13.1596 35.2124 13.0817 35.2574 13.0654C35.5252 12.9648 35.5051 12.7524 35.5051 12.5249C35.5051 12.3678 35.5214 12.1516 35.619 12.0674C35.7666 11.9405 35.7766 11.8274 35.7579 11.6652C35.7379 11.4956 35.7116 11.3322 35.8817 11.1839C35.9893 11.0896 36.0169 10.9011 36.0819 10.7477C35.9693 10.6962 35.8667 10.6497 35.7354 10.5894C35.7479 10.3946 35.7566 10.1997 35.7754 10.0037C35.7879 9.86919 35.8004 9.74727 35.6165 9.73093C35.5802 9.72716 35.5402 9.70328 35.5114 9.67814C35.315 9.51349 35.1198 9.34508 34.9146 9.16912C34.7907 9.26212 34.6356 9.32874 34.5555 9.44814C34.3653 9.72967 34.1426 10.0037 34.1239 10.3694C34.1214 10.4071 34.0963 10.4499 34.0713 10.4788C33.7698 10.8307 33.6997 11.2756 33.5796 11.7004C33.4945 11.9983 33.4132 12.2974 33.3319 12.5978C33.2944 12.7361 33.2593 12.8756 33.223 13.0138C33.193 13.132 33.1617 13.2514 33.1355 13.3708C33.0942 13.5694 33.0053 13.7629 33.1605 13.9628C33.2055 14.0206 33.213 14.1626 33.173 14.2229C32.9628 14.5397 33.1104 14.8727 33.1142 15.1945C33.1154 15.3302 33.183 15.4848 33.2668 15.5954C33.5133 15.9209 33.8023 16.215 33.9762 16.5946C34.0238 16.6977 34.0851 16.797 34.1526 16.8875C34.1927 16.9415 34.2515 16.9943 34.3128 17.0194C34.4304 17.0659 34.5555 17.0923 34.6781 17.1275C34.563 17.4832 34.7857 17.7145 35.2449 17.8263C35.2737 17.7786 35.3025 17.7308 35.345 17.6604C35.3925 17.7522 35.4288 17.8226 35.4726 17.9105C35.5865 17.8854 35.6928 17.8628 35.843 17.8301C35.9005 17.8854 36.0294 17.9545 36.0644 18.0551C36.1145 18.2009 36.2108 18.2386 36.3221 18.2248C36.5148 18.2021 36.715 18.1745 36.8927 18.1016C37.0691 18.0287 37.1967 18.0337 37.288 18.2009C37.3844 18.3781 37.5258 18.4221 37.7059 18.3706C37.9211 18.309 38.1251 18.3504 38.3377 18.3969C38.6067 18.4548 38.8745 18.4045 39.101 18.2285C39.4901 17.9244 39.8817 17.6227 40.262 17.3073C40.3984 17.1941 40.5047 17.0433 40.6486 16.8824C40.6699 16.8824 40.7575 16.9101 40.8013 16.8774C41.0302 16.7103 41.2467 16.528 41.4681 16.3508C41.4944 16.3294 41.5244 16.3018 41.5545 16.3005C41.7521 16.2842 41.8222 16.2213 41.8134 16.0466C41.8072 15.9235 41.7947 15.8015 41.7834 15.6595C41.7259 15.6658 41.6683 15.6721 41.5707 15.6834C41.5795 15.4421 41.4844 15.3202 41.2517 15.2498V15.251ZM29.2481 37.2108C29.3182 37.1983 29.4008 37.2598 29.4796 37.2787C29.6698 37.3252 29.86 37.3843 30.0539 37.4006C30.1377 37.4069 30.229 37.3202 30.3542 37.2561C30.3929 37.3038 30.4442 37.3792 30.5093 37.4371C30.5493 37.4722 30.6144 37.4798 30.6694 37.4999C30.7308 37.3252 30.9222 37.3906 31.0836 37.2963C30.7733 37.1442 30.747 36.8878 30.722 36.6176C30.7145 36.5371 30.6106 36.4291 30.5281 36.4001C30.3817 36.3499 30.2966 36.2544 30.2566 36.1262C30.1878 35.9112 29.945 35.7918 29.9525 35.5379C29.9525 35.5065 29.9075 35.4713 29.8787 35.4424C29.7073 35.2652 29.5146 35.1043 29.3658 34.9095C29.1418 34.6154 28.8528 34.5023 28.5087 34.5501C28.2184 34.5915 27.9232 34.442 27.6354 34.5865C27.5979 34.6054 27.5241 34.5488 27.4653 34.5337C27.2913 34.4872 27.1237 34.3804 26.941 34.5438C26.8935 34.5865 26.7458 34.5689 26.6808 34.5249C26.5294 34.4231 26.3805 34.3628 26.1941 34.3452C25.9714 34.3238 25.7399 34.2798 25.5385 34.1893C25.3571 34.1076 25.2082 34.1014 25.058 34.1919C24.9992 34.1378 24.9554 34.0787 24.8966 34.0461C24.5801 33.8688 24.2598 33.7004 23.942 33.5257C23.4753 33.2706 23.1726 32.8684 22.9661 32.392C22.8398 32.0992 22.7634 31.7837 22.6321 31.4946C22.4306 31.051 22.2392 30.6086 22.2354 30.1083C22.2317 29.6722 21.9527 29.3328 21.8226 28.942C21.5561 28.805 21.5273 28.3977 21.1707 28.3588C21.1407 28.355 21.1007 28.3035 21.0931 28.267C21.0381 28.0383 20.8579 27.9352 20.6778 27.8271C20.6165 27.7907 20.5552 27.7417 20.5151 27.6826C20.3287 27.4136 20.151 27.1396 19.9621 26.8556C19.8145 26.9323 19.608 26.7839 19.5317 27.0366C19.5617 27.0869 19.598 27.1472 19.6343 27.2075C19.5768 27.2741 19.5267 27.3332 19.4767 27.3923C19.5467 27.5733 19.5417 27.7442 19.5717 27.9101C19.6568 28.3802 19.7482 28.849 19.8545 29.314C19.9071 29.5427 19.9984 29.764 20.0735 29.9877C20.1373 30.1787 20.2274 30.3647 20.2636 30.5608C20.3312 30.9278 20.2386 31.3463 20.6252 31.6002C20.6377 31.609 20.639 31.6379 20.644 31.658C20.7578 32.0816 20.9443 32.4649 21.2508 32.7854C21.3284 32.8671 21.3697 32.9815 21.4397 33.072C21.5936 33.2718 21.7513 33.4704 21.9177 33.6602C21.9527 33.7004 22.034 33.7205 22.0916 33.7155C22.2254 33.7042 22.3656 33.6552 22.4594 33.7997C22.5382 33.9204 22.6396 34.041 22.6708 34.1755C22.7647 34.5903 23.0537 34.7964 23.4128 34.9372C23.4778 34.9623 23.5604 34.9409 23.5954 34.9409C23.7268 35.0465 23.8369 35.1358 23.947 35.2225C24.1372 35.3733 24.3261 35.5279 24.5213 35.6724C24.6702 35.783 24.8141 35.9225 24.983 35.9753C25.262 36.0621 25.5635 36.0746 25.8488 36.145C26.0264 36.189 26.2104 36.2556 26.3617 36.3574C26.6195 36.5309 26.8672 36.6905 27.15 36.605C27.2626 36.7018 27.3364 36.7998 27.4352 36.8413C27.7317 36.9657 28.037 37.0663 28.3423 37.1781C28.4086 37.0877 28.4624 37.0148 28.5262 36.9268C28.7339 37.143 28.9566 37.2737 29.2556 37.2171L29.2481 37.2108ZM50.619 65.0565C50.6803 65.01 50.7416 64.9622 50.8017 64.9157L50.7429 64.844C50.6841 64.8943 50.6265 64.9459 50.5677 64.9961L50.6178 65.0565H50.619Z" fill="currentColor"></path>
</svg>