<svg width="49" height="13" viewBox="0 0 49 13" fill="none" xmlns="http://www.w3.org/2000/svg">
<path fill-rule="evenodd" clip-rule="evenodd" d="M5.6689 0L0.200195 12.102H6.747L7.55861 10.1725H9.41378L10.2254 12.102H17.4316V10.6293L18.0737 12.102H21.8013L22.4434 10.5982V12.102H37.4304L39.2527 10.2226L40.9591 12.102L48.6567 12.1176L43.1707 6.08479L48.6567 0H41.0784L39.3045 1.84472L37.6519 0H21.3481L19.948 3.12363L18.5152 0H11.9821V1.42259L11.2553 0H5.6689ZM28.0488 1.71851H36.655L39.2873 4.5618L42.0043 1.71851H44.6366L40.6372 6.08309L44.6366 10.3974H41.8849L39.2527 7.52106L36.5218 10.3974H28.0488V1.71851ZM30.1741 5.10177V3.51499H35.5441L37.8872 6.05023L35.4403 8.59932H30.1741V6.86867H34.8691V5.10177H30.1741ZM6.93567 1.71851H10.1269L13.7543 9.92495V1.71851H17.2501L20.0519 7.60249L22.634 1.71851H26.1124V10.4025H23.9959L23.9786 3.59777L20.8929 10.4025H18.9996L15.8966 3.59777V10.4025H11.5425L10.717 8.45566H6.25731L5.43354 10.4008H3.10063L6.93567 1.71851ZM7.0188 6.65592L8.48809 3.18779L9.95567 6.65592H7.0188Z" fill="#ebe0ce"></path>
</svg>