<svg version="1.1" xmlns="http://www.w3.org/2000/svg" xmlns:xlink="http://www.w3.org/1999/xlink" x="0px" y="0px" viewBox="0 0 143.94 144" style="enable-background:new 0 0 143.94 144;" xml:space="preserve">
<g id="Arrière-plan_xA0_Image_1_">
</g>
<g id="Calque_2_xA0_Image_1_">
	<g>
		<path d="M18.36,84.66c-0.11-0.04-0.26-0.04-0.32-0.11c-0.29-0.32-0.55-0.67-0.82-1c-0.22-0.28-0.4-0.61-0.67-0.84
			c-0.33-0.28-0.58-0.59-0.66-1.01c-0.69-0.08-0.84-0.66-1.08-1.12c-0.09-0.17-0.12-0.33-0.32-0.43c-0.1-0.05-0.03-0.28-0.28-0.34
			c-0.25-0.05-0.48-0.26-0.57-0.56c-0.05-0.16-0.21-0.28-0.32-0.42c-0.04-0.04-0.11-0.07-0.13-0.12c-0.27-0.56-0.53-1.13-0.81-1.7
			c0.16-0.11,0.29-0.2,0.4-0.27c0.06-0.78-0.57-0.82-1.07-1c0.03-0.25,0.05-0.47,0.08-0.7c-0.79-0.19-0.38-0.98-0.78-1.39
			c0.78-0.28,0.78-0.28,0.57-0.63c-0.29,0.29-0.31,0.29-0.53,0.05c-0.13-0.15-0.3-0.27-0.5-0.46c0.11-0.22,0.14-0.47-0.08-0.82
			c-0.22-0.35-0.27-0.79-0.64-1.1c-0.14-0.12-0.1-0.47-0.1-0.72c0-0.17,0.06-0.35,0.11-0.52c0.16-0.55,0.03-0.74-0.61-0.79
			c-0.17-0.47-0.34-0.96-0.5-1.41c0.21-0.53,0.42-1.02,0.63-1.53c-0.17-0.14-0.32-0.26-0.46-0.39c0.31-0.38,0.44-0.79,0.17-1.26
			c-0.11-0.19-0.15-0.38,0.01-0.55c0.17-0.18,0.33-0.15,0.52,0.02c0.09,0.08,0.25,0.09,0.38,0.13c0.33,0.1,0.33,0.1,0.57-0.33
			c-0.21-0.17-0.3-0.36-0.36-0.66c-0.08-0.43-0.04-0.97-0.44-1.21c-0.34,0.09-0.6,0.15-0.87,0.22c-0.13-0.18-0.24-0.32-0.34-0.46
			c0.16-0.41,0.18-2.48,0.02-3.2c0.16-0.01,0.31-0.02,0.5-0.04c0.1-0.3,0.14-0.7,0.65-0.56c0-0.24,0-0.43,0-0.66
			c-0.15,0.05-0.28,0.09-0.45,0.14c-0.11-0.39-0.21-0.76-0.34-1.22c0.23-0.29,0.51-0.65,0.83-1.06c-0.06-0.06-0.17-0.15-0.26-0.23
			c-0.01-0.18-0.04-0.35-0.04-0.52c0.01-0.25,0.03-0.5,0.05-0.75c0.03-0.23,0.14-0.48,0.09-0.69c-0.11-0.47-0.1-0.94-0.06-1.4
			c0.07-0.74,0.17-1.48,0.27-2.22c0.03-0.21,0.12-0.42,0.2-0.62c0.06-0.17,0.17-0.32,0.21-0.49c0.09-0.38,0.2-0.73,0.62-0.87
			c0.02-0.01,0.03-0.07,0.05-0.14c-0.14-0.04-0.28-0.07-0.52-0.13c0.54-0.31,0.27-0.78,0.42-1.17c-0.14-0.03-0.25-0.05-0.38-0.07
			c0.05-0.48,0.1-0.95,0.16-1.46c0.4,0.16,0.33,0.43,0.29,0.69c0.54-0.18,0.59-0.34,0.37-1.19c0.09,0.05,0.17,0.09,0.24,0.13
			c0.65-0.61,0.64-0.75-0.19-1.08c0.45-0.37,0.25-0.9,0.39-1.39c0.19,0.02,0.35,0.04,0.56,0.07c0-0.12,0.05-0.29-0.01-0.33
			c-0.27-0.22-0.16-0.44-0.07-0.69c0.09-0.23,0.11-0.49,0.17-0.73c0.05-0.23,0.13-0.45,0.16-0.68c0.04-0.26,0.27-0.46,0.19-0.78
			c-0.03-0.11,0.25-0.34,0.43-0.44c0.11-0.07,0.3-0.01,0.45,0c0.08,0,0.17,0.02,0.28-0.02c-0.18-0.17-0.49-0.21-0.47-0.52
			c0.01-0.15,0.02-0.35,0.11-0.43c0.33-0.28,0.23-0.55,0.06-0.87c-0.17,0-0.34,0-0.52,0c-0.01-0.03-0.05-0.06-0.04-0.09
			c0.03-0.12,0.07-0.24,0.1-0.37c0.01-0.05-0.03-0.15-0.02-0.16c0.47-0.22,0.25-0.83,0.62-1.09c0.2-0.14,0.46-0.2,0.74-0.32
			c-0.02,0.22-0.03,0.41-0.05,0.68c0.31-0.06,0.59-0.11,0.95-0.17c-0.11-0.34-0.22-0.66-0.33-1c-0.17,0.05-0.3,0.09-0.53,0.16
			c0.18-0.44,0.21-0.85,0.6-1.08c0.05-0.03,0.12-0.09,0.12-0.12c-0.06-0.57,0.36-0.67,0.78-0.78c-0.04-0.14-0.08-0.25-0.13-0.4
			c0.16-0.03,0.3-0.05,0.56-0.09c-0.18-0.15-0.29-0.25-0.42-0.36c0.05-0.02,0.1-0.03,0.14-0.06c0.13-0.12,0.33-0.22,0.37-0.36
			c0.15-0.53,0.45-1.01,0.46-1.58c0.01-0.48,0.11-0.63,0.44-0.81c0.07,0.05,0.16,0.11,0.23,0.17c0.08,0.06,0.15,0.13,0.27,0.23
			c0.26-0.12,0.54-0.25,0.82-0.38c-0.01-0.04-0.01-0.08-0.02-0.13c-0.16-0.05-0.31-0.1-0.47-0.15c-0.01-0.02-0.04-0.07-0.02-0.09
			c0.12-0.23,0.14-0.43-0.01-0.67c-0.12-0.19-0.24-0.44,0.08-0.64c0.19-0.03,0.43,0.34,0.64-0.02c0.01-0.02,0.13,0,0.16,0.03
			c0.13,0.13,0.27,0.14,0.33-0.02c0.03-0.08-0.08-0.23-0.14-0.33c-0.04-0.06-0.12-0.09-0.19-0.14c0.09-0.27,0.17-0.52,0.25-0.79
			c0.27-0.02,0.54-0.05,0.84-0.07c0.08-0.18,0.16-0.35,0.31-0.67c-0.25,0.13-0.37,0.19-0.53,0.27c-0.13-0.09-0.29-0.2-0.53-0.37
			c0.34-0.29,0.64-0.54,0.93-0.8c0.23-0.21,0.68-0.21,0.64-0.67c0.42,0.02,0.5-0.36,0.6-0.61c0.16-0.4,0.42-0.68,0.7-0.98
			c0.12-0.13,0.42-0.31,0.17-0.58c0.24-0.26,0.5-0.47,0.88-0.3c0.18-0.56,0.29-0.59,1.38-0.48c0.33-0.34,0.64-0.69,0.58-1.25
			c0.1-0.05,0.22-0.12,0.37-0.19c0.11,0.15,0.21,0.28,0.32,0.43c0.18-0.15,0.34-0.28,0.53-0.43c-0.17-0.41-0.32-0.85,0.19-1.16
			c0.19-0.63,0.94-0.74,1.22-1.31c0.1-0.21,0.34-0.19,0.81-0.07c0.57-0.31,0.27-1.02,0.67-1.45c0.36,0.18,0.63,0.01,0.9-0.26
			c0.11-0.11,0.31-0.13,0.48-0.17c0.13-0.03,0.27-0.01,0.41-0.01c-0.01-1,0.6-1.67,1.45-1.62c0.11,0.01,0.22,0.06,0.33,0.1
			c0.16,0.05,0.36,0.19,0.46,0.13c0.22-0.13,0.53-0.21,0.52-0.57c-0.01-0.2,0-0.39,0-0.65c0.27,0.09,0.48-0.23,0.74,0.02
			c0.03,0.03,0.22-0.1,0.34-0.17c0.31-0.17,0.61-0.42,1.04-0.19c-0.06-0.11-0.12-0.23-0.23-0.42c0.23,0.05,0.39,0.08,0.58,0.12
			c0.11-0.3,0.23-0.61,0.34-0.9c0.25-0.08,0.54-0.18,0.9-0.29c0.05,0.03,0.18,0.16,0.31,0.15c0.13,0,0.25-0.14,0.38-0.22
			c0.42,0.4,0.46,0.39,0.67-0.19c0.04-0.1,0.14-0.17,0.22-0.27c-0.1-0.05-0.16-0.09-0.23-0.12c0.12-0.51,0.46-0.05,0.67-0.15
			c0.05-0.4,0.62-1.06,0.98-1.16c0.46-0.12,0.9-0.17,1.25,0.31c0-0.5,0.22-0.82,0.55-1.1c0.11-0.09,0.14-0.29,0.21-0.45
			c0.19,0.04,0.42,0.11,0.65,0.15c0.23,0.04,0.46,0.04,0.75,0.06c0.12-0.33,0.37-0.56,0.83-0.49c0.15,0.02,0.32-0.11,0.44-0.15
			c0.51,0.1,1,0.19,1.49,0.28c0.07,0.01,0.18,0.01,0.23-0.04c0.13-0.11,0.23-0.2,0.4-0.04c0.03,0.03,0.3-0.1,0.3-0.14
			C47.66,5,48.06,4.94,48.44,4.86c0-0.14,0-0.26,0-0.37c0.04-0.01,0.1-0.04,0.11-0.02c0.21,0.17,0.35,0.08,0.51-0.09
			c0.17-0.19,0.33-0.24,0.55-0.01c0.12,0.13,0.35,0.17,0.52,0.26c0.16,0.08,0.32,0.16,0.52,0.27c0.38-0.08,0.83-0.19,1.28-0.28
			c0.46-0.1,0.91-0.18,1.41-0.28c0.27,0.14,0.6,0.31,0.94,0.47c0.07,0.03,0.19-0.02,0.28-0.03c0.29-0.06,0.59-0.09,0.86-0.18
			c0.25-0.09,0.5-0.24,0.76-0.11c0.58,0.29,1.19-0.02,1.77,0.11c0.13,0.03,0.27,0,0.4,0.04c0.26,0.09,0.49,0.04,0.64-0.17
			c0.18-0.25,0.34-0.2,0.55-0.06c0.38,0.25,0.88,0.33,1.31,0.29c0.29-0.03,0.65-0.06,0.88,0.08c0.37,0.23,0.73,0.21,1.13,0.23
			c0.29,0.02,0.57,0.04,0.86-0.03c0.15-0.04,0.34,0.04,0.5,0.11c0.39,0.16,0.77,0.3,1.15-0.03c0.07-0.06,0.22-0.08,0.31-0.05
			c0.19,0.06,0.36,0.16,0.53,0.24c0.03,0.21,0.05,0.41,0.09,0.69c0.37-0.11,0.7-0.21,1.06-0.32c0.13,0.07,0.28,0.16,0.44,0.25
			c0-0.03,0-0.05,0.01-0.08c0.46,0,0.91,0,1.37,0c0.03,0.38,0.22,0.58,0.56,0.67c0.1,0.03,0.16,0.19,0.28,0.36
			c0.23-0.09,0.55-0.2,0.9-0.34c0.03,0.1,0.09,0.25,0.14,0.41c0.01,0,0.06,0,0.07-0.01c0.32-0.56,0.81-0.35,1.24-0.33
			c0.13,0.28,0.19,0.6,0.38,0.74c0.18,0.14,0.5,0.09,0.82,0.14c0.06,0.14,0.16,0.35,0.28,0.6c0.27-0.1,0.52-0.17,0.78,0.04
			c0.11,0.08,0.31,0.03,0.46,0.07c0.22,0.07,0.43,0.17,0.64,0.25c0.23,0.09,0.48,0.15,0.68,0.28c0.21,0.14,0.34,0.39,0.56,0.51
			c0.34,0.2,0.71,0.38,1.16,0.25c0,0.12,0,0.23,0,0.36c0.31,0.18,0.64,0.35,0.93,0.58c0.11,0.09,0.13,0.3,0.2,0.49
			c0.1,0,0.22,0.01,0.33,0c0.17-0.02,0.36-0.12,0.49,0.08c0.13,0.2,0.31,0.39,0.34,0.61c0.09,0.71,0.07,0.71,0.75,0.77
			c0.1,0.28,0.2,0.58,0.3,0.89c0.22,0.02,0.44,0.05,0.72,0.08c0.14-0.04,0.02-0.49,0.42-0.32c-0.04,0.15-0.08,0.3-0.13,0.48
			c0.1,0.01,0.16,0.03,0.2,0.01c0.73-0.3,0.86-0.26,1.31,0.4c0.18,0.26,0.39,0.5,0.56,0.76c0.13,0.21,0.43,0.39,0.15,0.72
			c-0.07,0.09,0.01,0.3,0.03,0.5c-0.14,0.01-0.26,0.03-0.43,0.04c0.1,0.24,0.16,0.48,0.28,0.67c0.13,0.2,0.35,0.22,0.71,0.07
			c-0.26-0.14-0.42-0.23-0.63-0.33c0.18-0.25,0.36-0.5,0.57-0.78c0.19,0.01,0.31,0.12,0.45,0.29c0.42,0.51,0.87,1,1.31,1.5
			c0.05,0.06,0.12,0.12,0.14,0.19c0.09,0.3,0.12,0.63,0.27,0.89c0.14,0.25,0.44,0.42,0.27,0.78c-0.01,0.01,0,0.04,0.01,0.06
			c0.4,0.53,0.55,1.18,0.85,1.76c0.08,0.16,0.15,0.34,0.28,0.44c0.45,0.32,0.83,0.68,0.89,1.28c0.01,0.08,0.28,0.11,0.31,0.2
			c0.08,0.21,0.17,0.43,0.01,0.68c-0.1,0.15-0.18,0.48-0.1,0.55c0.35,0.32,0.19,0.79,0.4,1.14c0.05,0.08,0,0.22-0.01,0.34
			c-0.01,0.15-0.03,0.3-0.04,0.41c0.27,0.26,0.52-0.37,0.76,0.1c-0.11,0.07-0.22,0.14-0.37,0.23c0.23,0.17,0.27,0.35,0.09,0.6
			c-0.09,0.14-0.03,0.39-0.03,0.5c0.35,0.15,0.59,0.26,0.93,0.41c-0.17,0.12-0.25,0.16-0.32,0.21c0.06,0.22,0.13,0.43,0.2,0.67
			c0.12,0.03,0.25,0.07,0.4,0.1c0.02,0.05,0.05,0.1,0.06,0.16c0.11,0.69,0.21,1.37,0.33,2.06c0.02,0.12,0.1,0.26,0.19,0.34
			c0.55,0.43,0.57,0.63,0.05,1.1c0.1,0.25,0.21,0.52,0.32,0.79c0.1,0.25,0.14,0.5-0.02,0.75c-0.23,0.36-0.13,0.68,0.15,0.97
			c0.25,0.25,0.48,0.52,0.74,0.81c-0.14,0.31-0.3,0.63-0.19,0.99c0.02,0.07-0.02,0.19,0.03,0.23c0.53,0.41,0.3,1.02,0.26,1.49
			c-0.04,0.43-0.03,0.86,0,1.28c0.04,0.48-0.08,0.9-0.28,1.31c-0.04,0.08-0.18,0.11-0.34,0.21c0.43,0.06,0.47,0.35,0.45,0.66
			c-0.01,0.3-0.02,0.6-0.04,0.9c-0.02,0.24-0.13,0.39-0.38,0.48c-0.31,0.11-0.54,0.32-0.55,0.77c0.2-0.02,0.38-0.03,0.59-0.05
			c0.14,0.26,0.02,0.43-0.24,0.6c-0.05-0.12-0.08-0.2-0.11-0.28c-0.48-0.1-0.62,0.28-0.83,0.59c0.46,0.57,0.73-0.22,1.17-0.21
			c-0.02,0.34-0.03,0.65-0.04,0.95c-0.5,0.23-0.63,0.67-0.64,1.14c0,0.2-0.06,0.33-0.19,0.46c-0.57,0.59-0.56,0.67,0.08,1
			c0.12,0.33,0.21,0.59,0.32,0.9c-0.11,0.05-0.28,0.13-0.46,0.21c-0.21,0.42,0.07,1.07-0.59,1.3c-0.08,0.3,0.08,0.52,0.27,0.74
			c0.25,0.29,0.23,0.33-0.22,0.52c0.05,0.06,0.09,0.12,0.13,0.18c0.15,0.27-0.35,0.38-0.16,0.72c0.14,0.25-0.03,0.54-0.37,0.66
			c0.24,0.08,0.42,0.14,0.65,0.22c-0.05,0.24-0.09,0.44-0.14,0.71c-0.16-0.14-0.26-0.23-0.35-0.3c-0.05,0.03-0.11,0.04-0.11,0.07
			c-0.14,0.57-0.27,1.15-0.42,1.72c-0.08,0.33-0.32,0.64-0.14,1.02c0.03,0.06-0.12,0.2-0.19,0.31c0.34,0.19,0.69,0.12,1.09-0.09
			c-0.17,1.09-0.32,2.09-0.49,3.08c-0.07,0.43-0.2,0.84-0.54,1.15c-0.1,0.1-0.15,0.28-0.19,0.43c-0.09,0.34-0.28,0.51-0.67,0.43
			c-0.05-0.11-0.12-0.22-0.2-0.39c-0.07,0.09-0.13,0.14-0.15,0.21c-0.12,0.39,0.21,0.39,0.46,0.49c0.03,0.32,0.18,0.63-0.06,0.97
			c-0.1,0.14-0.04,0.43,0.01,0.63c0.15,0.57-0.17,1.05-0.29,1.55c-0.13,0.51-0.33,1-0.35,1.54c-0.01,0.28-0.15,0.55-0.25,0.88
			c0.36,0.09,0.66,0.17,1.05,0.27c0.02,0.04,0.09,0.2,0.18,0.4c0.29-0.24,0.56-0.46,0.92-0.75c0.04,0.25,0.06,0.42,0.09,0.59
			c0.69-0.24,1.38-0.16,2.06,0.02c0.57,0.15,1.23-0.02,1.58-0.47c0.19-0.25,0.4-0.33,0.71-0.31c0.3,0.02,0.61,0.19,0.92,0
			c0.14-0.09,0.32-0.12,0.46-0.21c0.32-0.22,0.62-0.24,0.93,0.01c0.17,0.14,0.34,0.2,0.55,0.09c0.08-0.04,0.2-0.08,0.28-0.06
			c0.45,0.14,0.69-0.14,0.93-0.43c0.18-0.22,0.39-0.32,0.66-0.26c0.13,0.19-0.08,0.59,0.39,0.56c0.02-0.2,0.04-0.39,0.06-0.66
			c0.6-0.04,1.2-0.08,1.8-0.12c0.08-0.01,0.2,0.01,0.22-0.03c0.2-0.4,0.8-0.44,0.84-0.97c0.01-0.1,0.05-0.19,0.09-0.28
			c0.18-0.48,0.24-0.51,0.74-0.29c0.22-0.11,0.44-0.21,0.67-0.32c0.02-0.08,0.02-0.23,0.09-0.3c0.31-0.29,0.41-0.67,0.47-1.05
			c0.02-0.14-0.06-0.31-0.09-0.46c0.15-0.2,0.48,0.11,0.61-0.23c0.13-0.33,0.83-0.28,0.53-0.9c0.32-0.04,0.58-0.12,0.65-0.44
			c0.02-0.09,0.08-0.18,0.14-0.26c0.27-0.38,0.27-0.37-0.15-0.63c0.01-0.23,0.02-0.47,0.04-0.78c0.26-0.03,0.54-0.05,0.82-0.08
			c0.24-0.02,0.48-0.05,0.72-0.07c0-0.25,0-0.43,0-0.61c0.2-0.09,0.4-0.18,0.6-0.27c0.12,0.09,0.14,0.38,0.45,0.15
			c-0.05-0.21-0.11-0.46-0.17-0.73c0.32-0.05,0.2-0.28,0.09-0.57c0.29,0.03,0.53,0,0.7,0.09c0.39,0.21,0.85,0.34,1.1,0.75
			c0.02,0.03,0.08,0.05,0.11,0.04c0.34-0.15,0.33,0.17,0.47,0.35c-0.15,0.13-0.28,0.25-0.43,0.38c0.13,0.21,0.25,0.39,0.34,0.58
			c0.19,0.37,0.41,0.45,0.75,0.22c0.1-0.06,0.18-0.15,0.27-0.23c0.35-0.03,0.61,0.08,0.78,0.42c0.06,0.13,0.3,0.27,0.43,0.25
			c0.53-0.11,0.71,0.26,0.91,0.6c0.13,0.22,0.29,0.46,0.31,0.7c0.03,0.36,0.24,0.47,0.57,0.54c-0.15,0.34-0.06,0.58,0.15,0.82
			c0.09,0.1,0.12,0.28,0.11,0.42c-0.03,0.37,0.1,0.66,0.39,0.87c0.37,0.27,0.52,0.68,0.66,1.08c0.04,0.13-0.05,0.38-0.17,0.47
			c-0.28,0.2-0.21,0.43-0.14,0.65c-0.12,0.23-0.49-0.19-0.49,0.24c0.24,0.07,0.47,0.15,0.7,0.2c0.09,0.02,0.22,0.01,0.28-0.04
			c0.43-0.36,0.98-0.24,1.45-0.29c0.69-0.08,1.38-0.17,2.04-0.33c0.07,0.18,0.13,0.51,0.22,0.52c0.25,0.02,0.51-0.09,0.82-0.16
			c0.1,0.08,0.26,0.21,0.46,0.38c0.06-0.07,0.14-0.15,0.22-0.23c0.62,0.17,1.25,0.44,1.79-0.13c0.58,0.03,1.15,0.34,1.71-0.16
			c-0.19-0.19-0.54-0.34-0.21-0.7c0.28,0.07,0.6,0.33,0.95,0.03c-0.04,0.16-0.09,0.32-0.16,0.58c0.18-0.1,0.28-0.14,0.37-0.2
			c0.35-0.25,0.47-0.26,0.74,0.07c0.19,0.23,0.28,0.24,0.57,0.1c0.26-0.12,0.55-0.15,0.7-0.54c0.17,0.16,0.37,0.25,0.39,0.38
			c0.08,0.42,0.28,0.55,0.64,0.39c0.05,0.04,0.07,0.06,0.07,0.07c-0.17,0.3,0.52,0.33,0.22,0.67c0.15,0.22,0.29,0.45,0.45,0.67
			c0.05,0.07,0.15,0.11,0.25,0.17c0.3-0.33-0.08-0.45-0.18-0.69c0.19-0.06,0.38-0.12,0.58-0.18c0.05,0.13,0.1,0.26,0.16,0.43
			c0.12,0.01,0.27,0.02,0.52,0.05c-0.13-0.2-0.21-0.32-0.3-0.44c0.07-0.03,0.11-0.07,0.13-0.06c0.34,0.18,0.7,0.34,1.02,0.56
			c0.18,0.13,0.35,0.34,0.42,0.54c0.09,0.26,0.23,0.42,0.48,0.44c0.24,0.02,0.34,0.14,0.42,0.35c0.04,0.12,0.13,0.24,0.22,0.34
			c0.3,0.35,0.3,0.35-0.08,0.67c-0.04,0.03-0.06,0.1-0.12,0.2c0.21,0.14,0.42,0.28,0.61,0.41c-0.01,0.19-0.07,0.4-0.02,0.58
			c0.08,0.31,0.35,0.16,0.57,0.15c0.2,0.47,0.56,0.63,1.04,0.51c0.12,0.2,0.11,0.33-0.09,0.46c-0.45,0.31-0.44,0.57,0.01,1.04
			c0.28-0.21-0.17-0.65,0.26-0.81c0.14,0.2,0.28,0.41,0.42,0.62c0.03,0.05,0.05,0.11,0.05,0.17c0.04,0.82,0.05,0.81,0.37,1.55
			c0.06,0.15-0.05,0.37-0.09,0.6c-0.15-0.05-0.31-0.1-0.49-0.17c-0.18,0.32-0.41,0.66-0.15,0.99c0.19,0.24,0.53,0.37,0.84,0.57
			c-0.14,0.2-0.26,0.39-0.43,0.63c0.17,0.09,0.29,0.17,0.43,0.23c0.37,0.16,0.64,0.4,0.64,0.84c0,0.33,0.18,0.64,0.05,1
			c-0.05,0.12,0.24,0.37,0.4,0.58c-0.18,0.39-0.55,0.72-0.92,1.09c0.1,0.07,0.16,0.11,0.22,0.15c-0.28,0.26-0.05,0.45,0.1,0.64
			c0.2,0.26,0.02,0.44-0.17,0.63c0.12,0.02,0.19,0.04,0.26,0.05c-0.08,0.32-0.08,0.32-0.58,0.37c-0.13,0.25-0.05,0.62-0.4,0.8
			c-0.06,0.03-0.05,0.24-0.04,0.37c0.01,0.11,0.09,0.22,0.09,0.34c0.03,0.48,0.08,0.95,0.59,1.3c-0.28,0.27-0.5,0.49-0.85,0.82
			c-0.04,0.18-0.11,0.52-0.19,0.91c0.31,0.13,0.43,0.38,0.4,0.71c-0.01,0.09,0.07,0.18,0.11,0.27c-0.32,0.12-0.38-0.22-0.54-0.37
			c-0.04,0.02-0.08,0.04-0.11,0.06c0.04,0.23,0.07,0.46,0.11,0.69c-0.07,0.01-0.18,0.04-0.42,0.08c0.18,0.16,0.27,0.3,0.38,0.32
			c0.11,0.02,0.3-0.06,0.35-0.15c0.11-0.2,0.15-0.43,0.22-0.65c0.05,0.09,0.16,0.18,0.14,0.25c-0.08,0.45-0.19,0.9-0.28,1.36
			c-0.02,0.11,0,0.23,0,0.37c-0.2,0.1-0.4,0.21-0.61,0.32c-0.05-0.32-0.05-0.32-0.46-0.33c0.21,0.14,0.34,0.23,0.47,0.32
			c-0.03,0.38-0.16,0.72-0.51,0.98c-0.03-0.23,0.23-0.46-0.14-0.62c-0.27,0.4-0.61,0.78-0.8,1.23c-0.16,0.39-0.39,0.68-0.71,0.92
			c-0.19,0.15-0.37,0.3-0.59,0.48c0.07,0.12,0.13,0.23,0.21,0.38c-0.22,0.22-0.48,0.43-0.32,0.84c0.04,0.11-0.17,0.33-0.29,0.48
			c-0.16,0.2-0.34,0.37-0.56,0.61c-0.45-0.07-0.82,0.21-1.17,0.6c0.2,0.1,0.37,0.19,0.55,0.28c-0.14,0.22-0.27,0.42-0.43,0.68
			c-0.07-0.11-0.12-0.18-0.18-0.28c-0.25,0.07-0.52,0.15-0.77,0.22c-0.4-0.28-0.25-0.66-0.16-1.09c-0.17,0.05-0.27,0.05-0.33,0.1
			c-0.4,0.35-0.83,0.65-1.36,0.79c-0.1,0.03-0.21,0.12-0.26,0.21c-0.42,0.68-1.11,0.98-1.79,1.29c-0.11,0.05-0.26,0-0.39,0
			c-0.1,0-0.21,0-0.41,0c0.14,0.15,0.21,0.23,0.29,0.31c-0.01,0.03-0.02,0.09-0.04,0.09c-0.15,0.05-0.24,0.09-0.28,0.3
			c-0.16,0.75-0.79,1.12-1.57,1c-0.03-0.68-0.26-0.78-0.88-0.42c-0.14,0.08-0.33,0.1-0.5,0.12c-0.55,0.03-0.6,0.06-0.92,0.55
			c-0.18,0.01-0.38,0.02-0.57,0.03c-0.06,0-0.13,0.03-0.17,0c-0.17-0.12-0.32-0.3-0.51-0.37c-0.17-0.06-0.39-0.01-0.65-0.01
			c-0.17,0.23-0.38,0.51-0.51,0.69c-0.33,0.18-0.59,0.29-0.83,0.45c-0.28,0.19-0.52,0.2-0.93-0.07c-0.07,0.11-0.13,0.21-0.2,0.33
			c-0.09-0.08-0.17-0.15-0.29-0.26c-0.11,0.19-0.21,0.36-0.32,0.53c-0.03-0.01-0.06-0.03-0.09-0.04c0.03-0.12,0.06-0.23,0.08-0.31
			c-0.21-0.09-0.41-0.18-0.6-0.27c0,0,0.01,0.02,0.01,0.02c-0.08-0.27,0.07-0.42,0.41-0.5c-0.18-0.12-0.28-0.23-0.36-0.22
			c-0.23,0.04-0.53-0.09-0.68,0.2c-0.28,0-0.56-0.02-0.83,0c-0.21,0.02-0.27,0.2-0.19,0.35c0.2,0.35,0.45-0.03,0.69-0.01
			c0.12,0.01,0.53,0.04,0.32-0.35c0.31,0.13,0.3,0.39,0.27,0.65l0.01-0.02c-0.16-0.01-0.32-0.02-0.47-0.03
			c-0.02,0.05-0.03,0.09-0.05,0.14c0.08,0.05,0.17,0.11,0.25,0.16l0,0c-0.42,0.08-0.84,0.16-1.29,0.24
			c0.03,0.13,0.05,0.21,0.07,0.28c0.09,0.35-0.12,0.7-0.4,0.58c-0.36-0.16-0.56,0.25-0.86,0.1c-0.15,0.24-0.54,0.22-0.61,0.56
			c-0.01,0.07-0.09,0.12-0.14,0.17c-0.58-0.04-1.14-0.09-1.7-0.1c-0.19,0-0.38,0.1-0.58,0.15c-0.17,0.04-0.34,0.1-0.51,0.11
			c-0.37,0.02-0.68,0.13-0.94,0.43c-0.3,0.35-0.68,0.28-0.98-0.15c-0.07,0.07-0.14,0.14-0.19,0.21c-0.04,0.06-0.05,0.15-0.05,0.15
			c-0.79,0.15-1.52,0.33-2.27,0.4c-0.33,0.03-0.69-0.11-1.01-0.25c-0.25-0.1-0.44-0.19-0.72-0.1c-0.37,0.12-0.78,0.13-1.22,0.2
			c-0.12-0.09-0.28-0.2-0.47-0.33c-0.33,0.23-0.68,0.27-1.09,0.26c-0.39-0.01-0.86,0-1.19,0.42c-0.12-0.16-0.21-0.27-0.33-0.43
			c-0.26,0.07-0.55,0.14-0.89,0.23c-0.31-0.32-0.76-0.31-1.23-0.26c-0.14,0.02-0.3,0.05-0.42,0c-0.4-0.16-0.78,0.16-1.18,0
			c-0.07-0.03-0.2,0.11-0.31,0.13c-0.12,0.03-0.3,0.08-0.38,0.02c-0.15-0.12-0.24-0.19-0.39-0.03c-0.03,0.03-0.11,0.04-0.16,0.03
			c-1.87-0.41-2.79-0.52-4.3-0.42c-0.35,0.02-0.71,0.12-1.04,0.25c-0.4,0.15-0.76,0.05-1.1-0.09c-0.59-0.24-0.58-0.27-1.11-0.14
			c-0.04-0.06-0.08-0.12-0.09-0.14c-0.3,0.11-0.59,0.22-0.86,0.32c-0.1-0.08-0.18-0.12-0.22-0.18c-0.16-0.23-0.28-0.43-0.53-0.04
			c-0.1,0.15-0.35,0.18-0.6,0.15c-0.34-0.04-0.7,0.05-1.04,0.11c-0.12,0.02-0.22,0.15-0.36,0.24c-0.12-0.13-0.22-0.24-0.34-0.38
			c-0.27,0.07-0.56,0.14-0.81,0.2c-0.45-0.14-0.9-0.4-1.32-0.36c-0.31,0.03-0.54-0.07-0.81-0.1c-0.1-0.01-0.21,0.06-0.31,0.1
			c-0.13,0.05-0.25,0.13-0.38,0.14c-0.36,0.01-0.48,0.25-0.53,0.54c-0.05,0.27-0.07,0.55-0.1,0.86c-0.32,0.05-0.54,0.39-0.93,0.16
			c-0.15-0.09-0.28,0.12-0.19,0.3c0.05,0.1,0.12,0.2,0.2,0.29c0.14,0.14,0.33,0.24,0.17,0.51c-0.04,0.07,0.19,0.29,0.34,0.51
			c-0.1,0.11-0.24,0.26-0.4,0.43c0.03,0.12,0.06,0.25,0.12,0.47c-0.34-0.06-0.62-0.11-0.92-0.16c-0.56,0.25-0.37,0.7-0.21,1.14
			c-0.49,0.18-0.95,0.34-1.45,0.52c0.01,0.08,0.04,0.25,0.07,0.41c0.26-0.04,0.5-0.08,0.84-0.14c-0.03,0.24-0.04,0.4-0.07,0.55
			c-0.01,0.05-0.1,0.11-0.1,0.12c0.24,0.28-0.02,0.42-0.16,0.6c-0.18,0.24-0.55,0.42-0.29,0.84c0.06,0.1-0.04,0.3-0.06,0.42
			c-0.2,0.15-0.38,0.29-0.62,0.47c0.22,0.15,0.37,0.25,0.5,0.33c-0.17,0.26-0.48,0.53-0.5,0.82c-0.02,0.41-0.35,0.6-0.44,0.96
			c-0.08,0.33-0.36,0.6-0.55,0.9c-0.08-0.06-0.15-0.11-0.27-0.2c-0.03,0.14-0.05,0.25-0.08,0.41c0.17-0.1,0.27-0.16,0.36-0.22
			c-0.01,0.16-0.04,0.32-0.03,0.48c0.02,0.24,0.17,0.4,0.41,0.45c0.28,0.06,0.56,0.11,0.86,0.17c-0.03,0.31-0.29,0.35-0.45,0.46
			c-0.41,0.26-0.44,0.33-0.18,0.82c-0.18,0.07-0.36,0.14-0.58,0.22c0.36,0.59-0.14,0.93-0.39,1.33c-0.11,0.18-0.33,0.3-0.43,0.49
			c-0.44,0.8-1.11,1.01-1.99,0.82c-0.08,0.14-0.15,0.27-0.24,0.43c0.2,0.16,0.31,0.33,0.24,0.64c-0.05,0.26,0.01,0.58,0.03,0.86
			c0.02,0.27,0.27,0.51,0.43,0.76c0.17,0.27,0.18,0.27,0.15,0.75c-0.29,0.31-0.54,0.58-0.84,0.9c-0.1-0.04-0.29-0.12-0.54-0.22
			c0.5-0.68,0.19-1.4,0.21-2.1c-0.05,0.13-0.14,0.26-0.15,0.4c-0.06,0.47-0.1,0.94-0.13,1.41c-0.03,0.49-0.02,0.49,0.28,0.9
			c-0.14,0.07-0.27,0.13-0.41,0.2c0.06,0.19,0.13,0.36,0.21,0.59c0.19-0.12,0.36-0.22,0.56-0.35c0.1,0.27,0.18,0.5,0.28,0.76
			c-0.06,0.06-0.13,0.15-0.2,0.23c0.14,0.32,0.26,0.63,0.4,0.94c0.05,0.1,0.14,0.22,0.23,0.23c0.37,0.07,0.76,0.1,1.13,0.16
			c0.17,0.03,0.34,0.1,0.51,0.16c0.22,0.08,0.44,0.17,0.67,0.25c0.14-0.17,0.26-0.32,0.42-0.51c0.12,0.21,0.26,0.32,0.05,0.53
			c-0.1,0.1-0.12,0.29-0.19,0.49c0.23,0.02,0.38,0.04,0.52,0.04c0.11,0,0.3,0,0.31-0.04c0.03-0.12,0.02-0.27-0.03-0.38
			c-0.03-0.08-0.15-0.12-0.21-0.17c0.23-0.48,0.24-0.49,0.61-0.4c0.44,0.1,0.87,0.19,1.34,0.29c-0.02,0.04-0.08,0.15-0.14,0.25
			c0.29,0.13,0.29,0.13,0.6-0.07c0.33,0.32,0.65,0.63,0.97,0.93c0.03-0.02,0.07-0.04,0.1-0.06c-0.03-0.18-0.07-0.37-0.1-0.55
			c0.34-0.5,0.83-0.47,1.35-0.44c0.36,0.02,0.73-0.05,1.09-0.13c0.55-0.13,1.01,0.03,1.49,0.35c0,0.12,0,0.27,0,0.54
			c0.22-0.18,0.37-0.29,0.51-0.41c0.22,0.14,0.45,0.28,0.73,0.45c0-0.21,0-0.36,0-0.51c0.11-0.04,0.2-0.07,0.32-0.11
			c-0.07-0.1-0.13-0.18-0.22-0.3c0.09-0.03,0.16-0.09,0.22-0.07c0.28,0.07,0.56,0.15,0.89,0.25c0.01,0.1,0.02,0.26,0.03,0.42
			c0.07,0.01,0.13,0.04,0.17,0.02c0.44-0.23,0.89-0.36,1.39-0.27c0.15,0.02,0.29,0.05,0.44,0.05c0.21,0,0.43,0.01,0.64-0.03
			c0.38-0.07,0.74-0.24,1.14,0.06c0.15,0.11,0.48,0,0.83-0.01c0.31,0.27,0.7,0.62,1.14,1.01c0.18-0.05,0.4-0.08,0.59-0.16
			c0.22-0.09,0.34-0.03,0.42,0.17c0.09,0.24,0.17,0.48,0.27,0.77c-0.06,0.11-0.15,0.26-0.21,0.42c-0.16,0.44-0.06,0.61,0.39,0.73
			c0.14,0.04,0.28,0.09,0.54,0.18c-0.21,0.1-0.3,0.15-0.42,0.21c0.07,0.39,0.42,0.42,0.75,0.53c-0.03,0.19-0.05,0.35-0.08,0.54
			c-0.3-0.04-0.55-0.07-0.82-0.11c0-0.19,0-0.36,0-0.54c-0.29,0.13-0.53,0.23-0.76,0.34c-0.18,0.09-0.29,0.21-0.13,0.42
			c0.06,0.07,0.13,0.14,0.24,0.28c-0.24,0.02-0.39,0.03-0.55,0.04c-0.04,0.24,0.33,0.37,0.09,0.65c-0.28-0.09-0.6-0.44-0.84,0.16
			c-0.1-0.22-0.16-0.36-0.21-0.45c-0.3-0.16-0.58-0.3-0.96-0.51c0.15,0.23,0.24,0.37,0.34,0.53c-0.71,0.01-1.45-0.2-1.95,0.54
			c-0.41-0.03-0.55-0.42-0.79-0.68c-0.31,0.11-0.63,0.31-0.94,0.3c-0.29-0.01-0.57-0.23-0.88-0.38c-0.17,0.26-0.33,0.51-0.48,0.74
			c-0.55,0.02-1.07-0.05-1.58,0.22c-0.21,0.12-0.54,0.02-0.83,0.02c-0.29-0.47-0.58-0.95-1.2-1.13c-0.11,0.08-0.2,0.19-0.32,0.25
			c-0.13,0.06-0.3,0.09-0.23,0.27c0.04,0.1,0.17,0.17,0.26,0.25c0.04,0.04,0.09,0.06,0.22,0.15c-0.62,0-1.14,0-1.65,0
			c-0.07,0.19-0.13,0.34-0.19,0.49c-0.14-0.07-0.28-0.14-0.45-0.23c-0.44,0.46-1.01,0.51-1.63,0.5c-0.36-0.01-0.72,0.13-1.11,0.21
			c-0.74-0.98-2.08-0.94-2.82-0.41c-0.23-0.13-0.45-0.28-0.66,0.03c-0.16,0.23-0.36,0.19-0.58,0.1c-0.35-0.14-0.69-0.26-1.03-0.39
			c-0.39,0.14-0.72,0.34-1.15,0.4c-0.68,0.08-0.68,0.18-1.08,0.07c-0.1,0.17-0.21,0.35-0.32,0.53c-0.24,0.38-0.34,0.39-0.68,0.09
			c-0.04-0.04-0.1-0.07-0.18-0.12c-0.27,0.29-0.63,0.19-0.98,0.21c-0.43,0.02-0.85,0.08-1.27,0.18c-0.15,0.04-0.25,0.24-0.38,0.37
			c-0.32,0.05-0.64-0.24-0.97,0.02c-0.06,0.05-0.3-0.12-0.4-0.17c-0.66,0.04-1.29,0.08-1.92,0.13c-0.13,0.01-0.29,0-0.37,0.07
			c-0.28,0.23-0.62,0.14-0.77-0.02c-0.47-0.53-1.08-0.38-1.62-0.35c-0.49,0.03-0.94-0.03-1.41-0.14c-0.24-0.06-0.5-0.05-0.75-0.04
			c-0.29,0.01-0.57,0.13-0.87-0.03c-0.08-0.05-0.25,0.03-0.37,0.07c-0.42,0.17-0.84,0.32-1.29,0.11c-0.21-0.1-0.39-0.24-0.57-0.39
			c-0.02-0.02,0.05-0.21,0.11-0.25c0.08-0.04,0.2-0.01,0.45-0.01c-0.34-0.28-0.57-0.46-0.84-0.68c-0.34,0.53-0.14,1.04-0.2,1.53
			c-0.33-0.07-0.33-0.07-0.29-0.58c-0.25,0.25-0.44,0.45-0.63,0.65c-0.14-0.19-0.29-0.38-0.49-0.63c-0.15,0.09-0.32,0.16-0.45,0.29
			c-0.25,0.24-0.52,0.42-0.86,0.49c0.01-0.17,0.17-0.36-0.11-0.51c-0.19,0.24-0.1,0.38,0.12,0.5c0.05,0.62-0.01,0.68-0.58,0.8
			c-0.29,0.06-0.55,0.21-0.84,0.29c-0.11,0.03-0.25-0.02-0.38-0.03c0.01-0.11-0.01-0.25,0.04-0.32c0.19-0.22,0.04-0.36-0.09-0.53
			c-0.55,0.03-0.5,0.69-0.96,0.87c-0.1-0.06-0.23-0.13-0.38-0.21c-0.04,0.05-0.11,0.1-0.1,0.14c0.02,0.31-0.12,0.41-0.42,0.44
			c-0.72,0.06-1.43,0.21-2.15,0.25c-0.41,0.02-0.82-0.09-1.22-0.14c-0.45,0.67-0.7,0.62-1.15-0.27c-0.2,0.17-0.38,0.34-0.66,0.58
			c-0.44-0.05-0.98-0.12-1.52-0.19c-0.1-0.01-0.22-0.07-0.29-0.02c-0.47,0.29-0.83-0.05-1.22-0.21c-0.44-0.18-0.64-0.57-0.78-0.99
			c-0.17-0.5-0.5-0.94-0.5-1.5c0-0.12-0.19-0.24-0.27-0.37c-0.12-0.17-0.22-0.36-0.38-0.63c0.63,0.05,0.68-0.47,1.05-0.72
			c-0.49-0.15-0.92-0.28-1.34-0.42c0-0.03,0-0.06,0-0.09c0.13-0.02,0.26-0.05,0.36-0.06c0.05-0.25,0.09-0.49,0.15-0.78
			c-0.19-0.27-0.25-0.72-0.05-0.77c0.25-0.07,0.32-0.3,0.5-0.39c0.41-0.2,0.64-0.55,0.86-0.9c0.69,0.18,0.69,0.18,0.79-0.26
			c0.51,0.04,0.78-0.32,0.9-0.7c0.08-0.26,0.13-0.46,0.53-0.46c-0.05-0.05-0.09-0.11-0.14-0.16c-0.22,0.04-0.43,0.07-0.75,0.12
			c0.08-0.15,0.1-0.29,0.18-0.34c0.13-0.08,0.3-0.12,0.45-0.13c0.28-0.02,0.04-0.25,0.17-0.35c0.12-0.09,0.21-0.23,0.31-0.34
			c0.27,0,0.53,0,0.86,0c-0.05-0.32-0.23-0.64,0.21-0.77c0.26-0.07,0.51-0.2,0.83-0.33c-0.02-0.1-0.05-0.27-0.09-0.48
			c0.39-0.1,0.17-0.67,0.6-0.82c0.32-0.11,0.53-0.4,0.54-0.74c0.01-0.35,0.26-0.46,0.45-0.65c0.29,0.14,0.51,0.56,0.92,0.16
			c0.11,0.15,0.22,0.31,0.37,0.52c0.19-0.16,0.4-0.33,0.64-0.54c0.07,0.18,0.13,0.34,0.22,0.58c0.28-0.31,0.54-0.58,0.79-0.86
			c-0.01-0.04-0.02-0.07-0.03-0.11c-0.42,0.03-0.84,0.06-1.29,0.1c-0.05-0.33,0.36-0.34,0.55-0.52c0.11-0.1,0.34-0.08,0.59-0.12
			c0.01-0.01,0.03-0.17,0.12-0.22c0.11-0.07,0.27-0.05,0.4-0.08c0.3-0.07,0.32-0.12,0.07-0.44c0.25-0.51,0.68-0.77,1.25-0.78
			c-0.03-0.25-0.14-0.52,0.25-0.53c0.4-0.01,0.6-0.23,0.61-0.63c0.57-0.09,1.24,0.18,1.55-0.62c0.01,0.02-0.03-0.04-0.06-0.1
			c-0.02-0.05-0.04-0.11-0.07-0.19c0.16-0.08,0.31-0.16,0.47-0.22c0.31-0.1,0.52-0.3,0.58-0.62c0.02-0.11-0.06-0.33-0.12-0.34
			c-0.26-0.04-0.24-0.23-0.28-0.4c-0.11-0.52-0.29-1.04,0.07-1.55c0.07-0.1,0.08-0.3,0.02-0.4c-0.26-0.49-0.02-0.94,0.1-1.38
			c0.09-0.32,0.07-0.61,0.02-0.93c-0.1-0.59-0.33-1.18-0.14-1.8c0.04-0.15-0.03-0.33-0.06-0.5c-0.01-0.06-0.06-0.14-0.04-0.16
			c0.33-0.34,0.01-0.75,0.12-1.07c0.12-0.38,0-0.74,0.07-1.1c0.07-0.37,0.08-0.74,0.13-1.11c0.02-0.18,0.06-0.35,0.1-0.53
			c0.02-0.12,0.09-0.26,0.05-0.34c-0.16-0.32-0.03-0.63,0-0.94c0.14-1.24,0.31-2.47,0.42-3.71c0.05-0.51,0-1.01,0.19-1.51
			c0.06-0.16-0.09-0.39-0.33-0.5c-0.34-0.15-0.64-0.38-0.97-0.56c-0.24-0.13-0.5-0.24-0.76-0.36c-0.07,0.1-0.13,0.18-0.21,0.3
			c-0.57-0.17-1.15-0.34-1.73-0.52c-0.3-0.09-0.61-0.19-0.91-0.28c-0.09-0.03-0.23,0-0.29-0.06c-0.46-0.49-1.13-0.46-1.69-0.68
			c-0.39-0.16-0.83-0.17-1.24-0.27c-0.45-0.11-0.89-0.22-1.32-0.37c-0.1-0.03-0.19-0.2-0.22-0.33c-0.04-0.17-0.01-0.35-0.01-0.51
			c-0.22-0.14-0.35-0.04-0.49,0.1c-0.32,0.33-0.41,0.31-0.7-0.02c-0.09-0.1-0.18-0.19-0.34-0.36c-0.03,0.23-0.05,0.37-0.07,0.51
			c-0.04,0.01-0.08,0.03-0.11,0.02c-0.52-0.15-0.9-0.53-1.28-0.87c-0.14-0.12-0.21-0.33-0.27-0.52c-0.08-0.25-0.24-0.4-0.48-0.49
			c-0.75-0.27-1.49-0.55-2.24-0.82c-0.07-0.03-0.16-0.04-0.22-0.08c-0.55-0.33-1.12-0.56-1.77-0.6c-0.33-0.02-0.64-0.24-0.97-0.35
			c-0.37-0.12-0.71-0.28-1.05-0.49c-0.37-0.24-0.89-0.24-1.34-0.33c-0.1-0.02-0.22,0.02-0.29-0.03c-0.5-0.38-1.21-0.41-1.59-0.98
			c-0.13-0.19-1.03-0.62-1.25-0.68c-0.24-0.07-0.53-0.12-0.69-0.29c-0.53-0.52-1.02-1.08-1.52-1.63c-0.2-0.23-0.37-0.5-0.56-0.74
			c-0.3-0.4-0.3-0.4-0.15-0.85c-0.27-0.3-0.55-0.6-0.82-0.91c-0.17-0.2-0.06-0.4,0.04-0.61c0.11-0.22,0.18-0.46,0.28-0.72
			c-0.38-0.16-0.68-0.31-1-0.42c-0.56-0.19-1.13-0.36-1.7-0.53c-0.08-0.02-0.16-0.09-0.23-0.07c-0.58,0.17-0.95-0.15-1.31-0.52
			c-0.03-0.04-0.11-0.04-0.2-0.06c-0.08,0.15-0.15,0.3-0.2,0.4c-0.29-0.17-0.6-0.29-0.84-0.5c-0.23-0.2-0.39-0.48-0.61-0.76
			c-0.24,0.04-0.3,0.31-0.48,0.45L18.36,84.66z M81.44,59.11c0.04,0.1,0.08,0.19,0.12,0.29c0.04-0.03,0.07-0.07,0.11-0.1
			c-0.08-0.06-0.16-0.12-0.24-0.18c0.03-0.27,0.03-0.27-0.35-0.24C81.09,59.13,81.25,59.15,81.44,59.11z M92.91,39.63
			c0.48,0.06,0.48,0.06,0.47-0.27c-0.17,0.1-0.32,0.19-0.46,0.29c-0.09,0.16-0.36,0.28-0.03,0.6C92.9,39.98,92.9,39.8,92.91,39.63z
			 M114.18,101.29c0.05,0.09,0.1,0.19,0.15,0.28c0.03-0.03,0.06-0.06,0.09-0.08c-0.08-0.06-0.17-0.12-0.25-0.19
			c0.02-0.11,0.04-0.22,0.06-0.33c-0.04-0.01-0.07-0.02-0.11-0.03c-0.06,0.13-0.13,0.26-0.23,0.47
			C114.05,101.34,114.12,101.31,114.18,101.29z M38.48,135.16c0.1,0.09,0.18,0.34,0.4,0.02c-0.18,0-0.3,0-0.42,0
			c-0.26-0.39-0.26-0.39-0.64-0.06C38.07,135.13,38.27,135.14,38.48,135.16z M126.13,68.6c-0.5,0.04-0.13-0.44-0.35-0.6
			c-0.2,0.13-0.39,0.25-0.58,0.37C125.52,68.92,125.6,68.94,126.13,68.6c-0.02,0.3-0.48,0.49-0.24,0.94
			c0.21-0.1,0.49-0.14,0.55-0.28c0.08-0.18-0.01-0.44-0.02-0.64C126.29,68.61,126.21,68.6,126.13,68.6z M44.61,79.35
			c0.12,0.07,0.23,0.17,0.36,0.22c0.42,0.15,0.78-0.18,0.73-0.7c-0.39,0.11-0.83,0.06-1.07,0.5c-0.13,0.03-0.26,0.06-0.41,0.1
			c0.08,0.1,0.14,0.17,0.2,0.24c0.05,0.06,0.11,0.13,0.24,0.28C44.63,79.69,44.62,79.52,44.61,79.35z M44.44,134.58
			c0.11,0.09,0.21,0.18,0.35,0.29c0.05-0.12,0.08-0.2,0.13-0.33c-0.21,0.02-0.35,0.04-0.5,0.05c0.19-0.17,0.37-0.34,0.62-0.57
			c-0.2-0.06-0.32-0.1-0.35-0.11c0.23-0.09,0.52-0.2,0.82-0.31c0.01,0.18,0.02,0.37,0.03,0.62c0.29-0.14,0.5-0.24,0.76-0.36
			c-0.18-0.13-0.29-0.22-0.4-0.3c0.21-0.11,0.39-0.19,0.59-0.29c0.12,0.18,0.27,0.33,0.48,0.16c0.26-0.21,0.53-0.24,0.83-0.14
			c0.07,0.02,0.19,0.02,0.21-0.02c0.16-0.23,0.5-0.21,0.61-0.51c0.04-0.12,0.18-0.23,0.3-0.28c0.38-0.16,0.62-0.59,1.11-0.58
			c0.09,0,0.19-0.18,0.27-0.29c0.32-0.47,0.35-0.48,0.77-0.23c0.24-0.1,0.43-0.25,0.62-0.24c0.49,0.03,0.82-0.22,1.14-0.51
			c0.82,0.38,1.32,0.32,1.76-0.27c0.11,0.06,0.23,0.11,0.34,0.19c0.09,0.07,0.15,0.2,0.24,0.25c0.11,0.06,0.25,0.05,0.37,0.07
			c0.01-0.15,0.07-0.31,0.01-0.43c-0.05-0.11-0.22-0.15-0.26-0.18c0.04-0.69,0.88-0.71,0.79-1.36c0.54,0.15,0.25-0.46,0.55-0.55
			c0.13,0.02,0.27,0.05,0.32,0.06c0.24-0.46,0.4-0.9,0.68-1.24c0.3-0.36,0.35-0.64-0.03-1.02c0.3-0.22,0.56-0.4,0.91-0.65
			c0.09,0.35,0.15,0.58,0.2,0.8c0.15-0.09,0.3-0.19,0.51-0.31c0,0.26,0,0.46,0,0.71c0.17-0.22,0.29-0.39,0.42-0.55
			c0.03,0.02,0.05,0.03,0.08,0.05c-0.04,0.53-0.07,1.05-0.12,1.63c0.5-0.24,0.71-0.62,0.91-1.03c0.05,0.01,0.1,0.03,0.14,0.04
			c0.14,0.54,0.28,1.08,0.4,1.56c0.14-0.01,0.36-0.1,0.48-0.03c0.26,0.16,0.47,0.4,0.69,0.6c-0.07,0.3-0.41,0.49-0.18,0.8
			c0.37-0.13,0.89-0.11,1.17,0.15c0.29,0.27,0.58,0.34,0.94,0.29c0.08,0.17,0.13,0.32,0.21,0.45c0.09,0.15,0.3,0.16,0.34,0.03
			c0.13-0.39,0.48-0.37,0.76-0.46c0.67-0.22,1.24-0.51,1.19-1.36c-0.01-0.17,0.06-0.35,0.11-0.52c0.24-0.87,0.06-1.8,0.41-2.66
			c0.07-0.16-0.01-0.39-0.03-0.58c-0.01-0.09-0.06-0.19-0.04-0.27c0.1-0.35,0.24-0.7,0.33-1.05c0.15-0.58-0.45-1.23-0.97-1.01
			c-0.59,0.25-1.04-0.07-1.57-0.15c0.08-0.12,0.14-0.18,0.16-0.25c0.01-0.05-0.01-0.13-0.05-0.16c-0.05-0.05-0.14-0.1-0.2-0.1
			c-0.11,0.01-0.24,0.03-0.33,0.09c-0.12,0.09-0.19,0.26-0.32,0.32c-0.12,0.06-0.35-0.02-0.42,0.06c-0.37,0.39-0.87,0.31-1.32,0.38
			c-0.25,0.04-0.51-0.01-0.77,0c-0.49,0.02-0.99,0.09-1.15-0.56c-0.45,0.38-0.85,0.62-1.35,0.17c-0.08-0.07-0.27-0.03-0.4-0.01
			c-0.27,0.04-0.53,0.11-0.76,0.16c0,0.26,0,0.49,0,0.72c0.19,0.01,0.4,0.02,0.72,0.04c-0.16,0.18-0.22,0.28-0.31,0.33
			c-0.43,0.22-0.41,0.21-0.39,0.69c0.01,0.16-0.11,0.33-0.17,0.5c-0.21-0.3-0.37-0.48-0.71-0.29c0.02,0.15,0.04,0.28,0.06,0.42
			c-0.71,0.16-1.4,0.38-2.09,0.46c-0.37,0.04-0.73,0.03-1.08,0.19c-0.27,0.13-0.54,0.25-0.83,0.32c-1.11,0.27-2.01,0.96-2.94,1.55
			c-0.86,0.56-1.66,1.21-2.47,1.85c-0.47,0.37-0.94,0.75-1.35,1.18c-0.61,0.64-1.18,1.32-1.75,2c-0.22,0.26-0.43,0.54-0.66,0.8
			c-0.2,0.23-0.61,0.45-0.38,0.91c0.11,0.06,0.23,0.13,0.38,0.21c-0.18,0.13-0.47,0.05-0.42,0.44c0.27-0.02,0.54-0.04,0.81-0.07
			C44.44,134.77,44.44,134.68,44.44,134.58z M51.76,77.13c0.5-0.35,0.65-0.88,0.71-1.48c-0.15-0.05-0.32-0.1-0.59-0.18
			c0.33-0.13,0.57-0.21,0.8-0.31c0.33-0.14,0.64-0.36,0.98-0.4c0.32-0.04,0.5-0.18,0.67-0.41c0.18-0.23,0.34-0.54,0.58-0.65
			c0.47-0.2,0.99-0.27,1.48-0.4c0.56-0.16,1.26,0.06,1.65-0.64c0.14,0.15,0.24,0.25,0.36,0.39c-0.04-0.56-0.04-0.55,0.43-0.75
			c0.12-0.05,0.23-0.15,0.35-0.22c0.24-0.12,0.48-0.28,0.73-0.35c0.43-0.11,0.88-0.17,1.3-0.25c0.1-0.21,0.01-0.52,0.39-0.43
			c0.07,0.02,0.18-0.14,0.26-0.22c0.25-0.27,0.48-0.57,0.76-0.8c0.16-0.13,0.36-0.34,0.64-0.12c0.07,0.06,0.24,0.06,0.34,0.02
			c0.43-0.16,0.8-0.08,1.18,0.16c0.21,0.14,0.43,0.03,0.4-0.22c-0.03-0.32,0.14-0.47,0.34-0.63c0.69,0.42,0.96-0.41,1.48-0.48
			c-0.02,0.11-0.03,0.22-0.05,0.32c0.37,0.16,0.67-0.01,0.93-0.15c0.15-0.08,0.32-0.33,0.3-0.48c-0.06-0.54,0.27-0.79,0.65-1.03
			c0.38-0.24,0.42-0.49,0.14-0.84c-0.61-0.78-1.03-1.67-1.51-2.53c-0.27-0.49-0.45-1.04-0.69-1.55c-0.08-0.17-0.21-0.32-0.32-0.47
			c-0.36-0.51-0.72-1.03-1.1-1.58c-0.13,0.01-0.29-0.01-0.44,0.05c-0.65,0.25-1.29,0.51-1.93,0.79c-0.32,0.14-0.71,0.1-0.95,0.41
			c-0.45-0.12-0.83,0.18-1.1,0.18c-0.3,0.28-0.48,0.51-0.72,0.65c-0.64,0.38-1.31,0.72-1.97,1.07c-0.1,0.05-0.22,0.09-0.33,0.12
			c-0.64,0.19-1.39,0.18-1.72,0.94c-0.03,0.06-0.14,0.08-0.19,0.13c-0.36,0.33-0.8,0.49-1.24,0.68c-0.66,0.29-1.28,0.66-2.01,0.76
			c-0.05,0.01-0.12,0.05-0.15,0.09c-0.32,0.49-0.87,0.63-1.33,0.91c-0.57,0.35-1.17,0.67-1.79,0.91c-0.52,0.2-0.97,0.67-1.63,0.42
			c-0.24,1.03-1.25,0.96-1.89,1.43c-0.04,0.42,0.09,0.91-0.44,1.17c-0.07-0.11-0.13-0.19-0.18-0.27c-0.34,0.23-0.64,0.45-0.97,0.68
			c0.09,0.39-0.16,0.63-0.49,0.83c-0.2,0.13-0.37,0.3-0.58,0.42c-0.15,0.08-0.33,0.1-0.49,0.15c-0.18,0.06-0.41,0.06-0.54,0.18
			c-0.38,0.31-0.71,0.67-1.08,0.99c-0.12,0.1-0.28,0.15-0.4,0.25c-0.69,0.5-1.38,1-2.06,1.5c-0.01,0.01-0.02,0.04-0.03,0.05
			c-0.36,0.37-0.68,0.78-1.09,1.09c-0.55,0.42-1.07,0.82-1.52,1.37c-0.67,0.82-1.52,1.5-2.27,2.25c-0.18,0.18-0.28,0.43-0.43,0.63
			c-0.14,0.19-0.29,0.37-0.45,0.54c-0.08,0.09-0.2,0.13-0.26,0.23c-0.26,0.42-0.49,0.86-0.75,1.28c-0.14,0.23-0.37,0.43-0.43,0.68
			c-0.08,0.36-0.3,0.59-0.51,0.86c-0.12,0.15-0.22,0.34-0.29,0.52c-0.25,0.65-0.47,1.3-0.72,1.95c-0.17,0.46-0.41,0.89-0.54,1.36
			c-0.17,0.58-0.38,1.2,0.22,1.69c0.04,0.03,0.06,0.1,0.08,0.12c0.28-0.05,0.51-0.1,0.76-0.15c0.1,0.33,0.25,0.54,0.58,0.58
			c0.14,0.02,0.26,0.17,0.4,0.24c0.22,0.12,0.44,0.26,0.68,0.31c0.28,0.06,0.59,0.03,0.88,0.04c0.49,0.02,0.97,0.07,1.26,0.56
			c0.06,0.1,0.21,0.2,0.34,0.22c0.33,0.06,0.66,0.12,0.99,0.11c0.45-0.02,0.8,0.21,1.16,0.42c0.26,0.15,0.5,0.33,0.78,0.42
			c0.41,0.14,0.84,0.22,1.25,0.33c0.25,0.06,0.49,0.2,0.74,0.2c0.68,0,1.33,0.22,1.93,0.46c0.63,0.25,1.29,0.38,1.93,0.6
			c0.46,0.16,0.89,0.42,1.34,0.63c0.03,0.41,0.36,0.44,0.65,0.55c0.11,0.04,0.19,0.15,0.29,0.21c0.24,0.14,0.46,0.33,0.72,0.4
			c1.17,0.3,2.29,0.81,3.51,0.93c0.35,0.03,0.7,0.15,1.04,0.24c0.65,0.17,1.3,0.34,1.97,0.52c0.04-0.42-0.03-0.84,0.13-1.14
			c0.26-0.5,0.17-0.98,0.18-1.48c0-0.57-0.04-1.15,0.01-1.72c0.05-0.5,0.03-1.03,0.38-1.48c-0.19-0.41-0.39-0.82-0.57-1.21
			c-0.2,0.1-0.37,0.26-0.52,0.24c-0.17-0.02-0.33-0.18-0.49-0.29c-0.11,0.08-0.2,0.15-0.3,0.22l0,0.01
			c-0.07-0.46-0.36-0.63-0.79-0.53c-0.03-0.16-0.06-0.27-0.08-0.39c-0.23,0.03-0.43,0.05-0.7,0.08c0.1-0.11,0.15-0.15,0.16-0.2
			c0.03-0.12,0.05-0.25,0.07-0.38c-0.12-0.02-0.24-0.03-0.36-0.05c-0.09-0.01-0.22,0.02-0.27-0.03c-0.24-0.23-0.5-0.2-0.81-0.03
			c-0.2-0.26-0.38-0.52-0.58-0.76c-0.18-0.21-0.34-0.52-0.57-0.58c-0.62-0.17-1.12-0.55-1.64-0.87c-1-0.63-1.64-1.61-2.25-2.63
			c-0.16,0.08-0.31,0.15-0.45,0.22c-0.28-0.39,0.12-0.64,0.17-0.95c-0.4-0.21-0.3,0.34-0.57,0.3c-0.28-0.2-0.27-0.2-0.23-0.43
			c0.03-0.16,0.23-0.3,0.04-0.49c-0.02-0.02,0.07-0.23,0.16-0.28c0.34-0.19,0.5-0.5,0.65-0.83c0.28-0.59,0.19-0.75-0.49-0.78
			c-0.12,0.22,0.06,0.54-0.26,0.77c0.09-0.47-0.15-0.87,0.09-1.27c-0.22-0.04-0.45,0.23-0.55-0.14c0.12-0.12,0.45-0.09,0.35-0.43
			c-0.13-0.05-0.27-0.11-0.41-0.17c0.29-0.08,0.46-0.56,0.85-0.13c-0.1-0.46,0.36-0.64,0.26-0.93c0.48-0.5,1.2-0.5,1.63-1.04
			c0.4,0.27,0.57-0.04,0.79-0.4c0.04,0.38,0.03,0.75,0.34,0.98c0.57-0.16,0.57-0.16,0.73,0.33c0.46-0.21,0.91-0.41,1.31-0.83
			c-0.46-0.24-0.84-0.31-1.3-0.09c0.04-0.2,0.07-0.31,0.1-0.45c-0.15,0-0.26,0-0.47,0c0.28-0.4,0.68-0.24,0.92-0.42
			c0.23,0.25,0.46,0.36,0.83,0.34c0-0.36,0-0.69,0-1.05c0.12-0.05,0.46,0.19,0.41-0.21c0.24,0.12,0.46,0.24,0.65,0.34
			c0.08-0.06,0.13-0.08,0.14-0.11c0.03-0.09,0.04-0.19,0.05-0.28c0.4-0.07,0.85-0.06,1.05-0.6c0.3,0.53,0.58-0.02,0.94-0.01
			C51.71,76.44,51.74,76.79,51.76,77.13c-0.06-0.12-0.09-0.27-0.17-0.37c-0.09-0.12-0.21-0.25-0.33-0.28
			c-0.09-0.02-0.28,0.11-0.31,0.21c-0.05,0.15-0.07,0.37,0.01,0.5c0.13,0.21,0.35,0.38,0.59,0.61c-0.01-0.15-0.01-0.25-0.02-0.36
			C51.51,77.27,51.55,77.14,51.76,77.13z M116.05,72.8c0.14,0.3,0.28,0.61,0.45,0.96c0.26-0.59,0.19-0.72-0.47-0.95
			c0.19-0.09,0.38-0.18,0.59-0.29c-0.05-0.1-0.08-0.22-0.13-0.22c-0.44-0.08-0.55-0.73-1.1-0.63c-0.04,0.01-0.11-0.11-0.15-0.17
			c-0.25-0.4-0.57-0.78-0.72-1.22c-0.13-0.38-0.44-0.79-0.19-1.25c-0.16-0.3-0.03-0.6-0.01-0.9c0.01-0.13-0.03-0.3-0.11-0.39
			c-0.34-0.41-0.43-0.9-0.53-1.4c-0.03-0.13-0.05-0.29-0.13-0.38c-0.28-0.35-0.34-0.76-0.31-1.18c0.02-0.31,0-0.55-0.3-0.77
			c-0.33-0.24-0.64-0.54-0.85-0.88c-0.29-0.47-0.71-0.43-1.14-0.47c-0.01-0.09-0.02-0.18-0.03-0.29c-0.35,0.01-0.53,0.21-0.69,0.44
			c-0.34,0.5-0.51,1.12-1.03,1.33c0.02,0.27,0.06,0.44,0.04,0.6c-0.04,0.25-0.07,0.53-0.21,0.74c-0.23,0.35-0.26,0.8-0.68,1.07
			c-0.28,0.18-0.38,0.58-0.34,0.97c0.03,0.31-0.01,0.63-0.02,0.95c-0.01,0.2-0.02,0.41-0.03,0.54c-0.23,0.11-0.42,0.21-0.61,0.3
			c0.04,0.12,0.05,0.19,0.08,0.23c0.35,0.45,0.33,0.7,0.03,1.19c-0.18,0.28-0.53,0.48-0.47,0.91c0.02,0.18-0.19,0.25-0.4,0.23
			c-0.51-0.05-1.02-0.02-1.53-0.1c-0.34-0.05-0.67-0.22-1.01-0.33c-0.09-0.03-0.19,0-0.31,0c-0.06,0.15-0.12,0.29-0.2,0.48
			c-0.39,0-0.77,0-1.18,0c-0.13,0.29-0.35,0.48-0.75,0.45c-0.23-0.02-0.47,0.06-0.7,0.08c-0.6,0.05-1.21,0.12-1.81,0.12
			c-0.35,0-0.69-0.19-1.04-0.18c-0.64,0.02-1.28,0.12-1.94,0.18c0.01,0.16,0.02,0.29,0.04,0.44c-0.49,0.05-0.96,0.11-1.44,0.16
			c0.13,0.32,0.13,0.32,0.49,0.56c-0.02,0.14-0.11,0.38-0.05,0.43c0.31,0.25,0.27,0.56,0.26,0.89c-0.01,0.12,0.16,0.25,0.27,0.36
			c0.07,0.07,0.2,0.08,0.25,0.15c0.36,0.54,0.75,1.06,1.05,1.64c0.17,0.33,0.39,0.59,0.68,0.78c0.47,0.29,0.72,0.85,1.29,1.01
			c0.05,0.01,0.09,0.08,0.12,0.13c0.28,0.56,0.81,0.8,1.35,0.98c0.3,0.1,0.48,0.23,0.56,0.52c0.01,0.03,0.06,0.05,0.1,0.07
			c0.1-0.05,0.2-0.1,0.21-0.11c1,0.5,1.93,0.97,2.89,1.45c-0.01,0.06-0.04,0.16-0.06,0.27c0.37,0.08,1.18,0.67,1.22,0.99
			c0.06,0.5,0.44,0.64,0.77,0.87c-0.04,0.08-0.09,0.16-0.13,0.23c0.14,0.13,0.27,0.26,0.41,0.39c-0.08,0.05-0.1,0.07-0.12,0.06
			c-0.92-0.25-1.84-0.51-2.76-0.77c-0.05-0.01-0.13-0.04-0.14-0.09c-0.14-0.33-0.38-0.21-0.6-0.13c-0.13,0.05-0.26,0.09-0.41,0.15
			c-0.06-0.12-0.1-0.24-0.17-0.32c-0.26-0.32-0.55-0.61-0.98-0.69c-0.02,0-0.05,0.04-0.06,0.05c0.08,0.12,0.17,0.23,0.31,0.43
			c-0.43,0.05-0.76,0.1-1.09,0.13c-0.07,0.01-0.17-0.02-0.22-0.07c-0.41-0.47-1.03-0.52-1.55-0.77c-0.3-0.14-0.65-0.17-0.69-0.65
			c-0.18,0.13-0.29,0.22-0.34,0.26c-0.26-0.18-0.48-0.32-0.71-0.48c0.09-0.13,0.17-0.24,0.26-0.38c-0.3-0.17-0.32,0.06-0.43,0.19
			c-0.11,0.14-0.27,0.24-0.34,0.3c-1.07-0.37-1.51-1.29-2.15-1.98c-0.51-0.55-0.88-1.24-1.3-1.86c-0.69,0.21-0.69,0.21-0.95-0.34
			c-0.03-0.07-0.08-0.14-0.13-0.19c-0.65-0.58-1.26-1.19-1.6-2.03c-0.03-0.09-0.15-0.14-0.2-0.22c-0.18-0.28-0.36-0.57-0.53-0.85
			c-0.18-0.3-0.34-0.6-0.51-0.92c-0.16,0.07-0.25,0.11-0.34,0.14c-0.09,0.02-0.19,0.03-0.34,0.05c0.03-0.15,0.05-0.25,0.07-0.36
			c-0.45-0.3-0.45-0.3-1.06,0.12c0,0.12,0,0.26,0,0.39c-0.59-0.04-0.61-0.03-0.63,0.33c0.18,0.06,0.36,0.12,0.5,0.17
			c-0.08,0.24-0.21,0.42-0.17,0.55c0.2,0.6,0,1.2,0.04,1.8c0.02,0.33-0.29,0.61-0.25,0.98c0,0.02-0.16,0.07-0.27,0.12
			c0.35,0.56-0.01,0.98-0.23,1.42c-0.01,0.03-0.07,0.03-0.12,0.06c-0.05-0.09-0.1-0.18-0.17-0.29c-0.16,0.15-0.31,0.28-0.48,0.44
			c0.23,0.16,0.42,0.29,0.62,0.43c-0.12,0.11-0.22,0.2-0.32,0.29c0.1,0.14,0.19,0.26,0.27,0.38c-0.16,0.14-0.29,0.26-0.41,0.37
			c0.13,0.37,0.26,0.71,0.35,1.06c0.03,0.1-0.08,0.25-0.15,0.36c-0.15,0.24-0.39,0.4-0.22,0.78c0.12,0.28-0.18,0.59-0.54,0.71
			c0.15-0.33-0.02-0.56-0.26-0.8c-0.15,0.2-0.33,0.34-0.22,0.6c0.1,0.24,0.29,0.24,0.49,0.18c0.13,0.1,0.25,0.19,0.27,0.21
			c0.12,0.42-0.3,0.47-0.24,0.76c0.05,0.25,0.05,0.51,0.07,0.76c-0.02,0-0.05,0-0.07,0c-0.05-0.1-0.09-0.2-0.14-0.3
			c-0.36,0.2-0.36,0.2-0.31,1.65c-0.07-0.06-0.13-0.13-0.2-0.19c-0.32,0.18-0.43,0.38-0.29,0.74c0.07,0.18-0.01,0.42-0.04,0.63
			c-0.02,0.13-0.06,0.26-0.09,0.39c-0.22,0.7-0.16,1.5-0.67,2.11c-0.08,0.1-0.14,0.29-0.1,0.39c0.16,0.44-0.18,0.9,0.05,1.33
			c0.01,0.02-0.04,0.07-0.03,0.06c-0.2,0.08-0.37,0.15-0.54,0.22c0.1,0.19,0.2,0.39,0.35,0.69c-0.13,0.28-0.25,0.72-0.52,1.03
			c-0.24,0.27-0.34,0.45-0.1,0.74c-0.62,0.13-0.61,0.13-0.44,0.67c0.02,0.07,0.02,0.16,0.03,0.24l0.02-0.02
			c-0.07,0.04-0.2,0.11-0.19,0.12c0.11,0.27,0.23,0.52,0.36,0.82c-0.06,0.04-0.16,0.1-0.27,0.17c0.08,0.1,0.14,0.17,0.2,0.23
			c-0.36,0.31-0.86,0.45-0.8,1.03c0.01,0.1-0.05,0.23-0.11,0.32c-0.17,0.26-0.35,0.52-0.54,0.8c0.15,0.26,0.46,0.52,0.19,0.89
			c-0.25,0.08-0.5,0.15-0.75,0.23c0.04,0.42,0.37,0.14,0.52,0.28c-0.01,0.16-0.02,0.31-0.03,0.47c0.1,0.04,0.17,0.1,0.24,0.09
			c0.39-0.03,0.77-0.26,1.17-0.01c0.04,0.03,0.14-0.05,0.22-0.07c0.11-0.03,0.23-0.09,0.34-0.08c0.52,0.07,1.02,0.09,1.51-0.14
			c-0.08-0.28-0.01-0.43,0.3-0.43c0.31,0,0.62-0.09,0.94-0.08c0.34,0.01,0.68-0.11,1.02,0.14c0.18,0.13,0.43,0.35,0.69,0.08l-0.02,0
			c0.15,0.03,0.31,0.06,0.47,0.1c0.01,0.15,0.02,0.3,0.02,0.49c0.35-0.15,0.56-0.42,0.94-0.42c0.47-0.01,0.89,0.24,1.36,0.15
			c0.04-0.01,0.1,0.05,0.15,0.09c0.57,0.39,0.96,0.38,1.47-0.03c0.05,0.03,0.11,0.05,0.15,0.09c0.59,0.54,0.91,0.55,1.43-0.04
			c0.21-0.24,0.44-0.27,0.77-0.29c-0.1,0.23-0.18,0.42-0.26,0.6c0.07,0.05,0.1,0.09,0.14,0.09c0.4,0.02,0.8,0.04,1.19,0.06
			c0.27,0.01,0.49-0.06,0.56-0.37c0.16,0.07,0.28,0.12,0.38,0.16c0.14-0.13,0.25-0.23,0.4-0.36c0.3,0.55,0.84,0.38,1.26,0.44
			c0.35,0.05,0.73-0.22,1.12,0.01c0.06,0.03,0.18-0.06,0.27-0.08c0.11-0.03,0.23-0.06,0.34-0.05c0.5,0.04,0.99,0.14,1.46-0.13
			c-0.04-0.2-0.06-0.47,0.22-0.41c0.43,0.09,0.83-0.03,1.23-0.12c0.49-0.11,0.8,0.28,1.23,0.33c0.01,0,0.01,0.01,0.01,0.04
			c0.23-0.02,0.47-0.04,0.7-0.06c0.02,0.2,0.04,0.36,0.05,0.47c0.39-0.12,0.73-0.28,1.08-0.32c0.24-0.03,0.51,0.17,0.75,0.14
			c0.35-0.04,0.61,0.06,0.84,0.34c0.9-1.02,2.05-1.28,3.31-1.16c0.32,0.03,0.61-0.01,0.85-0.17c0.33-0.22,0.66-0.26,1.05-0.28
			c0.38-0.02,0.74-0.25,1.11-0.39c0.03-0.01,0.08-0.01,0.12,0c0.51,0.18,0.93-0.02,1.34-0.29c0.47,0.15,0.9,0.25,1.4,0.06
			c0.31-0.12,0.7-0.01,0.9-0.4c0.02-0.04,0.12-0.02,0.17-0.05c0.23-0.12,0.45-0.26,0.74-0.42c0.04,0,0.18,0.02,0.31,0
			c0.31-0.07,0.59-0.39,0.94-0.07c0.03,0.03,0.16-0.02,0.21-0.07c0.14-0.13,0.24-0.05,0.37,0.02c0.12,0.07,0.25,0.11,0.39,0.17
			c0.26-0.17,0.54-0.29,0.74-0.49c0.34-0.33,0.77-0.32,1.15-0.27c0.31,0.05,0.56,0.04,0.78-0.12c0.26-0.19,0.52-0.23,0.83-0.26
			c0.53-0.05,1.04-0.15,1.54-0.4c0.42-0.21,0.82-0.44,1.23-0.65c0.87-0.45,1.66-1.05,2.58-1.39c0.04-0.01,0.06-0.05,0.1-0.07
			c0.25-0.11,0.49-0.24,0.75-0.32c0.22-0.07,0.45-0.09,0.58-0.11c0.1-0.26,0.11-0.51,0.24-0.59c0.24-0.14,0.32-0.31,0.32-0.56
			c0-0.05,0.11-0.1,0.17-0.16c0.04,0.11,0.08,0.23,0.15,0.41c0.14-0.3-0.06-0.32-0.17-0.4c0.31-0.21,1.1-1.23,1.27-1.68
			c0.2-0.53,0.51-0.84,1.12-0.73c0.05,0.01,0.11-0.04,0.2-0.08c0.02-0.45-0.04-0.94,0.36-1.31c0.08-0.07-0.04-0.36,0.19-0.48
			c0.02-0.01-0.01-0.13-0.02-0.2c-0.01-0.08-0.06-0.18-0.04-0.25c0.17-0.43,0.46-0.8,0.47-1.29c0.01-0.24,0.12-0.51,0.27-0.7
			c0.18-0.23,0.18-0.43,0.11-0.69c-0.04-0.12-0.01-0.27,0-0.4c0.02-0.24,0.11-0.49,0.07-0.71c-0.06-0.31,0-0.53,0.21-0.74
			c0.1-0.09,0.18-0.21,0.24-0.33c0.1-0.18,0.07-0.34-0.12-0.45c-0.09,0.1-0.16,0.17-0.24,0.27c-0.19-0.54-0.17-0.59,0.33-0.82
			c0.08-0.5,0.3-0.99,0.02-1.5c-0.02-0.03-0.01-0.09,0.01-0.11c0.25-0.31,0.05-0.64,0.02-0.96c-0.03-0.39-0.1-0.78-0.19-1.16
			c-0.1-0.42-0.33-0.82-0.36-1.25c-0.03-0.39-0.19-0.63-0.46-0.84c-0.22-0.17-0.32-0.38-0.29-0.67c0.01-0.09-0.02-0.19-0.04-0.28
			c-0.15-0.55-0.3-1.1-0.46-1.66c-0.11,0.05-0.21,0.09-0.31,0.14c-0.14-0.15-0.26-0.3-0.39-0.44c-0.23-0.24-0.46-0.49-0.7-0.72
			c-0.21-0.21-0.25-0.43-0.08-0.72c0.17,0.05,0.33,0.1,0.53,0.15c0.1-0.21,0.19-0.39,0.27-0.57c0.09,0.04,0.19,0.08,0.37,0.17
			c-0.02-0.33-0.04-0.58-0.06-0.88c-0.26,0.14-0.45,0.24-0.61,0.33c-0.1,0.18,0.15,0.51-0.33,0.5c0.02-0.21,0.04-0.4,0.06-0.69
			c-0.5-0.17-1.01-0.35-1.52-0.52c0.12-0.04,0.23-0.09,0.35-0.13c0-0.04,0-0.07,0-0.11c-0.11-0.03-0.22-0.06-0.33-0.1
			c0,0.12,0,0.24-0.01,0.35c-0.43-0.09-0.87-0.15-1.27-0.3c-0.17-0.06-0.31-0.29-0.38-0.48c-0.03-0.07,0.18-0.23,0.29-0.35
			c-0.08-0.11-0.16-0.28-0.29-0.38c-0.13-0.09-0.32-0.12-0.49-0.15c-0.04-0.01-0.16,0.13-0.15,0.15c0.08,0.12,0.18,0.22,0.27,0.33
			c0.03,0.04,0.06,0.09,0.14,0.21c-0.64,0.2-1.24,0.39-1.89,0.6c0.08,0.21,0.1,0.47-0.2,0.61c-0.25,0.11-0.48,0.16-0.73-0.12
			c0.17-0.08,0.29-0.15,0.49-0.25c-0.25-0.27-0.47-0.5-0.72-0.76c-0.09,0.22-0.12,0.37-0.21,0.46c-0.09,0.1-0.25,0.13-0.35,0.19
			c0.15,0.18,0.3,0.36,0.51,0.62c-1.09,0.02-2.05,0.22-2.98-0.21c-0.17,0.25-0.63,0.24-0.61,0.66c-0.43,0.03-0.31,0.53-0.63,0.72
			c-0.03-0.17-0.06-0.32-0.1-0.5c-0.25,0.23-0.25,0.23-0.13,0.63c-0.67,0.36-0.87,1.04-1.11,1.7c-0.18,0-0.36,0-0.57,0
			c0.07,0.41-0.25,0.41-0.58,0.47c0.11,0.28,0.19,0.5,0.32,0.82c-0.2-0.14-0.32-0.22-0.43-0.29c-0.37,0.17-0.33,0.74-0.83,0.67
			c0.01,0.18-0.03,0.35,0.04,0.45c0.35,0.49,0.05,0.85-0.2,1.22c-0.06,0.09-0.14,0.17-0.27,0.32c0.24,0.14,0.49,0.21,0.61,0.37
			c0.43,0.56,1.03,0.79,1.66,0.98c0.15,0.05,0.28,0.15,0.43,0.21c0.2,0.08,0.4,0.15,0.6,0.2c0.22,0.06,0.52-0.09,0.64,0.25
			c0.01,0.02,0.2-0.03,0.31-0.05c0.62,0.76,0.62,0.76,1.61,1.17c0.07,0.03,0.14,0.09,0.21,0.12c0.38,0.16,0.77,0.3,1.16,0.46
			c0.11,0.05,0.21,0.11,0.34,0.19c-0.39,0.31-0.77,0.12-1.12,0.11c-0.18,0.45-0.18,0.45-0.6,0.38c-0.02,0.1-0.04,0.21-0.08,0.37
			c-0.19-0.31-0.34-0.54-0.49-0.78c-0.05,0.01-0.1,0.02-0.15,0.03c-0.02,0.21-0.04,0.42-0.06,0.64c-0.05,0.01-0.12,0.03-0.17,0.02
			c-0.41-0.1-0.82-0.22-1.23-0.31c-0.09-0.02-0.21-0.02-0.29,0.02c-0.33,0.17-0.66,0.01-0.99,0.01c-0.3,0-0.41-0.33-0.6-0.31
			c-0.55,0.06-0.93-0.27-1.33-0.48c-0.49,0.17-1.14-0.05-1.47-0.38c-0.35-0.36-0.77-0.65-1.21-1.01c-0.06,0.24-0.1,0.38-0.13,0.48
			c-0.18-0.11-0.33-0.28-0.48-0.29c-0.41-0.01-0.63-0.3-0.91-0.52c0.07-0.22,0.13-0.42,0.19-0.62c-0.42-0.22-0.53-0.39-0.37-0.63
			c0.1,0.01,0.21,0.01,0.36,0.02c0.04-0.23,0.07-0.47,0.4-0.52c0.01-0.04,0.01-0.08,0.02-0.12c-0.16-0.12-0.31-0.23-0.49-0.37
			c0.05-0.14,0.1-0.29,0.15-0.42c0.62-0.07,0.69-0.15,0.55-0.69c-0.05-0.19-0.07-0.34,0.09-0.49c0.06-0.06,0.07-0.16,0.11-0.25
			c-0.02-0.03-0.04-0.06-0.07-0.1c-0.33,0.15-0.66,0.29-0.99,0.44c-0.12-0.18-0.23-0.34-0.39-0.58c0.79-0.25,1.31-0.76,1.52-1.54
			c-0.09-0.09-0.16-0.17-0.28-0.3C115.37,73.52,115.71,73.16,116.05,72.8z M76.49,48.64c-0.06,0.07-0.15,0.14-0.18,0.22
			c-0.02,0.07,0.02,0.17,0.05,0.25c0.01,0.01,0.14,0.01,0.15-0.01c0.04-0.08,0.06-0.17,0.05-0.25
			C76.55,48.78,76.51,48.71,76.49,48.64c0.26,0.01,0.53,0.02,0.78,0.02c-0.01,0.55-0.54,0.61-0.72,0.92
			c0.27,0.09,0.49,0.18,0.73,0.23c0.13,0.03,0.33,0.02,0.39-0.05c0.18-0.21,0.38-0.18,0.62-0.19c0.36-0.03,0.7-0.01,1.06,0.03
			c0.14,0.01,0.29-0.11,0.5-0.2c0.07,0.12,0.24,0.28,0.25,0.46c0.03,0.41,0.25,0.48,0.6,0.47c0.15,0,0.43,0.08,0.45,0.18
			c0.13,0.56,0.59,0.51,0.99,0.59c0.07,0.02,0.15,0.03,0.23,0.05c0,0.16,0,0.29,0,0.4c0.29,0.24,0.54,0.49,0.83,0.66
			c0.18,0.1,0.32,0.17,0.42,0.37c0.2,0.4,0.56,0.6,1.02,0.69c0.09-0.21,0.17-0.4,0.24-0.58c0.19-0.04,0.36-0.08,0.59-0.13
			c-0.37-0.47-0.2-0.85,0.07-1.23c-0.15,0.24-0.22,0.46,0.16,0.61c0.06-0.15,0.13-0.27,0.15-0.4c0.04-0.28-0.11-0.3-0.32-0.19
			c-0.06-0.45,0.19-0.78,0.43-1.14c0.2,0.06,0.39,0.12,0.6,0.18c0.03-0.25,0.06-0.46,0.08-0.66c0.12-0.05,0.23-0.09,0.34-0.14
			c-0.15-0.16-0.29-0.19-0.43-0.23c-0.22-0.06-0.33-0.2-0.32-0.44c0.01-0.32,0-0.63,0.02-0.95c0.02-0.3,0.12-0.34,0.49-0.26
			c0.03,0.01,0.07-0.02,0.12-0.03c-0.01-0.11-0.02-0.22-0.03-0.33c-0.19-0.04-0.34-0.07-0.5-0.11c0.22-0.54,0.41-1.02,0.72-1.45
			c0.31-0.44,0.27-1.05,0.67-1.54c0.05,0.23,0.07,0.36,0.11,0.54c0.38-0.55,0-0.94-0.16-1.34c-0.15-0.37-0.15-0.54,0.16-0.72
			c0.21-0.13,0.31-0.28,0.34-0.52c0.02-0.17,0.08-0.35,0.14-0.51c0.14-0.39,0.08-0.74-0.2-1.04c-0.02-0.02-0.02-0.07-0.02-0.07
			c0.09-0.15,0.17-0.28,0.25-0.42c-0.15-0.11-0.27-0.19-0.41-0.3c0.42-0.36,0.39-0.76,0.23-1.18c-0.19-0.51-0.38-1.01-0.1-1.56
			c0.03-0.07-0.02-0.18-0.03-0.27c-0.03-0.84,0-1.69,0.11-2.53c0-0.02,0.06-0.04,0.1-0.06c0.14,0.19,0.05,0.54,0.37,0.6
			c0.1-0.21,0.18-0.41,0.27-0.6c0.09-0.19,0.18-0.38,0.28-0.6c-0.21-0.12-0.37-0.21-0.55-0.31c0.09-0.15,0.16-0.26,0.23-0.37
			c-0.42-0.22-0.42-0.22-0.2-0.77c-0.11-0.1-0.24-0.22-0.35-0.31c-0.2,0.1-0.09,0.48-0.39,0.38c-0.04-0.26-0.06-0.5-0.12-0.73
			c-0.08-0.3-0.21-0.59-0.28-0.89c-0.05-0.23,0.17-0.46-0.07-0.73c-0.13-0.14-0.07-0.47-0.08-0.71c-0.01-0.2,0.05-0.43-0.24-0.46
			c-0.32-0.03-0.07,0.35-0.31,0.44c-0.27-0.33-0.43-0.68-0.32-1.07c0.25-0.17,0.47-0.32,0.6-0.41c-0.03-0.28-0.03-0.47-0.06-0.65
			c-0.03-0.15-0.04-0.36-0.14-0.42c-0.25-0.15-0.45-0.39-0.69-0.51c-0.34-0.16-0.17-0.34-0.15-0.53c-0.41-0.26-0.83-0.5-0.65-1.11
			c0.04-0.12-0.09-0.29-0.14-0.44c-0.19-0.56-0.49-1.1-0.23-1.66c-0.26-0.36-0.42-0.77-0.72-0.98c-0.33-0.23-0.32-0.7-0.71-0.85
			c-0.04-0.01-0.05-0.11-0.08-0.16c-0.18-0.28-0.4-0.54-0.53-0.84c-0.19-0.43-0.58-0.74-0.71-1.22c-0.07-0.25-0.24-0.51-0.44-0.66
			c-0.2-0.15-0.35-0.29-0.43-0.53c-0.1-0.27-0.24-0.47-0.59-0.48c-0.25-0.01-0.45-0.15-0.32-0.48c0.1-0.27-0.1-0.41-0.3-0.39
			c-0.54,0.06-0.71-0.37-0.93-0.67c-0.34-0.46-0.61-0.96-1.16-1.22c-0.25-0.12-0.32-0.34-0.21-0.64c0.03-0.09,0.07-0.17,0.12-0.31
			c-0.16,0.01-0.29-0.01-0.34,0.04c-0.25,0.26-0.48,0.08-0.71-0.01c-0.25-0.1-0.61-0.19-0.71-0.38c-0.17-0.32-0.43-0.38-0.69-0.5
			c-0.56-0.27-1.17-0.47-1.61-0.97c-0.21-0.24-0.49-0.44-0.74-0.64c-0.07-0.06-0.18-0.07-0.28-0.11c-0.79-0.32-1.57-0.63-2.36-0.95
			c-0.46-0.19-0.9-0.42-1.38-0.56c-0.86-0.26-1.73-0.47-2.59-0.69c-0.61-0.16-1.22-0.33-1.84-0.46c-0.56-0.12-1.13-0.2-1.69-0.29
			c-0.8-0.13-1.6-0.27-2.4-0.39c-0.53-0.08-1.07-0.06-1.59-0.12c-0.75-0.1-1.51-0.02-2.26-0.15c-0.2-0.04-0.43-0.01-0.64,0.01
			c-0.82,0.09-1.65,0.2-2.47,0.3c-0.06,0.01-0.12,0-0.18-0.01c-0.73-0.16-1.45,0.09-2.18,0.09c-0.36,0-0.72,0.19-1.08,0.24
			c-1.47,0.19-2.92,0.49-4.35,0.89c-0.98,0.27-1.91,0.66-2.8,1.14c-0.12,0.06-0.25,0.11-0.38,0.17c-0.61,0.29-1.26,0.52-1.8,0.9
			c-0.28,0.19-0.47,0.45-0.78,0.43c-0.17,0.22-0.38,0.43-0.62,0.55c-0.67,0.33-1.28,0.71-1.83,1.26c-0.51,0.52-1.24,0.84-1.88,1.23
			c-0.34,0.2-0.7,0.36-0.85,0.77c-0.05,0.13-0.2,0.24-0.32,0.33c-0.19,0.15-0.39,0.28-0.58,0.41c-0.33,0.22-0.66,0.43-0.99,0.65
			c-0.34,0.22-0.77,0.38-1.01,0.69c-0.24,0.31-0.51,0.54-0.79,0.78c-0.67,0.58-1.47,1.03-1.88,1.88c-0.09,0.18-0.18,0.35-0.3,0.51
			c-0.26,0.34-0.36,0.85-0.92,0.9c-0.08,0.01-0.17,0.1-0.23,0.17c-0.28,0.34-0.56,0.67-0.81,1.03c-0.38,0.56-0.52,1.28-1.13,1.69
			c-0.1,0.07-0.11,0.25-0.19,0.36c-0.4,0.52-0.46,1.33-1.27,1.52c-0.07,0.02-0.11,0.15-0.17,0.22c-0.05,0.05-0.12,0.14-0.17,0.13
			c-0.58-0.06-0.69,0.5-0.82,0.8c-0.15,0.33-0.13,0.69-0.5,0.96c-0.19,0.13-0.04,0.62-0.4,0.77c0.05,0.52-0.33,0.66-0.74,0.79
			c0.23,0.38,0.07,0.66-0.17,0.94c-0.14,0.16-0.34,0.31-0.09,0.55c0.04,0.03-0.03,0.25-0.1,0.3c-0.2,0.14-0.43,0.24-0.67,0.37
			c-0.04,0.29,0.12,0.67-0.29,0.87c-0.06,0.03-0.04,0.18-0.07,0.28c-0.12,0.38-0.24,0.75-0.36,1.13c-0.04,0.13-0.08,0.26-0.12,0.39
			c-0.13,0.49-0.27,0.98-0.42,1.55c-0.14-0.17-0.23-0.27-0.26-0.31c-0.83-0.05-0.91,0.57-1.06,1.1c-0.07,0.26-0.05,0.51,0.23,0.63
			c-0.11,0.1-0.26,0.19-0.31,0.32c-0.15,0.39-0.31,0.77-0.37,1.2c-0.05,0.4-0.29,0.77-0.43,1.15c-0.05,0.14-0.05,0.3-0.08,0.47
			c0.12,0.03,0.22,0.05,0.36,0.08c0.02,0.79-0.38,1.48-0.58,2.21c0,0.02-0.02,0.04-0.04,0.04c-0.1,0.04-0.24,0.14-0.3,0.11
			c-0.1-0.06-0.17-0.2-0.19-0.32c-0.01-0.04,0.14-0.12,0.22-0.18c0.08-0.07,0.17-0.13,0.23-0.21c0.16-0.24,0.06-0.5-0.01-0.74
			c-0.03-0.08-0.17-0.19-0.24-0.19c-0.07,0.01-0.17,0.14-0.2,0.24c-0.05,0.17-0.01,0.46-0.09,0.5c-0.4,0.16-0.15,0.53-0.28,0.77
			c-0.03,0.06,0.1,0.26,0.19,0.32c0.53,0.29,0.53,0.28,0.47,0.91c-0.04,0.41-0.05,0.82-0.07,1.25c-0.18,0.08-0.39,0.17-0.64,0.29
			c0.24,0.36,0.07,0.63-0.16,0.9c0.23,0.12,0.41,0.22,0.64,0.34c-0.15,0.14-0.25,0.23-0.36,0.33c0.06,0.61,0.24,1.22-0.18,1.78
			c-0.09,0.12-0.12,0.32-0.09,0.46c0.1,0.38-0.27,0.57-0.31,0.87c-0.04,0.35-0.15,0.61-0.54,0.68c-0.05,0.01-0.08,0.13-0.12,0.19
			c-0.21,0.35-0.2,0.7-0.02,1.03c-0.21,0.02-0.4,0.05-0.6,0.07c0.09-0.16,0.17-0.32,0.33-0.6c-0.23,0.08-0.39,0.09-0.42,0.15
			c-0.08,0.17-0.12,0.37-0.15,0.56c-0.04,0.21,0.01,0.48-0.1,0.62c-0.14,0.17-0.22,0.3-0.09,0.45c0.13,0.16,0.32,0.21,0.53,0.1
			c0.06-0.33-0.19-0.69,0.17-0.99c0.17,0.13,0.34,0.26,0.48,0.37c-0.08,0.22-0.24,0.46-0.19,0.53c0.21,0.28,0.03,0.54,0.03,0.8
			c0,0.32-0.16,0.61,0.01,0.99c0.14,0.31-0.02,0.74-0.04,1.11c-0.01,0.37-0.13,0.81,0.02,1.1c0.29,0.57,0.36,1.17,0.47,1.77
			c0,0.02,0,0.04,0-0.07c-0.23,0.51-0.41,0.9-0.57,1.25c0.05,0.28,0.15,0.53,0.12,0.77c-0.08,0.52-0.07,0.99,0.25,1.45
			c0.14,0.21,0.21,0.52,0.05,0.79c-0.55,0.1-0.64,0.3-0.34,0.74c0.09,0.14,0.19,0.28,0.35,0.52c-0.33-0.06-0.38-0.47-0.69-0.22
			c0.13,0.29,0.29,0.58,0.39,0.9c0.1,0.32,0.12,0.65,0.18,1c-0.16,0.09-0.31,0.19-0.54,0.32c0.17,0.11,0.27,0.18,0.37,0.24
			c-0.21,0.29-0.54,0.27-0.85,0.25c-0.08-0.15-0.15-0.29-0.23-0.45c-0.24,0.6-0.17,1.14,0.14,1.28c0.14-0.03,0.29-0.07,0.47-0.12
			c0.15,0.18,0.3,0.35,0.45,0.53c-0.15,0-0.31-0.03-0.25,0.25c0.08-0.09,0.16-0.18,0.24-0.27c0.14-0.06,0.28-0.13,0.4-0.18
			c0.37,0.27,0.15,0.65,0.22,0.95c0.76-0.03,0.94,0.15,0.97,0.91c0.01,0.17,0,0.35,0.02,0.52c0.01,0.09,0.02,0.2,0.08,0.26
			c0.47,0.42,0.44,0.56,0.11,1.06c0.12,0.27,0.3,0.51,0.33,0.77c0.03,0.24,0.12,0.38,0.3,0.54c0.4,0.37,0.59,0.83,0.44,1.41
			c0.11,0.07,0.22,0.13,0.33,0.2c-0.32,0.65-0.24,0.85,0.41,1.17c0.22,0.11,0.41,0.31,0.6,0.47c0.11,0.09,0.19,0.26,0.3,0.27
			c0.37,0.04,0.55,0.49,0.96,0.45c0.06-0.01,0.15,0.11,0.21,0.19c0.21,0.26,0.4,0.55,0.63,0.8c0.26,0.29,0.36,0.26,0.55-0.08
			c0.06-0.11,0.21-0.29,0.25-0.28c0.34,0.14,0.71-0.03,1.04,0.08c0.28,0.09,0.55,0.25,0.8,0.42c0.13,0.09,0.2,0.28,0.32,0.39
			c0.23,0.21,0.3,0.59,0.69,0.62c0.07,0.39,0.42,0.4,0.67,0.58c0.42,0.3,0.94,0.3,1.35,0.6c0.21-0.23,0.41-0.42,0.59-0.63
			c0.05-0.06,0.11-0.17,0.09-0.21c-0.24-0.45,0.14-0.79,0.17-1.19c0.02-0.24,0.14-0.36,0.39-0.5c0.36-0.19,0.72-0.54,0.87-0.91
			c0.23-0.54,0.63-0.85,1.02-1.2c0.17,0.06,0.3,0.11,0.54,0.2c-0.22-0.39-0.09-0.65,0.11-0.84c0.27-0.26,0.57-0.48,0.87-0.7
			c0.05-0.04,0.18-0.01,0.26,0.02c0.5,0.2,0.81,0.12,1.02-0.38c0.11-0.26,0.24-0.39,0.5-0.42c-0.05-0.27-0.1-0.51-0.14-0.75
			c-0.16,0.06-0.28,0.1-0.41,0.15c-0.08-0.13-0.14-0.22-0.23-0.37c0.19,0.02,0.32,0.03,0.43,0.04c0.13-0.21,0.24-0.4,0.36-0.58
			c0.02-0.03,0.1-0.02,0.19-0.04c-0.02,0.09-0.05,0.14-0.05,0.19c0,0.07,0.01,0.14,0.02,0.26c0.21-0.13,0.38-0.3,0.55-0.31
			c0.42-0.02,0.62-0.26,0.83-0.62c-0.29-0.12-0.56-0.23-0.94-0.4c0.36-0.36,0.51-0.81,1-0.97c0.22-0.07,0.46-0.13,0.5-0.44
			c0.01-0.08,0.1-0.19,0.18-0.22c0.3-0.11,0.42-0.33,0.49-0.63c0.02-0.07,0.15-0.11,0.31-0.22c0,0.29,0,0.48,0,0.67
			c0.38-0.32,0.62-0.71,0.93-1.03c0.23-0.24,0.57-0.56,0.85-0.54c0.57,0.04,0.85-0.39,1.24-0.6c0.38-0.21,0.61-0.68,0.95-1.09
			c-0.29-0.11-0.2-0.36-0.05-0.5c0.27-0.26,0.6-0.47,1.11-0.34c-0.15,0.17-0.25,0.28-0.35,0.39c-0.27,0.26-0.13,0.41,0.11,0.53
			c0.11-0.09,0.21-0.17,0.31-0.25c0.33,0.53,0.45,0.57,0.87,0.34c-0.09-0.13-0.29-0.29-0.26-0.38c0.1-0.31-0.17-0.4-0.28-0.57
			c0.32-0.48,0.62-0.93,0.95-1.44c0.4,0.13,0.5-0.33,0.78-0.56c0.26,0.13,0.5,0.14,0.73-0.06c0.05-0.05,0.14-0.07,0.21-0.08
			c0.51-0.04,1-0.25,1.24-0.58c0.34-0.46,0.75-0.79,1.34-0.87c0.24-0.03,0.45-0.13,0.54-0.4c0.04-0.11,0.21-0.25,0.29-0.23
			c0.12,0.02,0.19,0.11,0.34,0.02c0.13-0.08,0.08-0.22,0.1-0.24c0.3-0.31,0.82-0.37,1.11-0.09c0.26,0.24,0.46,0.24,0.74,0.08
			c0.35-0.21,0.71-0.4,1.06-0.59c0.03-0.12,0.07-0.24,0.12-0.41c0.19,0.22,0.35,0.33,0.17,0.61c-0.16,0.25-0.05,0.34,0.28,0.29
			c0.1-0.01,0.21,0.03,0.32,0.03c0.13,0,0.3,0.02,0.39-0.04c0.19-0.14,0.35-0.34,0.55-0.55c-0.13-0.02-0.24-0.04-0.35-0.07
			c0.14-0.09,0.35-0.12,0.31-0.4c-0.17-0.1-0.33-0.28-0.64-0.07c0.13,0.17,0.24,0.32,0.35,0.47c-0.3,0.35-0.57,0.01-0.9,0.02
			c0.03-0.28,0.05-0.51,0.07-0.76c0.43-0.04,0.82-0.08,1.27-0.12c0.01,0.03,0.06,0.13,0.1,0.24c0.05,0.13,0.09,0.25,0.15,0.43
			c0.47-0.12,0.82-0.38,1.13-0.67c0.17-0.16,0.25-0.41,0.09-0.66c-0.14-0.04-0.28-0.08-0.53-0.15c0.34-0.31,0.6-0.58,0.89-0.81
			c0.37-0.3,0.75-0.04,1.19,0.06c0.06-0.19,0.14-0.35,0.15-0.51c0.01-0.31-0.02-0.62-0.04-0.92c-0.03-0.73-0.01-0.81,0.38-1.56
			c0.03-0.05,0.03-0.11,0.03-0.17c0.01-0.17,0.04-0.34,0.03-0.51c-0.04-0.72,0.35-1.5-0.23-2.02c0.04-0.47,0.07-0.84,0.12-1.2
			c0.03-0.19,0.13-0.37,0.15-0.55c0.02-0.17-0.08-0.36-0.03-0.51c0.1-0.29,0.26-0.55,0.42-0.86c-0.32-0.63-0.32-0.63,0.04-0.96
			c0.01-0.27-0.08-0.63,0.05-0.76c0.4-0.39,0.29-0.74,0.06-1.11c-0.21-0.36-0.16-0.78,0.05-1.02c0.44-0.5,0.11-1.16,0.44-1.65
			c0.01-0.02-0.02-0.07-0.03-0.11c-0.11-0.49,0.06-1-0.06-1.5c-0.02-0.07,0.07-0.2,0.14-0.25c0.26-0.19,0.27-0.46,0.2-0.76
			c0.45-0.11,0.72-0.37,0.89-0.76c0.12-0.29,0.27-0.57,0.37-0.86c0.17-0.47,0.98-0.78,1.32-0.47c0.19,0.17,0.35,0.38,0.53,0.57
			c0.17,0.18,0.43,0.24,0.61,0.45c0.17,0.19,0.3,0.36,0.32,0.59c0.03,0.25,0.29,0.36,0.24,0.69c-0.07,0.42-0.06,0.92,0.12,1.28
			c0.21,0.43,0.13,0.78-0.09,1.05c-0.31,0.37-0.33,0.79-0.42,1.23c0.18,0.13,0.36,0.25,0.43,0.3c0.05,0.36,0.02,0.65,0.12,0.87
			c0.14,0.31,0.16,0.55-0.03,0.84c-0.07,0.1-0.05,0.26-0.06,0.39c-0.01,0.25,0.01,0.51-0.03,0.76c-0.1,0.66-0.24,1.32-0.35,1.98
			c-0.02,0.12-0.02,0.24-0.02,0.36c0,0.61,0.11,1.23-0.18,1.81c-0.03,0.07-0.03,0.16-0.02,0.23c0.07,0.69,0.14,1.37,0.22,2.06
			c0.01,0.06,0.09,0.12,0.1,0.13c0.17-0.05,0.29-0.13,0.38-0.1c0.13,0.04,0.24,0.16,0.36,0.24c0.08,0.05,0.15,0.1,0.23,0.16
			c0.06-0.09,0.14-0.17,0.17-0.27c0.03-0.08,0.01-0.17,0.01-0.3c0.23,0.11,0.41,0.28,0.57,0.26c0.16-0.02,0.31-0.21,0.47-0.33
			c0.01,0.23,0.05,0.48,0.35,0.45c0.31-0.03,0.26-0.29,0.25-0.51c0-0.06-0.01-0.12-0.02-0.18c-0.06-0.31,0.17-0.34,0.37-0.39
			c-0.03-0.17-0.07-0.33-0.1-0.5c0.5-0.07,0.5-0.07,0.91-0.51c0.04-0.04,0.11-0.06,0.14-0.11c0.24-0.34,0.69-0.21,1-0.55
			c-0.03,0.32-0.18,0.56,0.18,0.8c0.03-0.06,0.06-0.13,0.09-0.21c0.03-0.09,0.05-0.19,0.07-0.29l-0.01,0
			c0.44,0.06,0.91-0.04,1.28,0.28c0.29-0.21,0.57-0.41,0.85-0.61c0.05-0.03,0.11-0.04,0.17-0.06c0.53-0.14,0.62-0.38,0.3-0.86
			c0.18-0.01,0.35-0.02,0.55-0.03c-0.06,0.4,0.14,0.53,0.47,0.54c0.09,0,0.23-0.03,0.28,0.02c0.38,0.39,0.76,0.19,1.16-0.01
			c-0.02-0.18-0.04-0.37-0.06-0.56c0.55,0.01,0.58-0.01,0.66-0.42c-0.12-0.04-0.24-0.07-0.39-0.12c0.84-0.47,0.84-0.47,1.2,0.3
			c0.01,0.02,0.03,0.02,0.05,0.04c0.27,0.01,0.5-0.05,0.54-0.35c-0.19-0.16-0.35-0.3-0.55-0.47c0.49-0.22,0.83-0.6,1.33-0.35
			c0.13-0.17,0.23-0.31,0.34-0.47C75.89,48.76,76.2,48.84,76.49,48.64z M73.8,105.73c0.2-0.34,0.3-0.6-0.01-0.89
			c-0.17-0.16-0.26-0.39-0.21-0.69c0.03-0.16,0.06-0.3,0.16-0.4c0.22-0.23,0.36-0.47,0.21-0.8c-0.04-0.08-0.03-0.2-0.02-0.3
			c0.07-0.83,0.12-1.66,0.53-2.41c0.04-0.08,0.04-0.19,0.05-0.29c0.11-0.81,0.31-1.59,0.64-2.34c0.07-0.16,0.18-0.32,0.21-0.49
			c0.08-0.61,0.15-1.22,0.17-1.83c0.01-0.32,0.1-0.61,0.3-0.8c0.24-0.22,0.26-0.46,0.28-0.74c0.02-0.22,0.08-0.52,0.24-0.64
			c0.27-0.21,0.36-0.46,0.43-0.75c0.04-0.15,0.1-0.3,0.17-0.44c0.12-0.22,0.24-0.44,0.12-0.74c0.16,0.12,0.31,0.25,0.54,0.42
			c0.02-0.2,0.03-0.35,0.04-0.5c0.01-0.17-0.05-0.37,0.02-0.5c0.15-0.24,0.14-0.45,0.05-0.7c-0.1-0.26-0.13-0.54-0.17-0.82
			c-0.02-0.11-0.02-0.24,0.01-0.35c0.07-0.24,0.17-0.47,0.28-0.75c0.39,0.03,0.58-0.26,0.78-0.59c-0.05-0.13-0.11-0.26-0.16-0.39
			c0.38-0.28,0.38,0.3,0.72,0.23c0.11-0.16,0.24-0.37,0.38-0.59c-0.1-0.11-0.17-0.18-0.23-0.25c-0.07-0.09-0.14-0.19-0.21-0.27
			c0.26-0.61,0.26-0.61,0.13-1.23c-0.02-0.08,0.06-0.18,0.06-0.27c-0.01-0.39,0.05-0.81-0.08-1.17c-0.25-0.71-0.24-0.89,0.31-1.36
			c0.14-0.12,0.28-0.29,0.33-0.46c0.12-0.51,0.2-1.02,0.3-1.59c-0.25,0.03-0.42,0.05-0.73,0.09c0.16-0.23,0.25-0.36,0.35-0.48
			c0.1-0.12,0.33-0.27,0.31-0.34c-0.14-0.39,0.21-0.65,0.21-1c0-0.38,0.04-0.81,0.21-1.13c0.14-0.26,0.16-0.45-0.03-0.74
			c0.47,0.15,0.62-0.15,0.78-0.38c0.21-0.31-0.06-0.6-0.14-0.88c0.53-0.28,0.6-0.43,0.55-1c-0.01-0.17-0.01-0.35,0.04-0.51
			c0.1-0.29,0-0.45-0.24-0.59c-0.51-0.3-0.46-0.86-0.57-1.34c-0.03-0.12,0.08-0.33,0.19-0.42c0.22-0.17,0.49-0.27,0.76-0.41
			c-0.2-0.34-0.08-0.65,0.15-0.96c0.2-0.27,0.28-0.55,0.2-0.94c-0.08-0.41,0.03-0.87,0.07-1.3c0.01-0.08,0.09-0.21,0.13-0.2
			c0.3,0.01,0.28-0.21,0.34-0.4c0.18-0.54,0.04-1.21,0.66-1.56c0.03-0.02,0.04-0.07,0.05-0.1c0.16-0.53,0.35-1.06,0.47-1.6
			c0.06-0.26,0.04-0.55-0.17-0.77c-1.16,0.35-1.85,0.79-2.72,1.69c-0.11,0.11-0.27,0.17-0.39,0.27c-0.18,0.14-0.36,0.3-0.54,0.44
			c-0.36,0.3-0.69,0.67-1.1,0.88c-0.36,0.18-0.56,0.42-0.73,0.74c-0.07,0.14-0.11,0.31-0.22,0.4c-0.5,0.42-1.01,0.82-1.54,1.2
			c-0.36,0.26-0.43,0.4-0.32,0.82c0.12,0.47,0.21,0.96,0.32,1.43c0.05,0.23,0.12,0.46,0.16,0.69c0.02,0.11-0.03,0.23-0.06,0.4
			c-0.22-0.17-0.24-0.51-0.59-0.34c0.05,0.21,0.1,0.41,0.15,0.61c-0.36,0.12-0.57-0.12-0.69-0.35c-0.3-0.55-0.69-0.82-1.34-0.8
			c-0.31,0.01-0.63-0.06-0.93,0.08c-1.1,0.51-2.2,1.01-3.28,1.54c-1.13,0.55-2.24,1.14-3.37,1.68c-0.85,0.41-1.74,0.75-2.6,1.14
			c-0.63,0.28-1.34,0.48-1.86,0.91c-0.73,0.6-1.57,0.9-2.39,1.28c-0.3,0.14-0.63,0.22-0.93,0.36c-0.49,0.24-1.07,0.34-1.4,0.94
			c0.55,0.39,1.02,0.87,1.37,1.47c-0.11,0.14-0.21,0.27-0.33,0.43c0.39,0.33,0.45,0.69,0.19,1.11c-0.06,0.09-0.06,0.23-0.08,0.34
			c-0.04,0.33-0.07,0.67-0.12,1.12c0.21-0.16,0.31-0.23,0.49-0.37c-0.09,0.36,0.16,0.71-0.25,0.9c-0.11-0.09-0.2-0.17-0.29-0.24
			c-0.04,0.03-0.07,0.05-0.11,0.08c0.16,0.34,0.41,0.66,0.47,1.02c0.07,0.36,0.03,0.77-0.32,1.06c0.14,0.07,0.24,0.12,0.34,0.17
			c-0.33,0.57-0.75,1.09-0.5,1.79c0.02,0.05-0.02,0.12-0.02,0.18c0,0.36,0,0.71,0,1.07c0,0.21,0,0.43,0,0.66
			c-0.21,0.04-0.39,0.08-0.61,0.12c0.18,0.41,0.29,0.78,0.11,1.17c-0.29,0.1-0.63,0.33-0.46,0.57c0.28,0.39,0.14,0.65-0.06,0.94
			c0.12,0.17,0.22,0.31,0.34,0.49c-0.19,0.05-0.3,0.08-0.46,0.13c0.22,0.28,0.4,0.51,0.58,0.73c-0.06,0.27-0.22,0.57-0.15,0.8
			c0.1,0.32,0.06,0.57-0.15,0.88c0.23,0.11,0.43,0.2,0.65,0.31c-0.27,0.55-0.88,0.59-1.33,0.85c-0.02,0.37-0.04,0.73-0.06,1.13
			c0.16-0.02,0.26-0.05,0.34-0.03c0.14,0.04,0.35,0.08,0.38,0.17c0.15,0.43,0.26,0.87,0.34,1.31c0.02,0.13-0.06,0.31-0.16,0.42
			c-0.07,0.07-0.23,0.06-0.37,0.08c0.34,0.38,0.34,0.57,0.07,0.99c-0.11,0.16-0.26,0.36-0.24,0.53c0.04,0.38-0.16,0.49-0.47,0.55
			c0.02,0.14,0.04,0.26,0.06,0.38c-0.17,0.02-0.33,0.04-0.49,0.06c-0.01,0.04-0.01,0.08-0.02,0.13c0.18,0.06,0.36,0.12,0.58,0.2
			c-0.33,0.32-0.39,0.68,0.02,1.13c-0.31-0.05-0.47-0.08-0.64-0.1c-0.03-0.28-0.06-0.51-0.09-0.74c-0.05,0-0.1,0-0.14,0
			c-0.24,0.64,0.02,1.39-0.38,1.99c-0.03,1.23-0.07,2.46-0.1,3.71c0.14-0.17,0.27-0.31,0.46-0.52c0.19,0.29,0.44,0.43,0.4,0.77
			c-0.05,0.46-0.04,0.94-0.13,1.4c-0.06,0.35-0.01,0.62,0.21,0.88c0.1,0.11,0.21,0.27,0.21,0.4c0,0.37-0.05,0.73-0.09,1.1
			c-0.19,0.04-0.38,0.08-0.57,0.12c-0.02,0.08-0.07,0.15-0.05,0.19c0.17,0.34,0.22,0.67-0.06,0.99c-0.04,0.05,0.01,0.19,0.03,0.28
			c0.05,0.19,0.08,0.39,0.17,0.57c0.09,0.19,0.24,0.36,0.36,0.55c-0.12,0.14-0.27,0.31-0.43,0.51c0.22,0.18,0.39,0.31,0.58,0.46
			c-0.28,0.41-0.3,0.77,0.1,1.1c0.09,0.07,0.13,0.25,0.12,0.38c-0.01,0.06-0.17,0.12-0.15,0.1c0.2,0.67,0.72,0.53,1.14,0.63
			c0.46,0.11,0.94,0.19,1.41,0.27c0.13,0.02,0.28,0.05,0.39,0.01c0.27-0.1,0.4,0.01,0.5,0.24c0.01,0.01,0.07,0,0.14-0.01
			c0.01-0.15,0.02-0.3,0.04-0.45c0.26-0.06,0.55-0.23,0.74-0.16c0.48,0.17,0.93,0.02,1.4,0c0.12-0.01,0.23,0.02,0.36,0.03
			c0.04,0.15,0.07,0.28,0.12,0.47c0.24-0.05,0.47-0.09,0.7-0.13c0.11-0.02,0.22-0.06,0.32-0.05c0.36,0.04,0.71,0.08,1.09,0.02
			c0.56-0.09,1.09-0.24,1.65-0.42c0.08,0.13,0.16,0.26,0.26,0.42c0.15-0.12,0.28-0.22,0.43-0.35c0.22,0.55,0.66,0.2,0.99,0.31
			c0.09-0.16,0.19-0.27,0.22-0.4c0.18-0.83,0.54-1.57,0.99-2.28c0.14-0.22,0.17-0.52,0.24-0.78c0.1-0.38,0.13-0.8,0.31-1.13
			c0.3-0.54,0.49-1.11,0.71-1.68c0.35-0.92,0.75-1.82,1.21-2.68c0.16-0.3,0.18-0.56,0.1-0.83c-0.22-0.74,0.16-1.22,0.66-1.67
			c-0.19-0.39-0.22-0.51-0.06-0.57c0.31-0.12,0.25-0.39,0.35-0.6c0.09-0.21,0.2-0.42,0.3-0.63
			C73.41,105.62,73.58,105.66,73.8,105.73z M83.03,57.37c0.2-0.11,0.39-0.2,0.55-0.31c0.29-0.22,0.4-0.8,0.17-1.01
			c-0.51-0.45-1.05-0.89-1.75-0.97c-0.55-0.06-1.11-0.07-1.65-0.01c-0.33,0.04-0.67,0.05-0.98,0.11c-0.81,0.16-1.61,0.4-2.41,0.64
			c-0.47,0.14-0.92,0.36-1.4,0.47c-0.43,0.1-0.83,0.44-1.31,0.23c-0.26,0.27-0.62,0.26-0.95,0.35c-0.15,0.04-0.34,0.02-0.45,0.11
			c-0.67,0.53-1.46,0.74-2.26,0.92c-0.32,0.07-0.54,0.21-0.67,0.42c0.17,0.32,0.32,0.59,0.45,0.87c0.14,0.32,0.17,0.76,0.41,0.97
			c0.4,0.36,0.29,0.93,0.73,1.29c0.3,0.24,0.41,0.73,0.61,1.13c-0.07,0.08-0.2,0.21-0.34,0.36c0.68,0.28,0.75,0.41,0.65,1.08
			c-0.02,0.13-0.02,0.29,0.05,0.4c0.24,0.41,0.97,0.43,1.25,0.03c0.16-0.23,0.33-0.38,0.62-0.4c0.34-0.03,0.53-0.22,0.54-0.47
			c0.45-0.23,0.81-0.43,1.19-0.6c0.45-0.2,0.54-0.35,0.55-0.93c0-0.2,0.13-0.31,0.35-0.31c0,0.14,0,0.24,0,0.34
			c0.2-0.13,0.31-0.29,0.36-0.46c0.11-0.33,0.39-0.05,0.58-0.19c0.03-0.22,0.06-0.45,0.09-0.7c0.37-0.01,0.58-0.2,0.79-0.47
			c0.34-0.43,0.75-0.82,1.15-1.2c0.26-0.25,0.56-0.43,0.94-0.47c0.13-0.01,0.27-0.05,0.38-0.12c0.49-0.3,0.97-0.61,1.43-0.9
			c-0.03-0.2-0.05-0.33-0.09-0.58C82.8,57.16,82.9,57.25,83.03,57.37z M48.18,83.98c0.33,0.34,0.53,0.67,0.82,0.81
			c0.68,0.31,0.94,1.14,1.73,1.29c0.12,0.02,0.22,0.22,0.31,0.35c0.06,0.08,0.08,0.19,0.15,0.25c0.59,0.47,1.18,0.92,1.76,1.37
			c0,0.13,0,0.24,0,0.41c0.47-0.14,0.84,0.38,1.36,0.1c-0.03-0.21-0.03-0.43-0.1-0.63c-0.13-0.37-0.03-0.73,0.19-0.98
			c0.2-0.22,0.26-0.37,0.1-0.61c-0.16-0.26-0.1-0.48,0.13-0.67c0.06-0.05,0.09-0.15,0.16-0.26c-0.12-0.01-0.18,0-0.23-0.02
			c-0.04-0.01-0.08-0.06-0.12-0.09c0.48-0.37,0.72-0.93,0.5-1.04c-0.15,0.03-0.28,0.06-0.43,0.09c-0.04-0.59-0.15-1.14,0.12-1.66
			c0.03-0.07,0.06-0.16,0.04-0.23c-0.14-0.58,0.01-1.13,0.15-1.69c0.05-0.2-0.05-0.46-0.13-0.67c-0.03-0.08-0.19-0.12-0.27-0.17
			c-0.32,0.28-0.59,0.58-0.92,0.78c-0.4,0.24-0.87,0.36-1.27,0.58c-0.75,0.42-1.48,0.88-2.22,1.33c-0.1,0.06-0.19,0.18-0.29,0.18
			c-0.47-0.01-0.76,0.33-1.12,0.53C48.32,83.49,48.16,83.73,48.18,83.98z M13.72,70.29c0.12,0.1,0.25,0.2,0.37,0.32
			c0.32,0.33,0.54,0.28,0.77-0.21c-0.59-0.19-0.37-0.63-0.25-1.01c-0.23-0.2-0.44-0.37-0.73-0.61c-0.07,0.2-0.15,0.33-0.16,0.46
			C13.7,69.58,13.72,69.91,13.72,70.29z M44.62,126.95c-0.06-0.12-0.1-0.21-0.15-0.29c-0.1-0.17,0.04-0.19,0.15-0.25
			c0.01-0.01-0.01-0.12-0.04-0.15c-0.1-0.09-0.21-0.16-0.35-0.27c-0.23,0.3-0.43,0.57-0.65,0.86
			C43.89,127.21,44.2,127.18,44.62,126.95z M45.37,80.93c0.38-0.3,0.74-0.58,1.1-0.86c-0.32-0.09-0.61-0.07-0.9-0.04
			c-0.01,0-0.01,0.04-0.03,0.05C45.23,80.26,45.14,80.52,45.37,80.93z M72.74,129.8c-0.24,0.01-0.51-0.24-0.69,0.06
			c0.23,0.34,0.43,0.65,0.63,0.96C73.22,130.46,72.85,130.14,72.74,129.8z M85.39,16.69c-0.25,0.57,0.34,0.84,0.35,1.28
			c0.04,0.02,0.08,0.04,0.12,0.06c0.14-0.12,0.27-0.25,0.38-0.35c-0.11-0.25-0.15-0.38-0.22-0.5c-0.07-0.13-0.1-0.3-0.34-0.25
			C85.61,16.95,85.5,16.79,85.39,16.69z M55.94,58.36c0.7,0.15,1.03,0.21,0.98-0.51C56.29,57.69,56.03,57.81,55.94,58.36z
			 M94.07,69.48c0.67,0.24,1.09,0.06,1.09-0.46C94.77,69.08,94.32,68.93,94.07,69.48z M75.84,51.08c0.3,0.05,0.43,0.5,0.78,0.31
			c0.21-0.11,0.21-0.35,0.14-0.55c-0.29-0.06-0.54-0.12-0.79-0.17C75.94,50.79,75.9,50.9,75.84,51.08z M23.61,20.59
			c-0.16,0.15-0.31,0.23-0.36,0.34c-0.09,0.22-0.01,0.44,0.16,0.59c0.07,0.07,0.22,0.12,0.3,0.09c0.07-0.03,0.14-0.19,0.13-0.28
			C23.81,21.13,23.72,20.93,23.61,20.59z M47.62,61.88c0.09,0.01,0.14,0.04,0.17,0.02c0.42-0.25,0.85-0.51,1.26-0.78
			c0.03-0.02-0.02-0.18-0.04-0.28c-0.16,0.33-0.46,0.38-0.73,0.47c-0.11,0.03-0.24,0.03-0.35,0.07
			C47.7,61.44,47.56,61.58,47.62,61.88z M117.12,72.86c0.59-0.08,0.65-0.13,0.81-0.7C117.49,72.04,117.49,72.04,117.12,72.86z
			 M73.07,116.99c0.12,0.24,0.18,0.48,0.48,0.31c0.26-0.14,0.28-0.33,0.04-0.69C73.41,116.73,73.25,116.85,73.07,116.99z
			 M101.29,69.54c0.21-0.26,0.23-0.44,0.03-0.56c-0.14-0.09-0.32-0.12-0.49-0.15c-0.04-0.01-0.09,0.1-0.14,0.15
			C100.91,69.18,101.1,69.36,101.29,69.54z M79.35,95.69c0.28-0.21,0.32-0.42,0.09-0.73c-0.19,0.11-0.36,0.21-0.59,0.35
			C79.07,95.47,79.2,95.57,79.35,95.69z M80.61,98.89c0.04-0.03,0.08-0.06,0.12-0.09c-0.02-0.28-0.04-0.56-0.07-0.97
			c-0.2,0.24-0.31,0.38-0.44,0.53C80.38,98.56,80.49,98.72,80.61,98.89z M64.92,71.2c0.33,0.23,0.6,0.11,0.93-0.37
			C65.46,70.98,65.19,71.09,64.92,71.2z M36.64,69.6c0.22-0.04,0.42-0.01,0.49-0.09c0.14-0.19,0.11-0.4-0.08-0.57
			C36.71,68.98,36.69,69.21,36.64,69.6z M137.47,90.04c-0.15-0.03-0.29-0.05-0.44-0.07c-0.11,0.2-0.21,0.38-0.32,0.56
			C137.15,90.63,137.23,90.58,137.47,90.04z M81.97,91.8c0.13,0.32,0.33,0.39,0.62,0.35C82.49,91.86,82.36,91.69,81.97,91.8z
			 M46.19,62.84c0.3-0.14,0.5-0.23,0.73-0.34C46.47,62.1,46.35,62.15,46.19,62.84z M70.2,123.27c0.41-0.26,0.33-0.53,0.14-0.86
			C70.22,122.69,70.01,122.9,70.2,123.27z M38.44,134.24c-0.38-0.41-0.44-0.4-0.66,0C38.02,134.24,38.23,134.24,38.44,134.24z
			 M28.86,77.87c0.07-0.43,0.07-0.43-0.34-0.52C28.41,77.75,28.41,77.75,28.86,77.87z M112.32,102.57
			c-0.13-0.11-0.24-0.24-0.29-0.23c-0.1,0.04-0.22,0.16-0.23,0.25c0,0.08,0.14,0.17,0.22,0.26
			C112.11,102.76,112.2,102.68,112.32,102.57z M39.72,68.84c0.22-0.04,0.36-0.04,0.48-0.1c0.07-0.03,0.12-0.15,0.13-0.24
			c0.01-0.06-0.07-0.18-0.11-0.18c-0.08-0.01-0.2,0.03-0.25,0.09C39.88,68.51,39.83,68.65,39.72,68.84z M78.33,62.29
			c0.04,0.03,0.08,0.06,0.12,0.09c0.54-0.24,0.54-0.24,0.22-0.58C78.55,61.97,78.44,62.13,78.33,62.29z M49.68,137.96
			c-0.23-0.1-0.39-0.07-0.48,0.16c-0.02,0.05,0.04,0.17,0.09,0.19c0.21,0.08,0.31-0.08,0.39-0.23
			C49.69,138.06,49.69,138.04,49.68,137.96z M76.11,110.4c0.11-0.19,0.2-0.3,0.24-0.43c0.01-0.04-0.11-0.13-0.17-0.19
			c-0.1,0.11-0.21,0.2-0.28,0.32C75.88,110.14,75.99,110.24,76.11,110.4z M131.98,97.23c-0.21-0.06-0.41-0.06-0.51,0.14
			c-0.06,0.11-0.14,0.29,0.06,0.4C131.68,97.59,131.82,97.42,131.98,97.23z M132.94,95.4c-0.17,0.31-0.28,0.5-0.1,0.72
			c0.02,0.03,0.13,0.03,0.16,0C133.23,95.92,133.1,95.72,132.94,95.4z M63.33,70.58c0.04-0.04,0.09-0.08,0.13-0.11
			c-0.08-0.1-0.13-0.24-0.24-0.31c-0.14-0.08-0.31-0.09-0.37,0.13c-0.01,0.05,0.01,0.11,0.02,0.19
			C63.04,70.52,63.18,70.55,63.33,70.58z M80.78,91.36c0.42-0.2,0.43-0.23,0.13-0.59C80.7,90.93,80.61,91.11,80.78,91.36z
			 M88.81,38.08c-0.15,0.12-0.22,0.24-0.08,0.4c0.14,0.15,0.27,0.11,0.4-0.01c0.02-0.02,0.02-0.07,0.03-0.11
			C89.05,38.26,88.93,38.17,88.81,38.08z M10.94,70.86c-0.18,0.21-0.13,0.41-0.03,0.65C11.29,71.28,10.99,71.06,10.94,70.86z
			 M32.3,12.55c-0.05-0.03-0.1-0.06-0.15-0.09c-0.2,0.16-0.31,0.37-0.19,0.7C32.07,12.96,32.19,12.76,32.3,12.55z M18.16,84.31
			c0.31-0.14,0.49-0.33,0.33-0.67C18.38,83.86,18.27,84.09,18.16,84.31z M92.01,132.47c-0.2-0.13-0.25-0.18-0.32-0.21
			c-0.13-0.07-0.28-0.1-0.31,0.09c-0.01,0.07,0.12,0.19,0.2,0.22C91.66,132.6,91.77,132.53,92.01,132.47z M80.63,95.23
			c-0.13-0.16-0.23-0.28-0.33-0.39c-0.06,0.07-0.17,0.13-0.17,0.2C80.12,95.27,80.25,95.35,80.63,95.23z M89.65,130.97
			c-0.03-0.06-0.05-0.12-0.08-0.17c-0.15,0.07-0.3,0.13-0.53,0.24C89.38,131.21,89.57,131.26,89.65,130.97z M76.6,63.31
			c0.15,0.11,0.25,0.19,0.39,0.3c0.05-0.25,0.09-0.43,0.14-0.7C76.91,63.07,76.78,63.17,76.6,63.31z M44.39,80.66
			c0.25-0.14,0.5-0.1,0.56-0.44C44.67,80.22,44.43,80.18,44.39,80.66z M123.67,67.85c-0.26-0.15-0.34-0.22-0.44-0.24
			c-0.02-0.01-0.13,0.14-0.12,0.15c0.07,0.07,0.15,0.15,0.24,0.19C123.41,67.96,123.5,67.9,123.67,67.85z M120.58,79.98
			c-0.03,0.05-0.06,0.1-0.09,0.15c0.1,0.15,0.16,0.41,0.52,0.1C120.83,80.13,120.7,80.06,120.58,79.98z M118.5,100.65
			c-0.05,0.22-0.08,0.34-0.12,0.49c0.18-0.02,0.3-0.03,0.53-0.05C118.75,100.92,118.66,100.82,118.5,100.65z M89.99,33.32
			c-0.06-0.02-0.12-0.03-0.18-0.05c-0.16,0.09-0.21,0.24-0.11,0.42c0.02,0.04,0.2,0.04,0.2,0.02
			C89.94,33.59,89.96,33.46,89.99,33.32z M58.68,128.7c-0.08-0.11-0.14-0.19-0.2-0.26c-0.08,0.07-0.17,0.14-0.25,0.21
			c0.06,0.07,0.12,0.17,0.19,0.19C58.48,128.85,58.57,128.76,58.68,128.7z M9.04,59.77c0.07,0.16,0.14,0.31,0.24,0.55
			C9.34,59.96,9.34,59.96,9.04,59.77z M72.8,121.74c0.42,0.04,0.42,0.04,0.36-0.32C73.05,121.52,72.96,121.6,72.8,121.74z
			 M92.18,48.96c0.2-0.35,0.2-0.35-0.17-0.39C92.07,48.7,92.12,48.82,92.18,48.96z M109.23,63.81c0.2-0.09,0.51-0.11,0.31-0.49
			C109.41,63.51,109.32,63.66,109.23,63.81z M14.17,64.28c-0.06-0.14-0.13-0.29-0.21-0.48C13.8,64.15,13.8,64.15,14.17,64.28z
			 M9.63,63.96c0,0.24,0,0.47,0,0.8C10,64.42,9.6,64.2,9.63,63.96z M86.89,19.66c-0.21-0.23-0.33-0.36-0.44-0.49
			C86.53,19.34,86.52,19.57,86.89,19.66z M36.95,70.33c0.18-0.14,0.22-0.28,0.09-0.42c-0.03-0.03-0.16-0.02-0.2,0.01
			C36.7,70.07,36.75,70.21,36.95,70.33z M14.16,51.25c0.29-0.22,0.27-0.36,0.14-0.48c-0.03-0.03-0.14,0.01-0.21,0.02
			C14.11,50.93,14.13,51.05,14.16,51.25z M22.83,21.36c0.03-0.13,0.05-0.26,0.09-0.47C22.63,21.03,22.54,21.15,22.83,21.36z
			 M73.33,51.86c-0.09-0.12-0.15-0.2-0.22-0.28c-0.05,0.05-0.14,0.1-0.14,0.15C72.96,51.9,73.06,51.97,73.33,51.86z M109.95,62.11
			c0.08,0.09,0.16,0.19,0.29,0.33C110.37,62.09,110.29,61.99,109.95,62.11z M13.8,62.71c0.05-0.02,0.1-0.03,0.15-0.05
			c0.05-0.2,0.04-0.37-0.33-0.46C13.69,62.42,13.74,62.57,13.8,62.71z M83.41,82.31c0.05,0,0.09-0.01,0.14-0.01
			c-0.01-0.15-0.02-0.29-0.02-0.44c-0.04,0-0.07,0-0.11,0C83.41,82.02,83.41,82.16,83.41,82.31z M91.59,131.51
			c-0.2,0.13-0.28,0.26-0.17,0.51C91.67,131.89,91.89,131.81,91.59,131.51z M42.34,130.21c-0.19-0.15-0.11-0.4-0.37-0.45
			C41.94,130.15,41.94,130.15,42.34,130.21z M65.89,5.25c-0.09-0.07-0.15-0.15-0.18-0.14c-0.08,0.02-0.14,0.09-0.21,0.13
			c0.05,0.07,0.1,0.13,0.15,0.2C65.72,5.38,65.79,5.33,65.89,5.25z M91.43,134.34c-0.11-0.09-0.17-0.16-0.24-0.19
			c-0.03-0.01-0.15,0.1-0.14,0.12c0.03,0.08,0.09,0.16,0.16,0.2C91.24,134.49,91.33,134.41,91.43,134.34z M15.92,76.14
			c-0.11-0.15-0.18-0.25-0.29-0.4C15.55,76.1,15.55,76.1,15.92,76.14z M91.34,51.45c0.05,0.03,0.1,0.05,0.14,0.08
			c0.02-0.09,0.05-0.18,0.07-0.28c-0.04-0.01-0.08-0.02-0.12-0.04C91.41,51.29,91.37,51.37,91.34,51.45z M71.86,52.02
			c-0.05,0.02-0.09,0.05-0.14,0.07c0.07,0.13,0.13,0.25,0.2,0.38c0.04-0.02,0.08-0.04,0.13-0.06
			C71.98,52.28,71.92,52.15,71.86,52.02z M43.05,64.36c-0.1-0.06-0.19-0.14-0.21-0.13c-0.07,0.05-0.13,0.12-0.16,0.2
			c-0.01,0.02,0.12,0.14,0.15,0.12C42.9,64.53,42.95,64.45,43.05,64.36z M64.33,70.69c0.32,0.03,0.32,0.03,0.3-0.25
			C64.51,70.54,64.42,70.62,64.33,70.69z M43.28,130.06c0.32-0.1,0.32-0.1,0.19-0.34C43.4,129.85,43.34,129.95,43.28,130.06z
			 M119.54,100.68c0-0.03,0-0.06-0.01-0.09c-0.15,0-0.3,0-0.45,0c0,0.04,0,0.09,0.01,0.13
			C119.24,100.71,119.39,100.69,119.54,100.68z M87.55,27.88c-0.05,0.21-0.07,0.33-0.1,0.46C87.7,28.26,87.77,28.15,87.55,27.88z
			 M136.04,79.23c-0.05,0.05-0.1,0.09-0.15,0.14c0.08,0.08,0.15,0.16,0.24,0.23c0.01,0.01,0.12-0.1,0.12-0.11
			C136.18,79.4,136.11,79.32,136.04,79.23z M13.91,55.48c-0.02,0.32,0.02,0.45,0.37,0.43C14.14,55.75,14.06,55.66,13.91,55.48z
			 M13.02,39.44c0.06-0.12,0.13-0.18,0.12-0.24c-0.01-0.05-0.1-0.09-0.15-0.13c-0.04,0.06-0.11,0.11-0.12,0.17
			C12.87,39.29,12.94,39.35,13.02,39.44z M56.74,101.06c-0.03,0-0.06,0.01-0.09,0.01c0.02,0.14,0.05,0.29,0.07,0.43
			c0.03-0.01,0.07-0.01,0.1-0.02C56.79,101.34,56.76,101.2,56.74,101.06z M120.65,66.74c-0.1,0.34,0.13,0.3,0.27,0.33
			c0.02,0,0.05-0.04,0.11-0.1C120.9,66.89,120.79,66.83,120.65,66.74z M23.75,79.46c0.12,0.09,0.17,0.16,0.22,0.16
			c0.06,0,0.12-0.06,0.19-0.1c-0.05-0.05-0.09-0.13-0.15-0.15C23.96,79.35,23.89,79.41,23.75,79.46z M119.74,99.69
			c0.04,0.03,0.07,0.07,0.11,0.1c0.1-0.1,0.21-0.2,0.31-0.29C119.91,99.43,119.77,99.49,119.74,99.69z M81.39,96.52
			c-0.04,0.02-0.07,0.05-0.11,0.07c0.06,0.1,0.11,0.2,0.17,0.3c0.04-0.02,0.07-0.04,0.11-0.06C81.5,96.73,81.45,96.63,81.39,96.52z
			 M40.68,133.27c-0.02-0.05-0.03-0.1-0.05-0.14c-0.06,0.01-0.15,0-0.19,0.04c-0.05,0.05-0.07,0.14-0.14,0.29
			C40.49,133.36,40.59,133.32,40.68,133.27z M91.87,29.28c-0.32-0.16-0.43-0.1-0.47,0.12c0,0.03,0.04,0.06,0.08,0.13
			C91.58,29.47,91.68,29.4,91.87,29.28z M135.96,72.59c0-0.33-0.13-0.3-0.39-0.17C135.74,72.5,135.85,72.55,135.96,72.59z
			 M70.24,70.45c0.01-0.05,0.02-0.11,0.02-0.16c-0.16,0-0.31,0-0.47,0c0,0.04-0.01,0.08-0.01,0.12
			C69.94,70.43,70.09,70.44,70.24,70.45z M97.07,72.1c-0.01,0.06-0.01,0.12-0.02,0.17c0.14,0,0.27,0,0.41,0
			c0-0.04,0.01-0.08,0.01-0.12C97.34,72.14,97.21,72.12,97.07,72.1z M30.7,75.68c0.05,0.03,0.1,0.06,0.15,0.09
			c0.05-0.08,0.11-0.17,0.16-0.25c-0.04-0.03-0.07-0.05-0.11-0.08C30.83,75.52,30.77,75.6,30.7,75.68z M73.96,118.08
			c0.05,0.02,0.11,0.04,0.16,0.06c0.04-0.11,0.08-0.23,0.12-0.34c-0.04-0.02-0.08-0.03-0.13-0.05
			C74.06,117.86,74.01,117.97,73.96,118.08z M88.68,37.12c0.05,0.02,0.11,0.04,0.16,0.06c0.04-0.11,0.09-0.22,0.13-0.33
			c-0.04-0.02-0.08-0.04-0.12-0.06C88.8,36.9,88.74,37.01,88.68,37.12z M83.6,87.46c0.03,0.04,0.05,0.08,0.08,0.12
			c0.07-0.07,0.13-0.14,0.2-0.21c-0.02-0.03-0.05-0.05-0.07-0.08C83.73,87.35,83.66,87.41,83.6,87.46z M57.96,86.39
			c0.05-0.01,0.1-0.02,0.14-0.03c-0.03-0.08-0.06-0.15-0.1-0.23c-0.03,0.01-0.05,0.02-0.08,0.02
			C57.94,86.23,57.95,86.31,57.96,86.39z M83.57,75.61c-0.04-0.05-0.09-0.1-0.13-0.15c-0.09,0.08-0.17,0.16-0.26,0.24
			c0.03,0.04,0.07,0.08,0.1,0.12C83.38,75.75,83.47,75.68,83.57,75.61z M30.21,76.24c0.02,0.03,0.05,0.06,0.07,0.09
			c0.04-0.03,0.09-0.06,0.12-0.1c0.03-0.05,0.03-0.11,0.08-0.28C30.33,76.11,30.27,76.17,30.21,76.24z M91.2,76.21
			c-0.03-0.01-0.07-0.01-0.1-0.02c-0.01,0.09-0.03,0.18-0.04,0.28c0.03,0.01,0.07,0.01,0.1,0.02C91.17,76.39,91.19,76.3,91.2,76.21z
			 M52.3,63.13c0.05-0.05,0.1-0.09,0.11-0.13c0-0.04-0.05-0.08-0.08-0.12c-0.05,0.04-0.11,0.08-0.16,0.13
			C52.2,63.05,52.24,63.08,52.3,63.13z M76.61,64.17c0.04-0.09,0.09-0.16,0.09-0.22c0-0.03-0.08-0.06-0.12-0.1
			c-0.04,0.06-0.09,0.12-0.11,0.18C76.46,64.06,76.54,64.1,76.61,64.17z M102.73,101.43c-0.03,0.03-0.07,0.07-0.1,0.1
			c0.08,0.07,0.16,0.15,0.24,0.22c0.01,0,0.07-0.07,0.11-0.1C102.89,101.57,102.81,101.5,102.73,101.43z M17.79,79.39
			c0.04,0,0.09,0,0.13,0c0.01-0.08,0.02-0.17,0.01-0.25c0-0.01-0.1-0.01-0.15-0.02C17.79,79.22,17.79,79.31,17.79,79.39z
			 M130.29,96.43c-0.02-0.03-0.04-0.06-0.06-0.08c-0.06,0.06-0.13,0.12-0.19,0.18c0.01,0.01,0.03,0.03,0.04,0.04
			C130.15,96.53,130.22,96.48,130.29,96.43z M80.64,134.59c-0.31-0.01-0.31-0.01-0.24,0.28C80.48,134.77,80.55,134.69,80.64,134.59z
			 M79.27,130.64c0.13,0.08,0.18,0.13,0.22,0.13c0.06-0.01,0.12-0.07,0.18-0.1c-0.03-0.04-0.07-0.1-0.1-0.1
			C79.51,130.56,79.44,130.59,79.27,130.64z M91.16,43.7c-0.1-0.03-0.17-0.07-0.24-0.07c-0.03,0-0.11,0.08-0.1,0.1
			c0.02,0.06,0.07,0.11,0.11,0.16C90.97,43.86,91.01,43.83,91.16,43.7z M17.52,28.29c0.05-0.09,0.11-0.14,0.1-0.17
			c-0.02-0.06-0.09-0.12-0.13-0.17c-0.04,0.05-0.12,0.11-0.12,0.16C17.38,28.15,17.45,28.2,17.52,28.29z M56.25,100.58
			c0.29-0.06,0.29-0.06,0.25-0.29C56.42,100.39,56.35,100.46,56.25,100.58z M124.59,99.87c-0.06-0.04-0.13-0.11-0.15-0.09
			c-0.06,0.03-0.1,0.1-0.15,0.15c0.06,0.03,0.12,0.08,0.19,0.08C124.5,100.01,124.54,99.93,124.59,99.87z M59.27,72.47
			c-0.07,0.05-0.15,0.1-0.14,0.11c0.03,0.06,0.06,0.12,0.11,0.16c0.01,0.01,0.12-0.05,0.12-0.07C59.34,72.61,59.3,72.55,59.27,72.47
			z M62.15,54.55c-0.09-0.05-0.14-0.09-0.19-0.09c-0.05,0-0.1,0.03-0.15,0.05c0.04,0.05,0.08,0.11,0.13,0.14
			C61.96,54.66,62.02,54.61,62.15,54.55z M15.7,71.46c0.05,0,0.09,0,0.14,0c-0.03-0.06-0.06-0.13-0.09-0.19
			C15.73,71.33,15.72,71.39,15.7,71.46z M79.06,96.65c0.03,0,0.05,0,0.08,0c-0.01-0.1-0.01-0.2-0.02-0.29c-0.02,0-0.04,0-0.06,0
			C79.06,96.45,79.06,96.55,79.06,96.65z M40.13,131.93c-0.02,0.09-0.05,0.15-0.04,0.19c0.02,0.04,0.09,0.07,0.13,0.1
			c0.02-0.05,0.05-0.11,0.04-0.15C40.26,132.02,40.2,131.99,40.13,131.93z M13.06,65.45c0.02,0.03,0.03,0.06,0.05,0.1
			c0.07-0.03,0.14-0.07,0.21-0.11c0,0-0.03-0.06-0.04-0.09C13.21,65.38,13.14,65.42,13.06,65.45z M15.96,43.38
			c0.04-0.1,0.08-0.16,0.08-0.22c0-0.04-0.06-0.08-0.1-0.12c-0.04,0.07-0.09,0.13-0.12,0.21C15.82,43.27,15.89,43.31,15.96,43.38z
			 M135.78,82.94c-0.04,0.04-0.07,0.09-0.11,0.13c0.09,0.07,0.17,0.13,0.26,0.2c0.03-0.03,0.05-0.06,0.08-0.08
			C135.93,83.1,135.86,83.02,135.78,82.94z M137.1,83.94c0.03,0.01,0.06,0.02,0.1,0.03c0.03-0.07,0.05-0.15,0.08-0.22
			c-0.03-0.01-0.09-0.03-0.1-0.02C137.15,83.8,137.13,83.87,137.1,83.94z M113.02,101.82c0.01-0.03,0.02-0.07,0.03-0.1
			c-0.05-0.02-0.1-0.05-0.15-0.06c-0.01,0-0.03,0.05-0.05,0.08C112.9,101.77,112.96,101.8,113.02,101.82z M40.57,131.76
			c0.04,0.02,0.08,0.04,0.13,0.06c0.02-0.1,0.05-0.19,0.07-0.29c-0.02-0.01-0.04-0.01-0.07-0.02
			C40.66,131.59,40.62,131.68,40.57,131.76z M10.17,69.92c0.06-0.06,0.13-0.08,0.14-0.12c0.01-0.04-0.04-0.09-0.06-0.14
			c-0.04,0.03-0.1,0.05-0.12,0.09C10.12,69.79,10.15,69.84,10.17,69.92z M15.09,48.03c0,0.04,0,0.09,0,0.13
			c0.09-0.01,0.17-0.01,0.26-0.02c0-0.02,0-0.05,0-0.07C15.26,48.05,15.18,48.04,15.09,48.03z M37.07,10.44c0.05,0,0.1,0,0.16,0
			c-0.02-0.1-0.03-0.2-0.05-0.31c-0.02,0-0.04,0-0.06,0C37.1,10.24,37.09,10.34,37.07,10.44z M102.06,69.6
			c0.05-0.16,0.09-0.21,0.08-0.26c0-0.05-0.04-0.09-0.06-0.14c-0.04,0.03-0.1,0.05-0.11,0.09C101.97,69.33,102,69.38,102.06,69.6z
			 M72.93,50.69c-0.07,0.06-0.15,0.1-0.16,0.15c-0.01,0.04,0.07,0.1,0.11,0.15c0.05-0.05,0.11-0.09,0.15-0.15
			C73.04,50.83,72.98,50.77,72.93,50.69z M75.86,111.35c-0.01,0.02-0.03,0.03-0.04,0.05c0.06,0.05,0.11,0.09,0.17,0.14
			c0.02-0.02,0.03-0.04,0.05-0.06C75.98,111.43,75.92,111.39,75.86,111.35z M111.7,101.9c0.05-0.05,0.11-0.08,0.11-0.12
			c0-0.04-0.08-0.11-0.09-0.11c-0.05,0.02-0.1,0.07-0.14,0.11C111.61,101.82,111.65,101.85,111.7,101.9z M61.63,122.3
			c-0.03-0.04-0.05-0.07-0.07-0.1c-0.03,0.02-0.07,0.04-0.08,0.07c-0.01,0.03,0.01,0.07,0.02,0.1
			C61.54,122.35,61.59,122.33,61.63,122.3z M111.89,100.99c0.07-0.04,0.14-0.06,0.16-0.1c0.01-0.02-0.04-0.12-0.07-0.12
			c-0.05,0-0.11,0.03-0.14,0.07C111.83,100.86,111.87,100.92,111.89,100.99z M56.76,124.68c-0.03,0-0.07,0-0.1-0.01
			c-0.01,0.03-0.05,0.08-0.04,0.1c0.02,0.05,0.06,0.1,0.09,0.14C56.73,124.84,56.74,124.76,56.76,124.68z M81.78,97.26
			c-0.09-0.04-0.14-0.07-0.21-0.09c-0.01,0-0.05,0.07-0.04,0.09c0.04,0.06,0.09,0.1,0.13,0.15C81.69,97.37,81.72,97.33,81.78,97.26z
			 M133.6,95.49c0.04,0.01,0.09,0.03,0.13,0.04c0.03-0.08,0.05-0.15,0.07-0.23c0,0-0.09-0.04-0.09-0.03
			C133.67,95.34,133.63,95.42,133.6,95.49z M84.15,84.96c-0.09,0.08-0.15,0.11-0.16,0.15c-0.01,0.04,0.05,0.08,0.08,0.12
			c0.05-0.04,0.11-0.08,0.15-0.13C84.23,85.08,84.18,85.01,84.15,84.96z M20.11,84.84c-0.02-0.05-0.04-0.11-0.05-0.11
			c-0.04,0-0.08,0.02-0.1,0.05c-0.02,0.02,0,0.07,0,0.1C20,84.87,20.05,84.85,20.11,84.84z M43.35,81.09
			c-0.05-0.02-0.1-0.05-0.14-0.05c-0.02,0-0.04,0.04-0.07,0.07c0.04,0.03,0.08,0.06,0.13,0.07C43.28,81.18,43.31,81.13,43.35,81.09z
			 M115.66,75.15c0.02-0.26,0.02-0.26-0.21-0.36C115.53,74.93,115.58,75.02,115.66,75.15z M42.72,130.16
			c-0.03-0.03-0.05-0.06-0.08-0.08c-0.02,0.04-0.05,0.08-0.06,0.12c0,0.01,0.06,0.04,0.09,0.06
			C42.69,130.23,42.7,130.19,42.72,130.16z M135.25,73.45c-0.05,0.06-0.1,0.09-0.1,0.13c0,0.05,0.04,0.1,0.06,0.14
			c0.05-0.04,0.11-0.08,0.14-0.13C135.36,73.57,135.3,73.51,135.25,73.45z M131.35,69.44c-0.08-0.04-0.13-0.09-0.18-0.1
			c-0.03,0-0.09,0.09-0.09,0.1c0.04,0.05,0.09,0.09,0.15,0.14C131.25,69.55,131.29,69.51,131.35,69.44z M39.7,67.72
			c-0.07-0.05-0.12-0.11-0.16-0.11c-0.03,0-0.07,0.07-0.08,0.11c0,0.01,0.05,0.07,0.08,0.06C39.58,67.78,39.63,67.75,39.7,67.72z
			 M41.98,66.75c0.02,0.03,0.03,0.06,0.05,0.09c0.07-0.04,0.15-0.08,0.22-0.13c-0.03-0.04-0.05-0.08-0.08-0.12
			C42.11,66.65,42.05,66.7,41.98,66.75z M14.34,60.24c-0.03,0.03-0.06,0.07-0.09,0.1c0.07,0.05,0.14,0.11,0.22,0.16
			c0.02-0.02,0.04-0.04,0.06-0.07C14.46,60.37,14.4,60.3,14.34,60.24z M109.1,60c0.05,0,0.09,0.01,0.14,0.01
			c-0.01-0.08-0.01-0.17-0.02-0.25c-0.03,0-0.06,0-0.1,0C109.12,59.84,109.11,59.92,109.1,60z M89.3,39.82
			c-0.02-0.02-0.05-0.06-0.07-0.06c-0.03,0-0.06,0.03-0.09,0.05c0.03,0.03,0.06,0.06,0.09,0.08C89.25,39.87,89.28,39.85,89.3,39.82z
			 M92.99,38.94c-0.05-0.06-0.08-0.1-0.12-0.14c-0.04,0.04-0.11,0.07-0.11,0.11c0,0.04,0.05,0.11,0.09,0.12
			C92.88,39.04,92.93,38.98,92.99,38.94z M90.08,38.9c-0.04-0.02-0.07-0.04-0.1-0.06c-0.01,0.02-0.03,0.05-0.03,0.07
			c0,0.01,0.03,0.03,0.04,0.03C90.02,38.94,90.05,38.92,90.08,38.9z M13.84,35.33c-0.07-0.06-0.11-0.1-0.15-0.13
			c-0.04,0.05-0.1,0.1-0.11,0.16c-0.01,0.03,0.08,0.11,0.09,0.11C13.72,35.44,13.77,35.39,13.84,35.33z M88.98,28.3
			c-0.15-0.08-0.19-0.12-0.24-0.12c-0.02,0-0.07,0.06-0.06,0.09c0.01,0.05,0.05,0.11,0.08,0.12C88.81,28.38,88.87,28.34,88.98,28.3z
			"></path>
		<path d="M56.27,105.35c0.38-0.07,0.54,0.28,0.75,0.46c0.25,0.21,0.14,0.52-0.11,0.76c-0.07,0.06,0.04,0.29,0.01,0.42
			c-0.02,0.11-0.12,0.2-0.19,0.3c-0.07-0.1-0.23-0.24-0.2-0.29c0.16-0.3,0-0.53-0.1-0.81c-0.13-0.02-0.27-0.05-0.49-0.08
			c0.28-0.24,0.5-0.44,0.35-0.77L56.27,105.35z"></path>
		<path d="M56.28,105.34c-0.32-0.35-0.3-0.77-0.29-1.22c0.73,0.59,0.77,0.77,0.27,1.22C56.27,105.35,56.28,105.34,56.28,105.34z"></path>
		<path d="M42,82.9c0.28,0.43,0.24,0.65-0.18,0.95c-0.22-0.15-0.18-0.31-0.05-0.5c0.09-0.14,0.17-0.29,0.24-0.44
			C42.01,82.9,42,82.9,42,82.9z"></path>
	</g>
</g>
</svg>