<svg width="25" height="25" viewBox="0 0 25 25" fill="none" xmlns="http://www.w3.org/2000/svg">
<path d="M12.4999 2.25225C15.8375 2.25225 16.2329 2.265 17.551 2.32514C18.7697 2.38071 19.4316 2.58435 19.872 2.75553C20.4555 2.98229 20.8719 3.25316 21.3093 3.69055C21.7467 4.12799 22.0176 4.54439 22.2443 5.12786C22.4155 5.56832 22.6191 6.23019 22.6747 7.44893C22.7349 8.767 22.7476 9.16236 22.7476 12.5C22.7476 15.8376 22.7349 16.233 22.6747 17.5511C22.6191 18.7698 22.4155 19.4317 22.2443 19.8721C22.0176 20.4556 21.7467 20.872 21.3093 21.3094C20.8719 21.7468 20.4555 22.0177 19.872 22.2445C19.4316 22.4157 18.7697 22.6193 17.551 22.6749C16.2331 22.735 15.8378 22.7478 12.4999 22.7478C9.16206 22.7478 8.7668 22.735 7.44888 22.6749C6.23015 22.6193 5.56829 22.4157 5.12783 22.2445C4.54436 22.0177 4.12796 21.7468 3.69058 21.3094C3.25319 20.872 2.98227 20.4556 2.75551 19.8721C2.58433 19.4317 2.3807 18.7698 2.32512 17.5511C2.26499 16.233 2.25223 15.8376 2.25223 12.5C2.25223 9.16236 2.26499 8.767 2.32512 7.44893C2.3807 6.23019 2.58433 5.56832 2.75551 5.12786C2.98227 4.54439 3.25314 4.12799 3.69058 3.6906C4.12796 3.25316 4.54436 2.98229 5.12783 2.75553C5.56829 2.58435 6.23015 2.38071 7.44888 2.32514C8.76695 2.265 9.16231 2.25225 12.4999 2.25225ZM12.4999 0C9.10515 0 8.67947 0.0143895 7.34622 0.0752221C6.01575 0.135906 5.10708 0.347233 4.312 0.656209C3.49002 0.975655 2.79293 1.40307 2.09797 2.09798C1.40306 2.79294 0.975649 3.49004 0.656254 4.31203C0.34723 5.10712 0.135905 6.01579 0.0752217 7.34627C0.0143894 8.67952 0 9.1052 0 12.5C0 15.8948 0.0143894 16.3205 0.0752217 17.6537C0.135905 18.9842 0.34723 19.8929 0.656254 20.688C0.975649 21.51 1.40306 22.2071 2.09797 22.902C2.79293 23.5969 3.49002 24.0243 4.312 24.3437C5.10708 24.6528 6.01575 24.8641 7.34622 24.9248C8.67947 24.9856 9.10515 25 12.4999 25C15.8947 25 16.3204 24.9856 17.6536 24.9248C18.9841 24.8641 19.8928 24.6528 20.6878 24.3437C21.5098 24.0243 22.2069 23.5969 22.9019 22.902C23.5968 22.2071 24.0242 21.51 24.3436 20.688C24.6526 19.8929 24.8639 18.9842 24.9246 17.6537C24.9855 16.3205 24.9998 15.8948 24.9998 12.5C24.9998 9.1052 24.9855 8.67952 24.9246 7.34627C24.8639 6.01579 24.6526 5.10712 24.3436 4.31203C24.0242 3.49004 23.5968 2.79294 22.9019 2.09798C22.2069 1.40307 21.5098 0.975655 20.6878 0.656209C19.8928 0.347233 18.9841 0.135906 17.6536 0.0752221C16.3204 0.0143895 15.8947 0 12.4999 0Z" fill="#ebe0ce"></path>
<path d="M12.5068 6.08691C8.9617 6.08691 6.08789 8.96074 6.08789 12.5058C6.08789 16.0509 8.9617 18.9247 12.5068 18.9247C16.0518 18.9247 18.9256 16.0509 18.9256 12.5058C18.9256 8.96074 16.0518 6.08691 12.5068 6.08691ZM12.5068 16.6725C10.2056 16.6725 8.34013 14.807 8.34013 12.5058C8.34013 10.2046 10.2056 8.33916 12.5068 8.33916C14.808 8.33916 16.6734 10.2046 16.6734 12.5058C16.6734 14.807 14.808 16.6725 12.5068 16.6725Z" fill="#ebe0ce"></path>
<path d="M20.6797 5.82913C20.6797 6.65752 20.0081 7.32911 19.1797 7.32911C18.3513 7.32911 17.6797 6.65752 17.6797 5.82913C17.6797 5.00069 18.3513 4.3291 19.1797 4.3291C20.0081 4.3291 20.6797 5.00069 20.6797 5.82913Z" fill="#ebe0ce"></path>
</svg>