<svg width="36" height="22" viewBox="0 0 36 22" fill="none" xmlns="http://www.w3.org/2000/svg">
<path d="M35.1013 10.8608C35.1013 16.8396 30.2641 21.6768 24.2853 21.6768C21.7616 21.6768 19.4482 20.8055 17.6155 19.3634C20.1392 17.3804 21.7315 14.3159 21.7315 10.8608C21.7315 7.40575 20.1092 4.34125 17.6155 2.35833C19.4482 0.916208 21.7616 0.0449219 24.2853 0.0449219C30.2641 0.0449219 35.1013 4.91209 35.1013 10.8608Z" fill="#ebe0ce"></path>
<path d="M17.6155 2.35833C17.6155 2.35833 17.6155 2.35833 17.6155 2.35833C20.1092 4.34125 21.7315 7.40575 21.7315 10.8608C21.7315 14.3159 20.1392 17.3804 17.6155 19.3634L17.5853 19.3634C15.0917 17.4105 13.4693 14.3159 13.4693 10.8609C13.4693 7.40582 15.0917 4.34131 17.5854 2.35839C17.5854 2.35837 17.5854 2.35841 17.5854 2.35839L17.6155 2.35833Z" fill="#ebe0ce" fill-opacity="0.75"></path>
<path d="M13.4693 10.8609C13.4693 7.40582 15.0917 4.34131 17.5854 2.35839C15.7527 0.91627 13.4393 0.0449686 10.9156 0.0449686C4.93675 0.0449686 0.0996094 4.88209 0.0996094 10.8609C0.0996094 16.8397 4.93675 21.6768 10.9156 21.6768C13.4393 21.6768 15.7526 20.8055 17.5853 19.3634C15.0917 17.4105 13.4693 14.3159 13.4693 10.8609Z" fill="#ebe0ce" fill-opacity="0.5"></path>
</svg>