<svg width="11" height="19" viewBox="0 0 11 19" fill="none" xmlns="http://www.w3.org/2000/svg">
<path opacity="0.9" d="M5.28641 5.09382C5.23691 5.07702 5.19182 5.07352 5.1928 4.97762C5.1928 4.95242 5.18152 4.91112 5.16878 4.90482C5.06831 4.85792 4.96685 4.78582 4.86491 4.78302C4.74777 4.78022 4.68454 4.67102 4.60465 4.59472C4.54143 4.53452 4.49046 4.44912 4.43311 4.37702C4.42135 4.36162 4.40469 4.34272 4.39096 4.34342C4.31156 4.34902 4.29784 4.28672 4.29441 4.18872C4.28853 4.02842 4.24099 4.00252 4.13512 4.06763C4.10326 4.08722 4.05817 4.07043 4.02043 4.06133C3.99887 4.05643 3.98024 4.02143 3.95966 4.01933C3.76165 4.00323 3.65726 3.78903 3.53032 3.61753C3.48817 3.56083 3.42935 3.51673 3.37299 3.49713C3.29163 3.46913 3.21664 3.46563 3.13528 3.38863C3.0598 3.31723 2.96472 3.26613 2.88826 3.18353C2.80739 3.09673 2.73191 2.99873 2.65448 2.90493C2.64712 2.89583 2.64418 2.86923 2.63928 2.86923C2.49862 2.87273 2.46823 2.63683 2.33933 2.59413C2.28003 2.57453 2.23984 2.44153 2.18886 2.36313C2.17073 2.33513 2.14818 2.30783 2.12417 2.29243C2.06143 2.25253 1.99429 2.22523 1.93302 2.18113C1.91538 2.16853 1.90508 2.11533 1.90459 2.08033C1.90263 1.98933 1.87127 1.96343 1.81294 1.97113C1.71786 1.98373 1.64581 1.93543 1.60611 1.80313C1.60072 1.78563 1.58112 1.77653 1.56837 1.76323C1.50809 1.69673 1.42918 1.65683 1.44094 1.50633C1.44437 1.46293 1.39781 1.40623 1.36841 1.36423C1.26303 1.21303 1.15226 1.06953 1.04983 0.91413C1.02336 0.87353 1.0116 0.80493 1.00572 0.74683C0.998367 0.67543 1.00964 0.599831 1.00278 0.528431C0.980722 0.300231 1.05816 0.164431 1.19245 0.0643314C1.34096 -0.0462684 1.39487 -0.0224685 1.463 0.200131C1.47035 0.224631 1.49535 0.252631 1.51299 0.254031C1.59288 0.258931 1.63209 0.340131 1.68355 0.408731C1.76099 0.510931 1.8546 0.587931 1.93498 0.68593C1.98595 0.74823 2.02418 0.83013 2.06927 0.90223C2.08888 0.93373 2.1075 0.97363 2.13299 0.98833C2.21484 1.03733 2.29424 1.08213 2.29865 1.23683C2.29914 1.26063 2.31433 1.29493 2.32904 1.30333C2.39324 1.34113 2.46333 1.36213 2.5241 1.40763C2.57704 1.44753 2.61772 1.51823 2.66869 1.56513C2.76916 1.65823 2.87209 1.74573 2.9755 1.83253C2.98628 1.84163 3.01226 1.83393 3.02108 1.82063C3.07892 1.73243 3.11764 1.74993 3.17988 1.83183C3.28918 1.97673 3.41269 2.10063 3.53571 2.22173C3.57639 2.26163 3.63373 2.27423 3.68519 2.28403C3.75577 2.29803 3.83762 2.24903 3.88369 2.37503C3.8881 2.38623 3.90869 2.39183 3.92094 2.38973C4.00181 2.37573 4.03514 2.46533 4.07925 2.53323C4.09248 2.55283 4.10522 2.58153 4.1214 2.58783C4.21991 2.62423 4.32088 2.64663 4.41743 2.69073C4.47085 2.71453 4.54241 2.75513 4.56103 2.81603C4.60612 2.96443 4.76247 2.90983 4.78404 3.08903C4.78551 3.10023 4.86442 3.11773 4.88892 3.09393C5.00263 2.98333 5.00361 2.97493 5.06733 3.12753L5.55499 3.42503C5.55597 3.44393 5.63439 3.48523 5.66037 3.46703C5.75741 3.39983 5.75496 3.39213 5.77604 3.51183C5.85201 3.50203 5.92846 3.46983 5.99757 3.48943C6.06717 3.50903 6.12794 3.56993 6.16813 3.67773C6.22695 3.83593 6.33036 3.84153 6.42985 3.72393C6.44407 3.70713 6.49553 3.71483 6.50141 3.73233C6.54307 3.84783 6.71265 3.84013 6.71461 4.00112C6.71461 4.01582 6.78519 4.04872 6.81852 4.03962C6.92928 4.01092 7.02682 4.01372 7.10867 4.14882C7.13268 4.18872 7.17826 4.20972 7.21698 4.22442C7.30569 4.25802 7.39784 4.27412 7.39833 4.45542C7.39833 4.47432 7.46204 4.49462 7.49635 4.51142C7.54389 4.53522 7.59437 4.54922 7.63848 4.58142C7.66054 4.59752 7.68407 4.64162 7.68603 4.67592C7.6924 4.79632 7.7272 4.88172 7.80562 4.93212C7.81787 4.93982 7.82228 4.97132 7.83355 4.98672C7.84629 5.00422 7.86247 5.01682 7.87717 5.03152C7.8855 5.01262 7.90119 4.99372 7.90168 4.97412C7.90511 4.85092 7.92814 5.25692 7.9948 5.25972C8.06881 5.26322 8.08302 4.85932 8.15703 4.95172C8.20898 5.01612 8.22025 5.06932 8.21388 5.14352C8.2031 5.26672 8.2379 5.30942 8.32171 5.30732C8.67459 5.41022 8.91426 5.49562 9.2 5.83162C9.56416 5.74832 9.22941 6.05142 9.62689 6.07592C9.49162 6.28872 9.81608 6.54072 9.92587 6.63802C10.0778 7.03492 10.0116 7.25892 10.3464 6.91522C10.5174 7.32052 10.7909 7.24982 10.6522 7.83852C10.7733 8.21722 11.0007 8.39712 10.9669 8.81922C11.1271 9.22872 10.6679 10.348 10.714 10.5657C10.6591 10.7183 9.90773 11.2713 10.1587 11.461C9.67738 11.8943 10.0533 11.8649 9.51466 12.0742C9.48035 12.6559 9.04169 12.7833 8.88437 13.0479C8.75791 13.3846 8.44767 13.7115 8.2428 13.3748C8.20163 13.7591 7.96196 13.8333 7.79826 14.0818C7.71739 14.0881 7.6674 14.1588 7.62525 14.2442C7.59584 14.3037 7.57722 14.2904 7.54732 14.24C7.49782 14.1574 7.45812 14.1735 7.40519 14.2498C7.36402 14.3093 7.32285 14.3562 7.30667 14.4472C7.29344 14.52 7.20718 14.5039 7.1763 14.4346C7.14151 14.3569 7.10426 14.2799 7.05966 14.2141C7.04446 14.1917 6.99153 14.1854 6.9783 14.2036C6.94399 14.2512 6.91164 14.3121 6.89792 14.3765C6.86998 14.5081 6.7597 14.5557 6.68079 14.464C6.65531 14.4339 6.62247 14.4171 6.59257 14.394C6.56709 14.4766 6.48867 14.5305 6.51464 14.6362C6.52445 14.6754 6.57199 14.7034 6.6063 14.7202C6.63717 14.7356 6.67393 14.7293 6.70775 14.7328L6.70628 14.7307C6.69354 14.7755 6.68079 14.8196 6.66854 14.8651C6.64208 14.9645 6.59992 14.9687 6.54013 14.9183C6.49994 14.884 6.45534 14.8581 6.41025 14.8399C6.3534 14.8168 6.30536 14.8042 6.27351 14.9204C6.24361 15.0296 6.18479 15.1255 6.13088 15.2179C6.11422 15.2459 6.06913 15.2557 6.0407 15.248C6.01963 15.2417 6.00198 15.1955 5.98728 15.1626C5.97404 15.1325 5.96669 15.0975 5.95689 15.0646C5.93876 15.0877 5.92356 15.1227 5.90249 15.1332L5.55156 15.7835C5.55156 15.7835 5.50647 15.7541 5.49765 15.7275C5.48687 15.6946 5.49569 15.6498 5.48932 15.6127C5.48197 15.5707 5.46775 15.5315 5.45648 15.4909C5.42462 15.5105 5.3908 15.5245 5.36238 15.5511C5.34424 15.5679 5.33395 15.6029 5.32954 15.6106C5.28788 15.5644 5.25455 15.5056 5.21289 15.4881C5.17025 15.4706 5.0585 15.6498 5.05409 15.7184C5.04723 15.8339 5.07713 15.9662 4.98156 16.0432C4.9742 16.0495 4.97273 16.0796 4.97371 16.0985C4.9796 16.1993 4.95705 16.2567 4.87667 16.249C4.85805 16.2469 4.83648 16.2742 4.81835 16.2931C4.73944 16.375 4.66886 16.4947 4.58064 16.5332C4.47673 16.5787 4.39145 16.6452 4.3096 16.7404C4.29147 16.7614 4.25373 16.7474 4.22481 16.7495C4.17188 16.7537 4.11846 16.7586 4.06553 16.7635C3.88467 16.6732 3.79792 17.0568 3.64941 16.76C3.46072 16.8993 3.36662 17.2458 3.12499 17.3214C3.22448 17.4432 2.35697 17.8681 2.19229 18.027C1.85117 18.027 2.19671 18.3049 1.9835 18.4778C1.46055 19.042 0.737624 18.9454 0.498446 19C0.363174 18.7613 0.642051 18.5863 0.406794 18.4799C0.169087 18.4505 0.500407 18.2111 0.333277 18.1222C0.284755 17.7008 0.735663 18.0501 0.708217 17.6322C0.630778 17.3347 0.381308 17.8499 0.237704 17.7316C0.190652 17.4915 0.106842 17.7232 0.000976562 17.7155C0.396502 17.1009 0.440612 17.5503 0.842509 16.41C1.04248 15.8808 1.51103 16.2742 1.56886 15.9102C1.75805 15.9347 2.55351 14.6306 2.88973 14.9988C3.00932 15.1381 3.03922 14.8322 3.1093 14.7475C3.25438 14.8357 3.3676 14.6495 3.46513 14.5179C3.63961 14.5158 3.48964 14.2176 3.57443 14.1105C3.79498 14.1553 3.98073 13.6527 4.18462 13.9712C4.21697 13.897 4.25667 13.8347 4.27432 13.7612C4.29784 13.6625 4.34146 13.6373 4.40567 13.6422C4.46889 13.6464 4.52918 13.6471 4.53898 13.5197C4.54143 13.4889 4.57868 13.4609 4.60318 13.4378C4.62181 13.4196 4.65563 13.4196 4.66445 13.3972C4.71199 13.2761 4.7463 13.3405 4.78502 13.4175C4.88059 13.2845 4.97028 13.1466 5.06978 13.0276C5.10114 12.9905 5.16143 12.987 5.20652 12.9933C5.28249 13.0045 5.32415 12.9541 5.36385 12.8729C5.38198 12.8358 5.41727 12.8106 5.44815 12.7924H5.84955C5.87063 12.7728 5.90249 12.7658 5.92846 12.7693C6.02159 12.7819 6.0755 12.6944 6.13578 12.6174C6.15637 12.5908 6.18578 12.5712 6.21322 12.5649C6.25684 12.5551 6.30193 12.5558 6.34604 12.5593C6.4671 12.5705 6.56219 12.4928 6.6509 12.3878C6.66511 12.371 6.68717 12.3661 6.70628 12.3598C6.72588 12.3528 6.75872 12.3598 6.76411 12.3451C6.81558 12.2023 6.91066 12.2625 6.98761 12.2366C7.04348 12.2177 7.10426 12.1834 7.14543 12.1288C7.19248 12.0672 7.21943 11.9748 7.25619 11.8971C7.2655 11.8775 7.27531 11.8467 7.28707 11.8439C7.38411 11.8201 7.46743 11.755 7.55516 11.6955C7.63358 11.6416 7.73014 11.6395 7.80905 11.5863C8.28936 10.9864 9.49701 10.7883 9.21274 9.65712C9.2647 9.38762 9.25587 9.23432 9.47496 9.23012C8.76037 9.12512 9.48182 8.95852 8.81624 8.56792C8.9074 7.97572 8.2031 7.83082 7.85855 7.51512C7.74386 7.41432 7.65466 7.28202 7.61741 7.09232C7.5983 6.99642 7.54389 7.01672 7.50076 7.01742C7.4145 7.01952 7.33167 7.02302 7.27727 6.90262C7.27041 6.88722 7.25031 6.87812 7.24933 6.86412C7.23855 6.64922 7.10328 6.67162 7.01456 6.59882C6.96163 6.55542 6.92634 6.46652 6.88419 6.39722C6.86508 6.36572 6.84939 6.30482 6.82979 6.30272C6.74353 6.29502 6.67295 6.25722 6.62247 6.15152C6.59453 6.09342 6.5617 6.03952 6.53131 5.98422C6.4524 6.10182 6.45289 6.10042 6.33428 5.97582C6.25635 5.89392 6.17548 5.81902 6.09853 5.73502C6.07648 5.71122 6.06374 5.66992 6.04707 5.63632C6.0358 5.61392 6.02894 5.57822 6.01423 5.56912C5.93238 5.51872 5.84661 5.48022 5.76574 5.42562C5.68389 5.37032 5.60155 5.30802 5.57705 5.16382C5.57264 5.13792 5.56431 5.10362 5.55009 5.09172H5.28249L5.28641 5.09382Z" fill="#273f2b"></path>
</svg>