<svg id="cls-1" width="25" height="25" xmlns="http://www.w3.org/2000/svg"><defs><style>.cls-1{fill:#ebe0ce;stroke-width:25px;}</style></defs><path d="m20.73,6.16c-2.45-.52-4.27-2.57-4.5-5.06v-.53h-4.11v16.31c0,1.91-1.56,3.45-3.47,3.44-1.07,0-2.09-.51-2.74-1.36h0s0,0,0,0c-1.15-1.52-.86-3.69.66-4.84.9-.68,2.07-.88,3.14-.54v-4.18c-4.13-.57-7.94,2.31-8.51,6.45-.32,2.31.45,4.64,2.08,6.31,2.92,2.98,7.7,3.04,10.68.12,1.45-1.42,2.27-3.37,2.27-5.4v-8.33c1.66,1.19,3.65,1.82,5.69,1.82v-4.08c-.4,0-.8-.04-1.2-.12Z" fill="#ebe0ce"></path></svg>