<svg id="cls-1" width="25" height="25" xmlns="http://www.w3.org/2000/svg"><defs><style>.cls-1{fill:#ebe0ce;stroke-width:25px;}</style></defs><path class="cls-1" d="m21.74,20.27c-1.18-1.71-2.35-3.42-3.53-5.13-1.01-1.47-2.03-2.95-3.04-4.42-.03-.04-.04-.07,0-.11.98-1.13,1.95-2.27,2.93-3.4,1.9-2.21,3.8-4.41,5.69-6.62.02-.02.03-.04.06-.07-.02,0-.04,0-.05,0-.66,0-1.31,0-1.97,0-.03,0-.06.02-.08.04-2.38,2.76-4.76,5.53-7.13,8.29-.13.16-.27.31-.41.47-.02-.03-.03-.05-.05-.07-.83-1.21-1.66-2.42-2.49-3.62-1.16-1.69-2.32-3.38-3.48-5.07-.03-.04-.05-.05-.1-.05-2.31,0-4.61,0-6.92,0h0c.08.12.16.24.24.35.94,1.37,1.89,2.75,2.83,4.12.88,1.29,1.77,2.57,2.65,3.86.9,1.31,1.8,2.63,2.71,3.94.23.33.45.66.68.99.03.05.03.08,0,.12-1.58,1.83-3.15,3.66-4.73,5.49-1.45,1.68-2.89,3.36-4.34,5.04-.01.01-.03.03-.04.04.02,0,.03.01.05.01.68,0,1.35,0,2.03,0,.06-.07.11-.14.17-.21,1.56-1.81,3.12-3.63,4.68-5.44,1.03-1.2,2.07-2.41,3.1-3.61.01-.01.02-.03.04-.05.02.03.04.06.06.09,1,1.46,2,2.91,3,4.37.94,1.37,1.88,2.73,2.82,4.1.15.22.31.45.46.67.02.02.03.05.04.07h6.99s-.03-.04-.04-.06c-.95-1.38-1.9-2.76-2.85-4.14Zm-.02,2.71c-1.01,0-2.03,0-3.04,0-.05,0-.07-.01-.1-.05-1.44-2.07-2.89-4.14-4.34-6.2-1.76-2.52-3.52-5.04-5.29-7.56-1.64-2.35-3.28-4.69-4.92-7.04-.01-.02-.02-.03-.04-.06.03,0,.05,0,.07,0,1.02,0,2.03,0,3.05,0,.04,0,.07.01.09.05,1.93,2.76,3.86,5.52,5.79,8.28,1.5,2.15,3,4.29,4.5,6.44,1.42,2.03,2.84,4.06,4.26,6.09.01.02.02.03.04.06h-.07Z"></path></svg>