<svg width="47" height="16" viewBox="0 0 47 16" fill="none" xmlns="http://www.w3.org/2000/svg">
<path d="M13.1658 0.76265L9.49664 10.6432L9.09569 8.6393L9.09532 8.63805L7.7853 1.98064C7.56957 1.05521 6.90659 0.793176 6.08954 0.76265H0.0616675L0 1.05542C1.47018 1.43137 2.78511 1.97311 3.93727 2.6467L7.27659 15.2369H11.2385L17.1275 0.76265H13.1658Z" fill="#ebe0ce"></path>
<path d="M20.0416 15.2523H16.295L18.6384 0.76265H22.3848L20.0416 15.2523Z" fill="#ebe0ce"></path>
<path d="M33.6233 1.11688C32.8843 0.823704 31.7122 0.5 30.2629 0.5C26.563 0.5 23.9576 2.47295 23.9417 5.29368C23.9109 7.37481 25.8071 8.53072 27.2252 9.22463C28.6747 9.93371 29.1674 10.3965 29.1674 11.0286C29.1527 11.9993 27.9962 12.4467 26.9175 12.4467C25.4217 12.4467 24.6202 12.216 23.4022 11.676L22.9089 11.4445L22.3846 14.6971C23.2633 15.0974 24.8822 15.4526 26.563 15.4682C30.4942 15.4682 33.0535 13.5258 33.0839 10.5199C33.0988 8.8704 32.0976 7.60652 29.939 6.57374C28.6286 5.91077 27.8261 5.46373 27.8261 4.78538C27.8415 4.16871 28.5049 3.53708 29.9841 3.53708C31.2021 3.50614 32.097 3.79891 32.7749 4.09188L33.1138 4.24574L33.6233 1.11688Z" fill="#ebe0ce"></path>
<path fill-rule="evenodd" clip-rule="evenodd" d="M43.2275 0.76265H40.3295C39.4358 0.76265 38.7569 1.02448 38.3713 1.96486L32.8062 15.2521H36.7374C36.7374 15.2521 37.3846 13.4637 37.5237 13.0785H42.334C42.4415 13.5872 42.781 15.2521 42.781 15.2521H46.25L43.2275 0.76265ZM38.6028 10.1191C38.9113 9.2867 40.0986 6.06503 40.0986 6.06503C40.0923 6.07744 40.1406 5.94359 40.2126 5.74399L40.2135 5.74155L40.2141 5.73995C40.3216 5.44182 40.4813 4.99931 40.5915 4.67782L40.8534 5.92633C40.8534 5.92633 41.5628 9.39467 41.7169 10.1191H38.6028Z" fill="#ebe0ce"></path>
</svg>