<svg width="324" height="7" viewBox="0 0 324 7" fill="white" xmlns="http://www.w3.org/2000/svg">
<path d="M145.978 5.70282L147.575 6.07481C145.653 6.68524 144.273 6.47541 145.762 7C145.978 5.70282 151.946 6.86647 152.163 5.56929L153.218 5.83636C152.921 5.82682 152.866 5.90312 152.569 5.88405C154.612 6.50402 154.084 4.94932 156.71 5.13054C157.63 5.22592 158.266 5.41668 157.643 5.56929L159.687 5.245C160.282 5.27361 160.133 5.49299 159.552 5.47391L162.664 5.36899L162.637 5.40714C163.084 5.20684 164.085 4.89209 164.572 4.75855C165.357 4.93978 164.18 4.89209 164.383 5.05423L166.101 4.73948C166.805 5.07331 165.371 5.3976 164.18 5.34991C165.79 6.63755 165.614 5.02562 169.079 5.77913L167.455 5.94127C168.51 6.67571 169.769 6.40864 171.609 6.86647C171.176 6.62802 167.928 5.71236 169.796 5.38807C170.324 5.48345 171.014 5.53114 172.029 5.27361C172.029 5.73144 173.03 5.61698 174.262 5.58837L174.18 6.1988C175.507 6.01758 175.412 5.71236 176.197 5.43576C177.685 5.49299 177.997 5.96989 178.335 6.36095C180.717 6.45633 176.697 5.60744 179.512 5.48345C181.488 5.71236 182.882 5.46437 185.25 5.10192C186.63 5.31176 185.007 5.47391 185.507 5.64559L186.739 5.15915C187.036 5.16869 186.942 5.3213 186.888 5.3976C187.916 5.20684 186.969 4.78717 188.593 4.62502C189.026 3.94782 191.935 5.60744 193.938 4.83486C194.439 5.00654 193.695 5.20684 193.857 5.44529C196.618 4.93978 196.225 5.08285 198.485 4.40565L200.42 4.80624C198.999 4.34842 200.813 3.80475 202.396 3.35646C201.895 3.13708 201.462 2.94632 201.178 2.85094L203.709 2.51711C204.02 2.61249 203.763 2.82233 203.343 3.07985C203.519 3.03216 203.682 2.97494 203.803 2.93678C204.71 3.1657 204.237 3.51861 203.587 3.85244C203.276 3.72844 202.964 3.60445 202.667 3.48045C202.044 3.85244 201.462 4.26257 201.584 4.61548C201.747 4.54872 202.071 4.48195 202.41 4.45334C202.247 4.55825 202.139 4.6441 202.22 4.70133C202.301 4.76809 202.572 4.63456 202.978 4.47241L203.56 5.14961L203.695 4.88255L207.011 5.30222C209.379 4.61548 211.449 3.60445 215.212 3.31831C214.278 3.81429 215.009 4.12904 214.968 4.7204C213.939 4.10043 212.058 4.98747 210.096 4.86347C211.111 4.93024 210.895 5.20684 210.638 5.31176L214.115 4.73948C214.034 5.22592 214.86 5.10192 215.766 5.30222C215.076 4.34842 218.365 4.66317 219.772 4.36749C219.867 4.69179 219.515 5.01608 217.796 4.93978C219.704 5.65513 220.259 3.81429 222.127 4.42472C221.707 4.42472 221.477 4.38657 221.315 4.54872C222.303 4.26257 224.712 4.48195 224.143 4.76809H223.724C226.525 4.88255 232.249 4.76809 232.669 3.96689C232.696 4.07181 232.303 4.94932 232.127 5.11146L237.121 2.37404C236.688 3.07032 238.38 4.72994 236.052 5.121C236.715 5.21638 237.541 5.33084 238.948 5.09239C238.488 4.99701 237.811 4.08135 238.434 4.02412C240.139 4.79671 239.625 4.43426 241.722 5.10192C241.046 4.94932 241.79 3.86198 242.872 3.89059C242.71 4.05274 242.967 4.96839 242.575 5.08285L245.254 4.00505C244.591 4.19581 245.132 4.91116 245.741 5.21638C245.457 5.00654 248.055 5.23546 248.773 5.13054L247.636 4.88255C250.667 5.0447 250.627 3.37553 253.631 3.42322C253.266 3.6426 252.738 4.78717 254.267 4.9207C254.971 4.36749 257.366 2.27866 260.018 1.84944L260.533 2.1642L262.576 1.80175C261.304 2.63157 257.745 4.36749 255.796 5.05423C256.933 5.30222 256.107 5.42622 257.812 5.3976C258.408 5.69328 256.892 5.84589 256.392 5.86497L260.343 6.05573C260.167 5.41668 263.361 5.40714 263.212 4.87301L258.922 5.54068C258.746 4.90163 261.399 3.7189 264.2 3.83336C264.917 4.09089 263.672 4.97793 263.726 5.18777C264.092 4.96839 266.379 4.76809 266.636 4.9207L265.445 5.26407C267.001 5.50252 267.989 4.41518 269.857 5.02562C270.506 5.06377 271.792 5.84589 271.9 5.47391C270.845 4.73948 270.628 2.47896 271.332 1.92575C271.562 1.97344 274.728 2.62203 275.473 2.98447C276.542 3.55676 273.876 4.35796 274.783 4.8444C274.823 4.67271 275.405 4.45334 275.649 4.38657C276.325 4.53918 275.364 4.93024 276.84 4.8444C277.083 4.19581 279.844 4.89209 277.53 4.29119C278.978 4.10043 279.059 4.42472 280.764 4.39611C280.223 3.97643 282.28 2.9654 283.728 2.77464C283.646 2.93678 283.971 3.15616 284.12 3.25154C287.084 3.30877 288.667 3.60445 291.428 3.60445C291.685 3.75706 293.011 3.94782 292.443 4.23396C292.835 4.1195 293.201 3.90013 294.053 3.88105C295.704 4.4438 292.159 3.96689 293.417 4.6441C293.525 4.26257 295.623 4.1195 296.827 3.88105C296.448 3.29923 294.026 3.77613 292.808 4.00505C292.808 3.20385 294.906 2.35496 297.788 1.98298C300.075 1.78268 298.776 2.49803 299.182 2.38358C303.485 2.51711 302.849 0.971942 306.422 1.55376C307.843 2.06882 306.49 2.57434 306.801 2.94632C304.933 3.14662 303.932 2.62203 302.673 2.6411L304.23 2.87955C303.634 3.05124 302.389 3.18477 301.713 3.03216C302.904 3.48999 308.98 3.11801 312.309 3.53768C312.904 3.366 313.919 3.18477 313.432 2.98447L312.376 3.06078C311.416 2.65064 314.352 2.48849 313.026 2.29773C314.433 2.00205 316.017 1.54423 317.992 1.78268L318.371 2.3645C318.331 2.19281 317.072 2.02113 316.517 2.19281C317.343 1.93529 319.562 2.98447 320.469 2.21189L319.075 1.81129C320.482 1.51561 322.242 0.895637 324.001 1.07686C323.203 0.504577 323.595 1.14363 322.35 0.466424C323.433 1.30577 317.857 0.43781 319.589 1.31531C318.304 0.533191 317.37 0.98148 315.692 0.313815C315.746 0.504577 316.287 0.6858 314.812 0.590419C314.745 0.647648 314.582 0.714414 314.487 0.762104C314.447 0.762104 314.433 0.762104 314.393 0.743028C314.42 0.743028 314.447 0.762104 314.474 0.762104C314.406 0.790719 314.406 0.800257 314.501 0.762104C314.853 0.847947 315.137 0.943328 315.259 1.05778C314.528 1.50607 312.173 1.487 311.388 1.71591C310.509 1.62053 311.754 1.49654 311.28 1.2867L310.089 1.63007C309.968 1.20086 307.762 0.924252 309.819 0.666724L307.965 0.647648C306.869 0.409196 305.366 0.313815 304.446 0.495039C303.567 0.399658 302.24 0.971942 302.998 0.63811L300.089 0.905175L300.062 0.800257C297.193 0.752566 294.148 1.51561 290.859 0.743028C289.899 0.847947 288.897 0.98148 287.273 0.867023L286.962 0.495039C285.717 0.628572 283.227 0.123054 282.699 0.514115C281.359 -0.477844 276.664 0.304277 274.485 0.123054L274.404 0.609495C272.901 0.580881 271.453 0.723952 269.586 0.914713L269.708 1.34393C268.097 1.69683 265.567 1.03871 263.023 1.0864C263.199 0.924252 263.835 0.962404 264.295 1.06732C261.25 0.103978 257.88 1.77314 255.12 1.06732C254.429 1.21993 253.929 1.17224 253.455 1.06732C253.523 1.06732 253.577 1.06732 253.631 1.04825C253.563 1.04825 253.455 1.04825 253.347 1.04825C253.049 0.971942 252.724 0.886099 252.386 0.819333C252.67 0.924251 252.954 1.01009 253.184 1.04825C252.657 1.04825 251.845 1.11501 251.06 1.21993L250.721 0.762104C250.721 0.762104 250.6 0.762104 250.545 0.771643C249.774 0.599957 249.923 0.991018 250.342 1.33439C249.95 1.41069 249.585 1.50607 249.3 1.61099C248.664 0.867023 247.23 1.85898 246.377 1.07686C245.85 1.45838 242.412 1.37254 241.993 2.18328C241.966 2.07836 241.736 2.03067 242.155 2.02113C241.276 1.92575 240.396 1.83991 239.611 2.06882L239.232 1.487L237.31 2.27866C236.147 1.92575 235.659 1.71591 236.823 1.26762C234.036 1.9639 234.55 1.53469 232.182 2.22143L232.303 1.83991C231.451 1.85898 230.098 2.3645 229.583 2.04974C227.689 1.33439 220.178 1.95436 215.306 1.29624C216.254 2.40265 213.033 0.800257 212.843 1.65868C212.559 1.39162 211.883 1.24855 212.667 1.01963C210.177 1.27716 208.932 0.609495 207.214 1.33439C206.93 1.06732 207.742 0.952866 207.498 0.790719C207.295 0.847947 206.713 1.01963 206.442 0.867023C206.185 0.714414 206.808 0.647648 207.2 0.533191C204.656 0.580881 204.399 1.39162 204.223 2.15466C202.937 1.79222 202.288 1.84944 201.368 2.34542C200.921 2.09743 200.163 1.83991 201.747 1.74453C200.853 1.70637 196.32 1.38208 196.225 1.99251C195.941 1.83991 194.98 1.94482 194.75 2.02113C192.761 1.98298 192.585 1.93529 190.623 1.99251L191.164 2.0879C190.393 2.82233 189.54 2.25004 187.957 2.34542L187.997 2.26912C184.371 1.74453 186.441 2.52665 182.868 1.92575L183.058 2.38358C182.72 3.366 179.891 1.80175 177.821 2.18328L178.565 2.4408C177.428 2.77464 175.398 1.10547 174.262 0.98148C174.018 0.895637 174.654 0.847947 174.992 0.781181C172.015 0.199358 174.613 1.38208 172.394 1.52515C171.988 1.20086 172.922 0.704876 171.433 0.647648C170.689 0.39012 167.103 1.69683 165.073 1.0864C165.519 1.33439 165.966 1.58238 164.938 1.77314C163.354 1.85898 160.661 0.838409 159.24 1.62053C159.037 1.55376 158.97 1.487 158.956 1.42977C157.752 1.63007 155.032 1.77314 154.314 2.19281C153.191 0.609495 146.817 2.9654 146.831 1.50607L143.123 1.59192L143.218 1.43931C140.849 1.34393 140.01 1.69683 139.171 2.04974C138.616 1.95436 139.022 1.81129 139.063 1.73499C135.599 1.44885 135.247 1.50607 132.351 2.23097L132.053 1.75406C131.268 2.03067 127.032 1.01963 123.636 1.57284C123.663 1.51561 123.744 1.42977 124.015 1.363C120.185 1.92575 114.853 0.0562876 113.459 1.78268L110.929 2.21189C114.19 2.34542 110.441 2.95586 111.781 3.242C110.496 3.34692 108.452 2.72695 110.035 2.63157L110.279 2.71741C110.861 1.82083 106.219 2.40265 106.3 1.79222C99.8723 1.83991 93.6067 1.35346 87.5846 1.31531L88.2748 2.01159L86.1772 1.97344C85.6224 1.81129 85.4329 1.42977 86.9351 1.45838C86.1502 1.06732 84.418 1.79222 84.3774 1.94482C81.4408 1.66822 85.5277 1.13409 84.621 1.11501L83.403 1.17224L83.6737 1.25808C82.6858 1.54423 82.5911 1.84944 80.7912 1.81129C79.6545 1.66822 80.2093 1.38208 79.7627 1.35346C79.7627 1.30577 79.6139 1.27716 79.0726 1.33439L76.4202 1.27716L77.4757 1.83037C76.2984 2.10697 74.9857 1.80175 76.2036 2.43127C74.4038 1.46792 66.3383 2.09743 65.2286 1.79222C63.5912 2.19281 61.9672 2.19281 59.9509 2.14512C60.4516 2.25958 60.7493 2.87955 59.0171 2.80325C59.6531 1.52515 55.8504 2.25004 54.443 1.33439C55.7016 1.94482 49.5171 1.487 51.4794 2.35496C50.0314 2.25004 51.3847 1.87806 50.2885 1.57284C46.8512 2.06882 42.7102 1.25808 38.4474 1.42977C38.3797 1.60145 39.097 1.84944 38.1767 2.10697L35.9303 1.26762C35.0913 1.35346 35.1589 2.2405 33.6162 1.65868C33.8327 1.80175 34.1575 2.01159 33.5891 2.06882C25.253 1.25808 16.565 2.75556 8.10707 1.22947C9.25735 1.55376 8.48598 1.58238 7.61989 1.60145C8.18826 1.67776 7.61989 2.01159 7.71462 2.2405L4.16905 1.61099C3.51948 2.2405 0.36636 1.65868 0.000976562 2.25958L1.12419 2.15466C-0.364407 2.87002 3.20823 3.73798 2.9917 4.65364C4.65623 3.8429 7.40337 5.84589 10.137 4.69179C10.7459 4.87301 9.62273 4.98747 9.94751 5.19731C10.6377 4.80624 11.4767 4.7204 13.033 4.90163L12.857 4.99701C17.2281 4.90163 19.0956 5.28315 24.008 5.53114L23.6426 5.08285C24.6982 5.14008 24.9147 5.28315 25.4154 5.3976C26.6198 4.71086 22.4517 5.35945 23.5614 4.60595C24.9553 5.5216 30.9909 4.60595 31.9382 5.65513C33.5621 5.65513 31.4645 5.13054 33.0884 5.14008L33.5215 5.42622L33.9275 5.06377C34.9965 5.121 35.5243 5.47391 35.5649 5.71236C35.3078 5.68375 34.8342 5.77913 34.55 5.7982C35.9303 6.13204 38.4339 5.68375 38.9075 5.7982L37.3512 5.62652C41.7764 5.35945 47.1895 5.7219 51.4659 5.14961L51.1411 4.93978C54.4024 4.53918 53.7529 5.16869 57.339 4.98747L57.2037 5.03516C57.921 4.82532 58.8818 4.71086 59.8561 4.73948C58.9494 4.98747 61.5612 5.22592 60.3704 5.50252C63.9159 5.07331 62.1161 5.16869 64.4572 4.37703L64.9986 4.72994C65.797 4.40565 65.8646 4.2435 67.651 4.14812C66.1894 4.45334 68.8012 4.68225 67.1503 5.09239C70.9124 5.86497 72.7257 4.31027 74.4579 5.43576C76.1766 4.45334 71.2101 4.89209 72.1709 4.68225C71.3589 4.36749 73.5918 3.94782 74.7692 4.0432C75.9736 4.06228 76.8126 5.29269 79.8304 5.27361C79.5327 5.27361 79.5056 5.34038 79.2079 5.34038C80.3446 5.58837 81.4273 4.99701 82.8076 5.40714C83.579 4.81578 84.6074 5.43576 84.824 4.68225L82.0498 4.86347C83.6196 4.66317 85.0946 3.77613 87.6794 4.20535C87.4764 4.35795 86.705 4.55825 86.1772 4.67271C86.9351 4.89209 87.6388 4.5201 88.4237 4.74902C88.2071 5.50252 85.054 4.9207 83.376 5.49299C84.1879 5.80774 86.5562 4.93978 85.7171 5.76005C86.9351 4.7204 88.6943 5.89358 90.7378 5.09239L90.6024 5.54068C90.9272 5.46437 91.5903 5.25453 92.1858 5.26407L91.1031 5.85543C92.7541 5.34991 94.2969 6.29418 95.8802 6.01758C92.5511 6.03665 95.1359 5.47391 93.7285 5.14008C97.8289 4.52964 96.0832 6.3228 100.684 6.10342C100.062 6.17019 98.3567 5.83636 99.3175 5.62652C100.197 5.7219 101.347 5.89358 101.889 6.13204C104.934 6.03665 101.415 5.66467 102.714 5.38807C103.756 5.94127 104.203 5.15915 105.543 4.98747V5.44529C109.02 5.74097 106.476 4.48195 109.589 4.83486L108.276 5.47391L109.9 5.31176L109.562 5.83636C111.335 5.44529 111.876 5.55021 113.622 5.69328C113.216 5.36899 113.852 4.85393 115.381 4.8444C116.423 5.121 114.799 5.28315 116.978 5.21638C116.49 5.50252 115.949 5.86497 115.002 5.44529C114.907 5.5979 114.515 5.73144 114.42 5.88405C115.543 6.1988 117.248 5.95081 118.047 5.95081C117.749 5.93174 117.384 5.91266 117.194 5.84589L120.347 5.20684C120.848 5.37853 120.456 5.5216 120.063 5.65513C120.699 5.60744 121.146 5.3976 122.079 5.34991C121.836 5.7219 121.89 6.11296 120.564 6.28465L123.568 5.86497C123.771 6.02712 125.111 6.31326 124.718 6.44679C126.383 6.66617 128.805 5.7219 131.011 6.00804C131.119 5.93174 131.349 5.86497 131.823 5.80774C133.894 5.89358 135.734 6.35141 138.197 5.83636L139.591 6.50402C141.512 6.35141 137.696 5.66467 140.903 5.40714C143.177 5.18777 141.756 5.97943 142.554 6.16065C143.678 5.81728 145.653 5.13054 147.738 5.67421C147.047 5.7982 146.506 5.70282 145.856 5.75051L145.978 5.70282ZM169.755 5.38807C169.295 5.48345 168.375 5.77913 168.037 5.51206C168.564 4.98747 168.97 5.23546 169.755 5.38807ZM205.888 4.25304C205.549 4.40565 205.021 4.32934 204.412 4.15766C204.846 4.1195 205.333 4.13858 205.888 4.25304ZM306.557 0.952866C306.557 0.952866 306.53 0.962404 306.503 0.971942C305.475 0.790719 305.84 0.867023 306.557 0.952866ZM308.695 1.15317C308.912 1.0864 308.898 1.02917 308.804 0.962404C308.655 1.07686 308.181 1.0864 307.626 1.05778C307.775 1.18178 308.059 1.25808 308.695 1.15317ZM79.5597 1.53469L79.9793 1.65868C79.0455 1.79222 79.3026 1.66822 79.5597 1.53469Z" fill="currentColor"/>
</svg>
