<?xml version="1.0" encoding="UTF-8"?>
<svg version="1.1" xmlns="http://www.w3.org/2000/svg" width="247" height="74">
<path d="M0 0 C1.32 0 2.64 0 4 0 C4.495 2.97 4.495 2.97 5 6 C6.65 6 8.3 6 10 6 C10.99 9.465 10.99 9.465 12 13 C12.28875 12.21625 12.5775 11.4325 12.875 10.625 C14 8 14 8 16 6 C18.6015625 5.8046875 18.6015625 5.8046875 21.625 5.875 C22.62789063 5.89304687 23.63078125 5.91109375 24.6640625 5.9296875 C25.43492187 5.95289063 26.20578125 5.97609375 27 6 C27.33 5.01 27.66 4.02 28 3 C28.66 3 29.32 3 30 3 C30 3.99 30 4.98 30 6 C30.99 6 31.98 6 33 6 C33 6.99 33 7.98 33 9 C33.5878125 8.2575 33.5878125 8.2575 34.1875 7.5 C36 6 36 6 38.5625 5.6875 C41 6 41 6 43 8 C43 9.32 43 10.64 43 12 C40.69 12 38.38 12 36 12 C36.99 13.98 36.99 13.98 38 16 C40.475 15.505 40.475 15.505 43 15 C42.67 16.32 42.34 17.64 42 19 C40.25 19.625 40.25 19.625 38 20 C37.360625 19.649375 36.72125 19.29875 36.0625 18.9375 C35.381875 18.628125 34.70125 18.31875 34 18 C32.327767 18.65257873 30.66072849 19.31867549 29 20 C28.01 19.34 27.02 18.68 26 18 C23.82372717 18.23167523 23.82372717 18.23167523 21.5625 18.9375 C18.18962032 19.89058106 16.35526351 19.8887659 13 19 C11.515 19.495 11.515 19.495 10 20 C7.46742101 20.09599519 4.96907608 20.13937035 2.4375 20.125 C1.75236328 20.12886719 1.06722656 20.13273437 0.36132812 20.13671875 C-4.7466133 20.12669335 -4.7466133 20.12669335 -7 19 C-7.4140625 16.71484375 -7.4140625 16.71484375 -7.625 13.9375 C-7.69976562 13.01839844 -7.77453125 12.09929688 -7.8515625 11.15234375 C-7.90054688 10.44207031 -7.94953125 9.73179688 -8 9 C-9.65 9 -11.3 9 -13 9 C-12.54177532 12.46941546 -12.10868317 15.67395049 -11 19 C-13.60364409 19.24867947 -16.20589894 19.47457902 -18.8125 19.6875 C-19.55048828 19.76033203 -20.28847656 19.83316406 -21.04882812 19.90820312 C-26.54974762 20.33135078 -26.54974762 20.33135078 -29.01171875 18.51953125 C-29.50091797 17.76736328 -29.50091797 17.76736328 -30 17 C-30.7425 17.495 -31.485 17.99 -32.25 18.5 C-35 20 -35 20 -39 20 C-39 20.99 -39 21.98 -39 23 C-38.01 23 -37.02 23 -36 23 C-36 23.66 -36 24.32 -36 25 C-38.31 25 -40.62 25 -43 25 C-43 23.35 -43 21.7 -43 20 C-43.94875 20.04125 -44.8975 20.0825 -45.875 20.125 C-49 20 -49 20 -51 18 C-50.34 16.68 -49.68 15.36 -49 14 C-51.31 14 -53.62 14 -56 14 C-55.67 15.65 -55.34 17.3 -55 19 C-56.875 19.625 -56.875 19.625 -59 20 C-59.66 19.34 -60.32 18.68 -61 18 C-60.55011719 17.47921875 -60.10023437 16.9584375 -59.63671875 16.421875 C-57.64076021 13.46842799 -56.8038475 10.66843964 -55.8125 7.25 C-55.46832031 6.07953125 -55.12414062 4.9090625 -54.76953125 3.703125 C-54.38861328 2.36507813 -54.38861328 2.36507813 -54 1 C-52.12011719 1.28881836 -52.12011719 1.28881836 -50 2 C-48.56053399 4.5307685 -47.38058455 6.90101663 -46.25 9.5625 C-45.93417969 10.27341797 -45.61835937 10.98433594 -45.29296875 11.71679688 C-44.51545957 13.47208274 -43.75598145 15.23533543 -43 17 C-43 15.906875 -43 14.81375 -43 13.6875 C-43 11.45833333 -43 9.22916667 -43 7 C-39.59437148 6.22157062 -36.49234244 5.90021879 -33 6 C-32.34 7.32 -31.68 8.64 -31 10 C-30.34 10 -29.68 10 -29 10 C-28.34 8.68 -27.68 7.36 -27 6 C-24.625 5.875 -24.625 5.875 -22 6 C-18.99382731 9.00617269 -19.40414684 11.82381598 -19 16 C-18.01 16.33 -17.02 16.66 -16 17 C-16.495 13.535 -16.495 13.535 -17 10 C-17.66 10 -18.32 10 -19 10 C-18.67 9.01 -18.34 8.02 -18 7 C-17.113125 6.855625 -16.22625 6.71125 -15.3125 6.5625 C-14.219375 6.376875 -13.12625 6.19125 -12 6 C-11.113125 5.855625 -10.22625 5.71125 -9.3125 5.5625 C-6.74613722 5.0779949 -6.74613722 5.0779949 -4 3 C-4 3.99 -4 4.98 -4 6 C-3.01 6 -2.02 6 -1 6 C-1 6.99 -1 7.98 -1 9 C-1.99 9 -2.98 9 -4 9 C-4 11.64 -4 14.28 -4 17 C-2.35 17.33 -0.7 17.66 1 18 C0.89171875 16.42798828 0.89171875 16.42798828 0.78125 14.82421875 C0.6874471 13.4453161 0.59370001 12.06640965 0.5 10.6875 C0.45230469 9.99720703 0.40460938 9.30691406 0.35546875 8.59570312 C0.16120511 5.72337641 0 2.87986212 0 0 Z M-53 7 C-53.33 8.32 -53.66 9.64 -54 11 C-53.01 11 -52.02 11 -51 11 C-51.33 9.68 -51.66 8.36 -52 7 C-52.33 7 -52.66 7 -53 7 Z M-26 8 C-26.33 9.32 -26.66 10.64 -27 12 C-25.68 11.67 -24.36 11.34 -23 11 C-23.33 10.01 -23.66 9.02 -24 8 C-24.66 8 -25.32 8 -26 8 Z M18 8 C17.67 8.66 17.34 9.32 17 10 C16.67 10 16.34 10 16 10 C16 11.98 16 13.96 16 16 C17.98 16.99 17.98 16.99 20 18 C20.66 17.34 21.32 16.68 22 16 C21.67673447 12.40320934 21.67673447 12.40320934 21 9 C20.01 8.67 19.02 8.34 18 8 Z M37 8 C36.67 8.66 36.34 9.32 36 10 C37.32 9.67 38.64 9.34 40 9 C39.01 8.67 38.02 8.34 37 8 Z M-38 9 C-39.231394 11.46278801 -39.07159196 13.2795055 -39 16 C-36.525 16.495 -36.525 16.495 -34 17 C-33.3121764 14.64632287 -33.3121764 14.64632287 -33 12 C-33.66 11.01 -34.32 10.02 -35 9 C-35.99 9 -36.98 9 -38 9 Z M5 9 C3.58422523 10.18424326 3.58422523 10.18424326 3.9375 13.5625 C3.958125 14.696875 3.97875 15.83125 4 17 C4.99 17.33 5.98 17.66 7 18 C8.20561184 17.01732141 8.20561184 17.01732141 8.09765625 15.15234375 C8.08605469 14.42144531 8.07445312 13.69054687 8.0625 12.9375 C8.041875 11.638125 8.02125 10.33875 8 9 C7.01 9 6.02 9 5 9 Z M24 9 C24.33 11.31 24.66 13.62 25 16 C25.33 16 25.66 16 26 16 C26 13.69 26 11.38 26 9 C25.34 9 24.68 9 24 9 Z M-30 12 C-29.67 13.32 -29.34 14.64 -29 16 C-28.67 15.01 -28.34 14.02 -28 13 C-28.66 12.67 -29.32 12.34 -30 12 Z M-25 14 C-25.33 14.99 -25.66 15.98 -26 17 C-25.01 16.67 -24.02 16.34 -23 16 C-23 15.34 -23 14.68 -23 14 C-23.66 14 -24.32 14 -25 14 Z M32 15 C33 17 33 17 33 17 Z " fill="#080301" transform="translate(163,27)"/>
<path d="M0 0 C6.81540607 5.60036442 10.62533159 12.67313785 12.47265625 21.25390625 C12.94522095 27.98150923 10.13157885 33.82749598 6.0625 39.0625 C-2.56376069 48.07791531 -14.02889674 53.72306487 -26.51171875 54.515625 C-39.12533677 54.68512491 -48.83849587 52.42536527 -58.171875 43.54296875 C-61.11339902 40.32830322 -63.03914466 37.82286318 -63.3125 33.3125 C-64.2096875 33.2196875 -64.2096875 33.2196875 -65.125 33.125 C-67.3125 32.3125 -67.3125 32.3125 -69.0625 30.1875 C-70.67739141 26.47324977 -70.85060747 24.34830604 -70.3125 20.3125 C-68.86691661 17.16534449 -67.16764676 14.23435615 -65.3125 11.3125 C-64.6525 11.3125 -63.9925 11.3125 -63.3125 11.3125 C-62.9825 10.3225 -62.6525 9.3325 -62.3125 8.3125 C-46.10634355 -7.17432313 -19.09268336 -13.09212573 0 0 Z M-63.3125 14.3125 C-66.22554353 18.36995349 -67.34740722 21.21292255 -67.1875 26.25 C-66.754375 27.7659375 -66.754375 27.7659375 -66.3125 29.3125 C-65.6525 29.6425 -64.9925 29.9725 -64.3125 30.3125 C-64.18875 29.054375 -64.065 27.79625 -63.9375 26.5 C-63.61381941 23.20924737 -63.24645001 22.21342502 -61.3125 19.3125 C-61.34730469 20.02535156 -61.38210937 20.73820312 -61.41796875 21.47265625 C-61.6826429 30.83707976 -59.5729387 36.62155479 -53.1953125 43.51953125 C-47.31824062 49.11616194 -40.28301229 50.88947768 -32.375 51.5625 C-18.33950819 50.41674557 -5.53674318 45.28859713 4.0625 34.8125 C7.81005319 30.15860921 9.24679768 25.4888739 9.0625 19.453125 C7.78591786 12.1659686 2.44182917 5.693508 -3.3125 1.3125 C-21.35439749 -10.17179633 -49.95318651 -0.22026671 -63.3125 14.3125 Z " fill="#070301" transform="translate(86.3125,12.6875)"/>
<path d="M0 0 C1.32 0 2.64 0 4 0 C4.33 4.29 4.66 8.58 5 13 C5.45375 11.865625 5.9075 10.73125 6.375 9.5625 C8 6 8 6 10 5 C12.125 5.4375 12.125 5.4375 14 6 C13.34 4.35 12.68 2.7 12 1 C13.65 0.67 15.3 0.34 17 0 C17 4.62 17 9.24 17 14 C17.66 14 18.32 14 19 14 C18.67 11.69 18.34 9.38 18 7 C21.07877257 6.08777109 23.79193623 5.67096782 27 6 C28.8125 7.3125 28.8125 7.3125 30 9 C30 9.99 30 10.98 30 12 C27.69 12.33 25.38 12.66 23 13 C23.33 13.99 23.66 14.98 24 16 C25.98 16 27.96 16 30 16 C29.505 17.485 29.505 17.485 29 19 C26.1875 19.625 26.1875 19.625 23 20 C22.01 19.34 21.02 18.68 20 18 C18.32110979 18.63525576 16.65583225 19.30686092 15 20 C11.55748903 20.20655066 9.28151792 20.09383931 6 19 C5.67 19.33 5.34 19.66 5 20 C2.98035801 20.07244053 0.95832876 20.08377188 -1.0625 20.0625 C-2.71958984 20.04896484 -2.71958984 20.04896484 -4.41015625 20.03515625 C-5.26480469 20.02355469 -6.11945312 20.01195313 -7 20 C-7 6.625 -7 6.625 -6 1 C-4.68 1.33 -3.36 1.66 -2 2 C-2.01160156 2.99902344 -2.02320313 3.99804688 -2.03515625 5.02734375 C-2.04417969 6.31769531 -2.05320312 7.60804687 -2.0625 8.9375 C-2.07410156 10.22527344 -2.08570313 11.51304688 -2.09765625 12.83984375 C-2.36532549 15.86298403 -2.36532549 15.86298403 -1 17 C-1 14.03 -1 11.06 -1 8 C-0.67 8 -0.34 8 0 8 C0 7.236875 0 6.47375 0 5.6875 C0 3.79166667 0 1.89583333 0 0 Z M11 8 C8.7508092 9.82703227 8.7508092 9.82703227 8.75 12.5 C8.7508092 15.17296773 8.7508092 15.17296773 11 17 C11.99 17 12.98 17 14 17 C14 14.36 14 11.72 14 9 C13.01 8.67 12.02 8.34 11 8 Z M23 8 C23 8.66 23 9.32 23 10 C23.99 10 24.98 10 26 10 C26 9.34 26 8.68 26 8 C25.01 8 24.02 8 23 8 Z M18 15 C19 17 19 17 19 17 Z " fill="#070302" transform="translate(61,27)"/>
<path d="M0 0 C2.64 0 5.28 0 8 0 C8 0.66 8 1.32 8 2 C7.34 2 6.68 2 6 2 C6.99 3.65 7.98 5.3 9 7 C9.99 6.67 10.98 6.34 12 6 C11.67 4.02 11.34 2.04 11 0 C12.32 0 13.64 0 15 0 C16.32 3.3 17.64 6.6 19 10 C19.309375 9.05125 19.61875 8.1025 19.9375 7.125 C21 4 21 4 22 2 C21.01 1.67 20.02 1.34 19 1 C19 0.67 19 0.34 19 0 C21.31 0 23.62 0 26 0 C26 0.66 26 1.32 26 2 C25.34 2 24.68 2 24 2 C23.80664062 2.81984375 23.61328125 3.6396875 23.4140625 4.484375 C23.15367188 5.56203125 22.89328125 6.6396875 22.625 7.75 C22.24214844 9.35101563 22.24214844 9.35101563 21.8515625 10.984375 C21.12466459 13.55852722 20.2973776 15.67600186 19 18 C18.34 18 17.68 18 17 18 C16.01 15.36 15.02 12.72 14 10 C12.35 12.97 10.7 15.94 9 19 C7 18 7 18 5.78125 14.7265625 C5.3467388 13.36171751 4.91997913 11.99438649 4.5 10.625 C2.78233812 5.08433716 2.78233812 5.08433716 0 0 Z M9 8 C10 11 10 11 10 11 Z " fill="#070301" transform="translate(28,28)"/>
<path d="M0 0 C1.32 0 2.64 0 4 0 C4.33 5.61 4.66 11.22 5 17 C5.33 16.34 5.66 15.68 6 15 C6.99 14.67 7.98 14.34 9 14 C8.34 13.67 7.68 13.34 7 13 C7 12.34 7 11.68 7 11 C6.34 11 5.68 11 5 11 C5 9.35 5 7.7 5 6 C7.66666667 6 10.33333333 6 13 6 C13.33 7.65 13.66 9.3 14 11 C13.34 11 12.68 11 12 11 C12.515625 11.391875 13.03125 11.78375 13.5625 12.1875 C14.036875 12.785625 14.51125 13.38375 15 14 C14.6875 16.6875 14.6875 16.6875 14 19 C10.58860997 20.09651823 7.79344419 19.94215473 4.25 19.5625 C3.26515625 19.46066406 2.2803125 19.35882813 1.265625 19.25390625 C0.51796875 19.17011719 -0.2296875 19.08632813 -1 19 C-0.34 18.67 0.32 18.34 1 18 C0.9278125 16.95199219 0.855625 15.90398438 0.78125 14.82421875 C0.6874471 13.4453161 0.59370001 12.06640965 0.5 10.6875 C0.45230469 9.99720703 0.40460938 9.30691406 0.35546875 8.59570312 C0.16120511 5.72337641 0 2.87986212 0 0 Z M9 8 C9.33 8.66 9.66 9.32 10 10 C10.33 9.34 10.66 8.68 11 8 C10.34 8 9.68 8 9 8 Z M10 15 C9.67 15.66 9.34 16.32 9 17 C9.99 17 10.98 17 12 17 C12 16.34 12 15.68 12 15 C11.34 15 10.68 15 10 15 Z " fill="#070301" transform="translate(207,27)"/>
<path d="M0 0 C1.65 0 3.3 0 5 0 C5 0.66 5 1.32 5 2 C5.99 2 6.98 2 8 2 C7.67 2.66 7.34 3.32 7 4 C4.69 3.67 2.38 3.34 0 3 C0 2.01 0 1.02 0 0 Z " fill="#100704" transform="translate(179,33)"/>
<path d="" fill="#000000" transform="translate(0,0)"/>
<path d="" fill="#000000" transform="translate(0,0)"/>
<path d="" fill="#000000" transform="translate(0,0)"/>
<path d="" fill="#000000" transform="translate(0,0)"/>
</svg>
